<?xml version="1.0" encoding="utf-8"?>
<!-- Generator: Adobe Illustrator 24.0.1, SVG Export Plug-In . SVG Version: 6.00 Build 0)  -->
<svg version="1.1" xmlns="http://www.w3.org/2000/svg" xmlns:xlink="http://www.w3.org/1999/xlink" x="0px" y="0px"
	 viewBox="0 0 48.88 69.61" style="enable-background:new 0 0 48.88 69.61;" xml:space="preserve">
<style type="text/css">
	.st0{fill:#363738;}
</style>
<g id="Layer_1">
	<g>
		<path class="st0" d="M29.65,4.22v7.38h4.64V4.22c0-1.36-1.04-2.46-2.32-2.46C30.68,1.76,29.65,2.86,29.65,4.22z"/>
		<path class="st0" d="M11.09,15.3v2.46c0,0.68,0.52,1.23,1.16,1.23h1.16v2.46c0,5.85,3.88,10.89,9.28,12.06v6.9h4.64v-6.9
			c5.4-1.17,9.28-6.21,9.28-12.06v-2.46h1.16c0.64,0,1.16-0.55,1.16-1.23V15.3c0-0.68-0.52-1.23-1.16-1.23H12.25
			C11.61,14.07,11.09,14.62,11.09,15.3z"/>
		<path class="st0" d="M18.05,1.76c-1.28,0-2.32,1.1-2.32,2.46v7.38h4.64V4.22C20.37,2.86,19.33,1.76,18.05,1.76z"/>
	</g>
	<g>
		<path class="st0" d="M14.22,63.72H7.79L6.9,66.75H1.11L8,48.43h6.18l6.88,18.32h-5.93L14.22,63.72z M11.02,53.17l-2,6.59h4.02"/>
		<path class="st0" d="M22.83,48.43h9.41c2.05,0,3.58,0.49,4.61,1.46s1.53,2.36,1.53,4.16c0,1.85-0.56,3.3-1.67,4.34
			s-2.81,1.56-5.09,1.56h-3.1v6.8h-5.69V48.43z M28.52,56.24h1.39c1.09,0,1.86-0.19,2.3-0.57c0.44-0.38,0.66-0.86,0.66-1.46
			c0-0.58-0.19-1.06-0.58-1.46c-0.38-0.4-1.1-0.6-2.16-0.6h-1.61V56.24z"/>
		<path class="st0" d="M41.57,48.43h5.67v18.32h-5.67V48.43z"/>
	</g>
</g>
<g id="Layer_2">
</g>
</svg>
