<?xml version="1.0" encoding="utf-8"?>
<!-- Generator: Adobe Illustrator 24.0.1, SVG Export Plug-In . SVG Version: 6.00 Build 0)  -->
<svg version="1.1" id="Layer_1" xmlns="http://www.w3.org/2000/svg" xmlns:xlink="http://www.w3.org/1999/xlink" x="0px" y="0px"
	 viewBox="0 0 79.98 77.48" style="enable-background:new 0 0 79.98 77.48;" xml:space="preserve">
<style type="text/css">
	.st0{fill:#363738;}
</style>
<g id="Layer_2_1_">
</g>
<path class="st0" d="M36.14,29.38l-2.01-0.58c-0.21-0.06-0.33-0.28-0.27-0.49l4.49-15.48c0.06-0.21,0.28-0.33,0.49-0.27l2.01,0.58
	c0.21,0.06,0.33,0.28,0.27,0.49l-4.49,15.48C36.57,29.32,36.35,29.45,36.14,29.38z M32.39,25.69l1.43-1.53
	c0.15-0.16,0.14-0.42-0.03-0.57l-2.98-2.62l2.98-2.62c0.17-0.15,0.18-0.4,0.03-0.57l-1.43-1.53c-0.15-0.16-0.4-0.17-0.56-0.02
	l-4.74,4.44c-0.17,0.15-0.17,0.42,0,0.58l4.74,4.45C31.99,25.86,32.24,25.85,32.39,25.69L32.39,25.69z M43.16,25.71l4.74-4.45
	c0.17-0.15,0.17-0.42,0-0.58l-4.74-4.45c-0.16-0.15-0.41-0.14-0.56,0.02l-1.43,1.53c-0.15,0.16-0.14,0.42,0.03,0.57l2.98,2.63
	L41.2,23.6c-0.17,0.15-0.18,0.4-0.03,0.57l1.43,1.53C42.75,25.85,43,25.86,43.16,25.71L43.16,25.71z"/>
<g>
	<path class="st0" d="M16.74,63.39l5.09,1.54c-0.34,1.43-0.88,2.62-1.62,3.58s-1.65,1.68-2.74,2.17c-1.09,0.49-2.48,0.73-4.16,0.73
		c-2.04,0-3.71-0.3-5.01-0.89c-1.3-0.59-2.41-1.64-3.35-3.13c-0.94-1.5-1.41-3.41-1.41-5.74c0-3.11,0.83-5.5,2.48-7.17
		c1.66-1.67,4-2.51,7.02-2.51c2.37,0,4.23,0.48,5.59,1.44c1.36,0.96,2.36,2.43,3.02,4.41l-5.13,1.14c-0.18-0.57-0.37-0.99-0.56-1.26
		c-0.33-0.44-0.72-0.79-1.19-1.03c-0.47-0.24-1-0.36-1.58-0.36c-1.32,0-2.33,0.53-3.03,1.59c-0.53,0.79-0.8,2.02-0.8,3.7
		c0,2.08,0.32,3.51,0.95,4.29c0.63,0.77,1.52,1.16,2.67,1.16c1.11,0,1.95-0.31,2.52-0.94C16.07,65.48,16.48,64.58,16.74,63.39z"/>
	<path class="st0" d="M23.67,64.31c0-2.08,0.7-3.79,2.1-5.14c1.4-1.35,3.3-2.02,5.68-2.02c2.73,0,4.79,0.79,6.18,2.37
		c1.12,1.27,1.68,2.84,1.68,4.71c0,2.1-0.69,3.81-2.08,5.15s-3.31,2.01-5.77,2.01c-2.19,0-3.96-0.56-5.31-1.67
		C24.5,68.35,23.67,66.54,23.67,64.31z M28.9,64.3c0,1.21,0.25,2.11,0.74,2.69c0.49,0.58,1.11,0.87,1.85,0.87
		c0.75,0,1.37-0.29,1.85-0.86c0.48-0.57,0.72-1.49,0.72-2.76c0-1.18-0.24-2.06-0.73-2.64c-0.49-0.58-1.09-0.87-1.81-0.87
		c-0.76,0-1.39,0.29-1.89,0.88C29.15,62.21,28.9,63.1,28.9,64.3z"/>
	<path class="st0" d="M56.18,52.28v18.81h-4.89v-2.01c-0.68,0.86-1.31,1.43-1.87,1.73c-0.75,0.39-1.59,0.59-2.51,0.59
		c-1.86,0-3.27-0.71-4.25-2.12s-1.47-3.13-1.47-5.14c0-2.26,0.54-3.99,1.62-5.18c1.08-1.2,2.46-1.8,4.12-1.8
		c0.81,0,1.55,0.14,2.21,0.41s1.25,0.68,1.76,1.23v-6.52H56.18z M50.94,64.23c0-1.07-0.23-1.87-0.68-2.39
		c-0.45-0.53-1.03-0.79-1.72-0.79c-0.61,0-1.12,0.25-1.53,0.76c-0.41,0.5-0.62,1.35-0.62,2.54c0,1.11,0.21,1.93,0.64,2.44
		c0.42,0.52,0.95,0.78,1.57,0.78c0.67,0,1.22-0.26,1.67-0.78C50.72,66.27,50.94,65.42,50.94,64.23z"/>
	<path class="st0" d="M74.48,65.57H64.02c0.09,0.84,0.32,1.46,0.68,1.87c0.5,0.59,1.16,0.89,1.98,0.89c0.51,0,1-0.13,1.46-0.38
		c0.28-0.16,0.59-0.45,0.91-0.86l5.14,0.47c-0.79,1.37-1.74,2.35-2.85,2.94s-2.71,0.89-4.79,0.89c-1.8,0-3.22-0.25-4.26-0.76
		s-1.89-1.32-2.57-2.42c-0.68-1.11-1.02-2.41-1.02-3.91c0-2.13,0.68-3.85,2.05-5.17c1.36-1.32,3.25-1.98,5.65-1.98
		c1.95,0,3.49,0.3,4.62,0.89c1.13,0.59,1.99,1.45,2.58,2.57c0.59,1.12,0.89,2.58,0.89,4.37V65.57z M69.17,63.07
		c-0.1-1.01-0.37-1.73-0.81-2.17c-0.44-0.44-1.02-0.65-1.74-0.65c-0.83,0-1.49,0.33-1.99,0.99c-0.32,0.41-0.52,1.02-0.6,1.83H69.17z
		"/>
</g>
<path class="st0" d="M55.56,5.07H19.41c-2,0-3.62,1.62-3.62,3.62v24.1c0,2,1.62,3.62,3.62,3.62h14.46l-1.21,3.62h-5.42
	c-1,0-1.81,0.81-1.81,1.81s0.81,1.81,1.81,1.81h20.49c1,0,1.81-0.81,1.81-1.81s-0.81-1.81-1.81-1.81h-5.42L41.1,36.4h14.46
	c2,0,3.62-1.62,3.62-3.62V8.68C59.18,6.68,57.56,5.07,55.56,5.07z M54.36,31.58H20.62V9.89h33.74V31.58z"/>
</svg>
