<?xml version="1.0" encoding="utf-8"?>
<!-- Generator: Adobe Illustrator 24.0.1, SVG Export Plug-In . SVG Version: 6.00 Build 0)  -->
<svg version="1.1" id="Layer_1" xmlns="http://www.w3.org/2000/svg" xmlns:xlink="http://www.w3.org/1999/xlink" x="0px" y="0px"
	 viewBox="0 0 70.61 69.17" style="enable-background:new 0 0 70.61 69.17;" xml:space="preserve">
<style type="text/css">
	.st0{fill:#363738;}
</style>
<g id="Layer_2_1_">
</g>
<path class="st0" d="M19.55,11.07l15.45,7.01c0.45,0.21,0.96,0.21,1.41,0l15.45-7.01c1.1-0.5,1.1-2.16,0-2.66L36.42,1.41
	c-0.45-0.21-0.96-0.21-1.41,0L19.55,8.42C18.45,8.92,18.45,10.58,19.55,11.07z M51.88,16.93l-3.85-1.75L37.3,20.05
	c-0.5,0.23-1.03,0.34-1.58,0.34c-0.55,0-1.08-0.12-1.58-0.34l-10.72-4.86l-3.85,1.75c-1.1,0.5-1.1,2.16,0,2.65l15.45,7.01
	c0.45,0.2,0.96,0.2,1.41,0l15.46-7.01C52.97,19.09,52.97,17.43,51.88,16.93L51.88,16.93z M51.88,25.41l-3.84-1.74L37.3,28.54
	c-0.5,0.23-1.03,0.34-1.58,0.34c-0.55,0-1.08-0.12-1.58-0.34l-10.74-4.87l-3.84,1.74c-1.1,0.5-1.1,2.16,0,2.65l15.45,7.01
	c0.45,0.2,0.96,0.2,1.41,0l15.46-7.01C52.97,27.57,52.97,25.91,51.88,25.41z"/>
<g>
	<path class="st0" d="M1.53,46.07h9c1.77,0,3.21,0.25,4.3,0.75s2,1.22,2.71,2.16c0.71,0.94,1.23,2.03,1.55,3.27s0.48,2.56,0.48,3.95
		c0,2.18-0.24,3.87-0.72,5.07c-0.48,1.2-1.14,2.21-1.99,3.02c-0.85,0.81-1.76,1.35-2.73,1.62c-1.33,0.37-2.53,0.56-3.61,0.56h-9
		V46.07z M7.59,50.68v11.15h1.48c1.27,0,2.17-0.15,2.7-0.44c0.54-0.29,0.95-0.8,1.26-1.53c0.3-0.73,0.45-1.91,0.45-3.54
		c0-2.16-0.34-3.64-1.02-4.44c-0.68-0.8-1.8-1.2-3.37-1.2H7.59z"/>
	<path class="st0" d="M27.37,56.47l-5.2-0.57c0.2-0.95,0.48-1.69,0.85-2.23c0.37-0.54,0.9-1.01,1.6-1.41
		c0.5-0.29,1.19-0.51,2.06-0.67s1.82-0.24,2.84-0.24c1.63,0,2.94,0.1,3.93,0.29c0.99,0.19,1.81,0.59,2.47,1.19
		c0.46,0.42,0.83,1.01,1.1,1.77c0.27,0.77,0.4,1.5,0.4,2.19v6.53c0,0.7,0.04,1.24,0.13,1.63c0.08,0.39,0.27,0.9,0.56,1.51h-5.11
		c-0.21-0.38-0.34-0.67-0.4-0.87s-0.12-0.51-0.19-0.94c-0.71,0.71-1.42,1.22-2.13,1.53c-0.96,0.41-2.08,0.61-3.36,0.61
		c-1.69,0-2.98-0.41-3.86-1.22c-0.88-0.82-1.32-1.82-1.32-3.02c0-1.12,0.32-2.05,0.95-2.77c0.63-0.72,1.8-1.26,3.5-1.61
		c2.04-0.43,3.37-0.73,3.97-0.9c0.61-0.17,1.25-0.4,1.93-0.67c0-0.7-0.14-1.18-0.41-1.46s-0.76-0.42-1.46-0.42
		c-0.89,0-1.56,0.15-2.01,0.45C27.86,55.4,27.58,55.83,27.37,56.47z M32.09,59.45c-0.75,0.28-1.53,0.52-2.34,0.74
		c-1.11,0.31-1.81,0.61-2.1,0.9c-0.3,0.31-0.45,0.65-0.45,1.04c0,0.45,0.15,0.81,0.45,1.09c0.3,0.28,0.74,0.42,1.32,0.42
		c0.61,0,1.17-0.15,1.69-0.46s0.89-0.68,1.11-1.12s0.33-1.01,0.33-1.72V59.45z"/>
	<path class="st0" d="M46.78,46.07v5.62h3v4.15h-3v5.24c0,0.63,0.06,1.05,0.17,1.25c0.18,0.31,0.49,0.47,0.94,0.47
		c0.4,0,0.96-0.12,1.69-0.36l0.4,3.91c-1.35,0.31-2.6,0.46-3.77,0.46c-1.36,0-2.35-0.18-3-0.54c-0.64-0.36-1.12-0.91-1.42-1.65
		c-0.31-0.74-0.46-1.93-0.46-3.58v-5.2h-2.01v-4.15h2.01v-2.71L46.78,46.07z"/>
	<path class="st0" d="M57.33,56.47l-5.2-0.57c0.2-0.95,0.48-1.69,0.85-2.23c0.37-0.54,0.9-1.01,1.6-1.41
		c0.5-0.29,1.19-0.51,2.06-0.67c0.87-0.16,1.82-0.24,2.84-0.24c1.63,0,2.94,0.1,3.93,0.29c0.99,0.19,1.81,0.59,2.47,1.19
		c0.46,0.42,0.83,1.01,1.1,1.77s0.4,1.5,0.4,2.19v6.53c0,0.7,0.04,1.24,0.13,1.63c0.08,0.39,0.27,0.9,0.56,1.51h-5.11
		c-0.21-0.38-0.34-0.67-0.4-0.87s-0.12-0.51-0.19-0.94c-0.71,0.71-1.42,1.22-2.13,1.53c-0.96,0.41-2.08,0.61-3.36,0.61
		c-1.69,0-2.98-0.41-3.86-1.22c-0.88-0.82-1.32-1.82-1.32-3.02c0-1.12,0.32-2.05,0.95-2.77c0.63-0.72,1.8-1.26,3.5-1.61
		c2.04-0.43,3.37-0.73,3.97-0.9c0.61-0.17,1.25-0.4,1.93-0.67c0-0.7-0.14-1.18-0.41-1.46s-0.76-0.42-1.46-0.42
		c-0.89,0-1.56,0.15-2.01,0.45C57.83,55.4,57.55,55.83,57.33,56.47z M62.05,59.45c-0.75,0.28-1.53,0.52-2.34,0.74
		c-1.11,0.31-1.81,0.61-2.1,0.9c-0.3,0.31-0.45,0.65-0.45,1.04c0,0.45,0.15,0.81,0.45,1.09c0.3,0.28,0.74,0.42,1.32,0.42
		c0.61,0,1.17-0.15,1.69-0.46s0.89-0.68,1.11-1.12s0.33-1.01,0.33-1.72V59.45z"/>
</g>
</svg>
