<svg xmlns="http://www.w3.org/2000/svg" viewBox="0 0 352.27 174.94"><defs><style>.cls-1{fill:#0b0c0c;}.cls-2{fill:#c0ae92;}.cls-3{fill:#717171;}.cls-4{fill:#252525;}.cls-5{fill:#b8a78b;}.cls-6{fill:#161616;}.cls-7{fill:#454545;}.cls-8{fill:#6fd1f9;}.cls-9{fill:#f8f8f8;}.cls-10{fill:#444;}.cls-11{fill:#f6cf95;}.cls-12{fill:#6ccaf1;}.cls-13{fill:#c8bba9;}.cls-14{fill:#397fb2;}.cls-15{fill:#594939;}.cls-16{fill:#4a4b4c;}</style></defs><g id="Layer_1" data-name="Layer 1"><path class="cls-1" d="M42.55,83.51c1.67,3.91,1.66,3.9,5.63,2.33,1.63-.64,3.26-1.24,4.91-1.83,3-1.05,3.3-2.29,1.12-4.5a3.21,3.21,0,0,1-1.16-2.83C54.1,67.43,54.86,58.13,57,49a5.28,5.28,0,0,1,.58-1.9c2.54-3.49,1-5.83-1.88-8.18a23.77,23.77,0,0,1-5.79-7.45c-2.73-5.21-1.4-10.45,3.47-13.76,6.68-4.53,15.27-3.67,20,3,2.91,4.1,5.26,4.25,9.7,2.88,10.86-3.36,22.16-3.2,33.42-2.4a53.45,53.45,0,0,1,16.31,3.35c1.08.43,1.49,0,2-.76a22.23,22.23,0,0,1,4.12-5,14.74,14.74,0,0,1,20.17.37,9.65,9.65,0,0,1,2.13,11.45,32.36,32.36,0,0,1-7.81,10c-1,.94-1.44,1.59-.67,3.1,5.19,10.14,7.57,21.07,8.75,32.31.06.58,0,1.17.13,1.75.41,2.66,1.15,5.44-2.73,6.15.42,1,1.16,1,1.74,1.19a92.74,92.74,0,0,1,13.26,5.76A27.25,27.25,0,0,1,178.43,94c4.79,4.23,4.41,8.78-1.09,12.14-4.52,2.76-9.29,2.07-14,.77s-4.64-1.35-4.7,3.54c-.17,13.35-.87,26.63-4.61,39.55a44.13,44.13,0,0,1-6,13.11c-1.29,1.85-2.59,3.88-4.56,4.89-3.55,1.8-4.23,4.55-3.91,8.13a21.51,21.51,0,0,1-.74,7.43c-.68,2.58-1.38,5.3-4.59,5.91-4.9.94-8.24-.28-10.3-3.65a16.41,16.41,0,0,1-2.17-7.35c-.15-1.81-.88-2.11-2.56-1.8a81.06,81.06,0,0,1-24.87.85c-1.66-.2-2.45.1-2.57,1.87a15.25,15.25,0,0,1-.68,3.16c-1.75,6-6.19,8.5-12.1,6.86-2.18-.6-3.12-2.4-3.74-4.35-1.23-3.86-1.29-7.86-1.23-11.86a2.7,2.7,0,0,0-1.29-2.71c-9.45-6-13.83-14.94-14.71-25.86-1-12.78-2-25.57-2.43-38.39-.07-1.77-.36-2.54-2.19-1.52a5,5,0,0,1-1.64.59c-2.32.37-2.6,1.58-1.52,3.43l-.81.91q-.88-3.27-1.78-6.54l1-.09c1.35.49,6.18-.82,6.72-1.86a2.27,2.27,0,0,0,.12-1c0-4.25,0-8.49,0-12.74,0-1.27-.39-1.68-1.59-1.21-2.64,1-5.27,2.06-7.91,3.06A1.4,1.4,0,0,0,45,91l-1.11.11-2.3-7.53ZM76,29A2,2,0,0,0,74,30c-.58.12-1.13.29-1.28,1a.34.34,0,0,0,.42.44c.68-.1.89-.63,1-1.22A2,2,0,0,0,76,29.05l.2-.24Zm68.54,7-.28-.18.18.28c.23.73.23,1.63,1.4,1.79C146.12,36.67,145.54,36.18,144.54,36ZM97,77c-1.27-.51-1.94,0-2.34,1.26-.93,3.1.36,5.46,3.55,6.2a16.5,16.5,0,0,0,5.19.52c1.85.16,3.69,1.23,5.57.11a25.3,25.3,0,0,0,6.39-.1,4.9,4.9,0,0,0,3.13-8L118,76c0-.89-.44-1.3-1.25-1.57a29.27,29.27,0,0,0-20.63.72l1.63,1.2Zm44.67-48.71c1.16,3.41,4,5.19,6.72,7.18l.67.71a2.2,2.2,0,0,0,1.16,2.73c1,.62,1.52-.68,2.11-1.24a29.71,29.71,0,0,0,5.53-6.71c2.66-4.66,1.58-8.64-3.07-11.37-5.91-3.47-12.7-1.52-17,4.93-.42.63-1.65,1.51-.32,2.23,1,.56,1.95,2.44,3.54.83ZM63.05,35.34c.48.25.94.34,1.33-.14a31.06,31.06,0,0,1,5.13-5c.73-.54.62-1.26.6-2,.42-.71.75-.11,1.18,0,1.12.33,1.8-.58,2.56-1.13.5-.37.11-.87-.1-1.33A13.32,13.32,0,0,0,60.67,18c-3.76.37-6.85,2.06-8.61,5.53-1.66,3.3-.09,6.12,1.72,8.79a32.47,32.47,0,0,0,5.3,5.93c.58.53,1.15,1.94,2.1,1.09s2.21-1.71,1.22-3.31Zm73.41,3.22.24.2-.18-.26c-1.12-5.61-7.25-11.1-12.63-11a20.63,20.63,0,0,1,5.18,9.08c.15.51.51,1,1,.93C132.33,37.3,134.29,38.56,136.46,38.56Zm19.3,66.23c0-5.67-.06-11.33,0-17,0-1.83-.32-2.4-2.19-1.66a77.42,77.42,0,0,1-17.41,4.31,200.92,200.92,0,0,1-50.33.94C77.24,90.46,68.78,88.67,61,84.5c-2.7-1.45-2.64-1.43-2.71,1.75-.39,18.76,1.2,37.44,2.34,56.14,1.17,19.31,12.48,27.86,27.12,31.13,13.13,2.94,26.07,1.42,39.08-1.38,13.81-3,21.9-11.12,24.86-24.72.11-.48.27-1,.39-1.44C155.4,132.44,155.68,118.62,155.76,104.79ZM143.61,56.46a22.38,22.38,0,0,0-5.78-13.68c-3.36-3.49-10.86-3.68-15.52-1-4.39,2.49-7.42,8.51-6.57,13.34,1.15,6.52,5.14,10.93,11,13.57C134.61,72.21,143.6,66.19,143.61,56.46Zm-61-16.41a9.7,9.7,0,0,0-8.3,4.42,28.44,28.44,0,0,0-4,9.9c-1,5.16.16,9.58,4.64,12.78s9.2,3.47,14,.51a20.48,20.48,0,0,0,6.44-6.16c3.07-4.6,3.54-9.38.94-14.39S89.46,40.08,82.57,40.05Zm21.52-14.79c-.46.67-.74.91-.78,1.19-1.42,8.62-4.17,17.1-2.91,26a7,7,0,0,1-.22,3.21A50,50,0,0,0,97.7,70.32c-.06,1.68.34,1.62,1.56,1.26a13.49,13.49,0,0,1,4.93-.57c1.58.14,2.38-.27,2.52-2.09a178.48,178.48,0,0,0,.06-30.32A49.84,49.84,0,0,0,104.09,25.26Zm-17.8,2.23c-.67-.28-.82-.4-1-.39a1.92,1.92,0,0,0-.72.14C74.42,31.58,68.06,39.09,65.49,49.92a198.83,198.83,0,0,0-3.94,25.53c-.62,6-.09,7.06,4.75,9,1.64.65,2.32.54,2.28-1.53-.08-5.23-.31-10.47.41-15.69a8.84,8.84,0,0,0-.71-4.86c-1.17-2.67-1-5.53-.44-8.33,1.25-6.53,5.26-11.74,8.34-17.4C78.39,32.51,82.1,30,86.29,27.49Zm84.19,78.06a10.6,10.6,0,0,0,3.43-.45c2.49-.94,5-2.17,5.43-5S177.5,96,175.6,94.69c-4.75-3.32-10.14-5.3-15.53-7.27-1.12-.41-1.48-.07-1.47,1.09.05,4.24.05,8.49,0,12.73a1.73,1.73,0,0,0,1.22,1.89A27.8,27.8,0,0,0,170.48,105.55ZM119.54,73.44c-.24-3.33.44-6.14-2-9C113,59.21,111.91,53,115,46.53a5.4,5.4,0,0,0,.41-3.39c-.45-2.61-.88-5.23-1.45-7.81a28.33,28.33,0,0,0-4.29-10.54c-.69-1-1.7-1.61-2.76-1s0,1.47.11,2.23c.07.57.32,1.11.45,1.68,3.21,13.75,2.57,27.66,1.8,41.58,0,.87-.44,1.74.9,1.76A21.53,21.53,0,0,1,119.54,73.44Zm16.17-42.19a19.52,19.52,0,0,1,3,5.41,93.3,93.3,0,0,0,4.36,9.74A24.34,24.34,0,0,1,146,59.86c-.19,2-1.34,3.76-1,5.84.9,5.28.45,10.61.47,15.92,0,4.58-.05,4.54,4.36,3.38,1.57-.41,2.42-1,2.25-2.87-.2-2.15-.33-4.3-.47-6.44a120.28,120.28,0,0,0-4.69-26.87c-1.82-6-3.79-12.1-8.79-16.47C137.47,31.78,137,30.83,135.71,31.25ZM95.36,65.9C92.15,68.75,88.77,71,84.63,72c-1.19.29-1.1,1.3-1.11,2.21,0,2.83-.06,5.65-.07,8.47,0,5.58,0,5.58,5.48,6.45a12.52,12.52,0,0,0,2.69.33c1-.06,2.46.72,2.79-.73.28-1.26.56-2.68-.61-4-2.18-2.41-2.79-6.2-.67-8.69C95.81,73,94.67,69.37,95.36,65.9Zm47.57,10.6h0c0-2.49,0-5,0-7.46,0-1.66-.79-1.75-1.76-.83a15.53,15.53,0,0,1-7,3.6A1.42,1.42,0,0,0,133,73.37a98.31,98.31,0,0,1-.49,13.4c-.22,1.51.56,1.91,1.91,1.66,1.87-.35,3.73-.79,5.61-1,2.07-.2,2.86-1.38,2.89-3.23C143,81.65,142.93,79.07,142.93,76.5ZM71,77.28v1.94c0,6.92,0,6.83,6.81,8.54,2.29.58,3.11-.21,3.15-2.3.06-3.9,0-7.81.1-11.72,0-1.08-.27-1.62-1.43-1.87A14.22,14.22,0,0,1,73,68.69c-.93-.83-1.3-.64-1.58.59C70.75,72.09,71.19,74.92,71,77.28Zm75.32-38.91a4,4,0,0,0,.55,2.89,81.56,81.56,0,0,1,3.59,10.85,149.75,149.75,0,0,1,4,29c0,.6-.33,1.42.52,1.74,1.49.55,4.59-2,4.39-3.64-.47-3.78-.83-7.57-1.46-11.31a78.15,78.15,0,0,0-7.71-23.79C149.21,42.13,148.33,40,146.32,38.37ZM55.53,76.24c0,1.09,0,1.16,1.29,2.35.52.47,1,1.45,1.75,1.13s.39-1.33.44-2A177,177,0,0,1,62.36,52.6c1.5-6.94,3.66-13.44,8.56-18.77.38-.42,1-1,.41-1.48s-1,.21-1.42.57c-6.09,5.75-10.13,12.54-11.5,21C57.21,61.26,56.4,68.66,55.53,76.24Zm66.71-7c-.66,2.1.23,4,.18,5.83-.1,4,.33,8.12-.35,12.17-.13.77-.53,2.18.81,2.21a46.18,46.18,0,0,0,6.42-.52c.77-.09.68-.84.69-1.4.09-4.56.79-9.1.53-13.67-.05-.71.18-1.59-.89-1.77C127,71.63,124.68,70.32,122.24,69.2Zm14.58,107.37a22.74,22.74,0,0,1,0-2.74c.21-1.79-.44-1.86-1.94-1.33-3,1.06-6,1.94-9,2.84-.72.22-1.54.24-1.45,1.3.24,2.92.51,5.88,2.36,8.28,1.7,2.2,4.19,2.06,6.64,1.66,2-.33,2.08-2.14,2.53-3.59C136.59,180.91,136.52,178.72,136.82,176.57ZM76.94,173a37.67,37.67,0,0,0,.9,10.84c.54,2.15,1.81,2.94,3.91,3,4.34.19,8.68-5.41,7.32-9.52a1,1,0,0,0-.85-.76A55.09,55.09,0,0,1,76.94,173ZM126.49,36.77c-.09-4.24-7.9-11.68-12.32-11.75-.94,0-1.22.28-.74,1.18,2.35,4.38,3.18,9.2,4,14,.21,1.22.61,1.78,1.72.87a15.07,15.07,0,0,1,6.22-3C126.13,37.9,126.61,37.63,126.49,36.77ZM100.91,25.22c-3.84,1.44-10.39,8.53-11.24,12-.17.66-.14,1.18.52,1.44a20,20,0,0,1,7.57,5.56C98.59,37.59,99.62,31.44,100.91,25.22Zm-23,13.29a23.88,23.88,0,0,1,7.8-.94c.51,0,1.08,0,1.3-.54,1.38-3.43,3.57-6.36,5.68-9.42C86.91,29.94,81.38,32.42,77.86,38.51ZM112.38,90a38.55,38.55,0,0,0,5.9-.39c1.52-.32,1.34-1.31,1.21-2.25-.19-1.44-1.15-.77-1.87-.5a11.6,11.6,0,0,1-4.41.63c-1.16,0-2.32,0-3.49,0-1,0-2.14-.06-2.15,1.4s1.2,1,2,1.09C110.59,90.07,111.59,90,112.38,90ZM100.9,90v0h3c.86,0,1.12-.53,1.13-1.3s-.37-1.24-1.19-1.21A24.38,24.38,0,0,1,98.65,87c-.76-.13-1.54-.08-1.6,1s.13,1.86,1.37,1.93C99.24,90,100.08,90,100.9,90ZM87.58,26c-.26.23-.64.4-.7.64-.12.53.36.47.63.36a2.76,2.76,0,0,0,.69-.6Zm1.91-.31c-.06,0-.15.06-.17.12s.06.11.09.16l.27-.2ZM91,25.42l.16-.12c0-.05-.12-.14-.13-.13a1.81,1.81,0,0,0-.21.18Z" transform="translate(-14.84 -14.92)"/><path class="cls-2" d="M190.15,145.93c.6.17,1.55-1,1.83.45-1.55.34-.86.77,0,1.12a13.16,13.16,0,0,1,7,6.71c2.48,5.08,5.07,10.11,7.48,15.22a51.73,51.73,0,0,1,4.39,12.44c.79,4.28.23,5-4.11,5.3-13.56.85-27.12.16-40.67-.25a6.57,6.57,0,0,1-6.14-6.67,43.71,43.71,0,0,1,.5-5.71c.93-7,2.49-13.85,6.93-19.51,5.31-6.78,12.06-10.61,21.07-8.63C189.11,146.55,189.76,146.75,190.15,145.93Zm-10.06,23.44c.46-.45.72-.16,1-.07.84.25,1.82.37,2.16-.6s-.83-1-1.4-1.32c-2.4-1.39-3.13-6.94-1.1-8.64a1.12,1.12,0,0,1,.92-.12,12.09,12.09,0,0,0,7.68,0,.85.85,0,0,1,1.07.36,6.33,6.33,0,0,1-2,8.8c-1.72,1.19-.65,3-.32,4.24s1.68.17,2.46-.32a9.24,9.24,0,0,0,2.62-13.13,9.34,9.34,0,1,0-12.38,13.38c.57.32,1.17.77,1.85.45.2-.1.26-.59.27-.9,0-1-.74-.92-1.4-1S180.25,170.26,180.09,169.37Z" transform="translate(-14.84 -14.92)"/><path class="cls-3" d="M41.58,83.58c.77,2.51,1.53,5,2.3,7.53,1.26,4,2.09,8.1,3.74,12q.9,3.27,1.78,6.54c.12.3.23.6.34.9l.27,1a17.9,17.9,0,0,0,1.36,5.76,4.25,4.25,0,0,1-.89,4.93c-.78.83-1,2.39-2.8,1.73s-2.53-1.74-2.12-3.57c.56-2.45-.18-4.72-.9-7-.29-.88-.47-1.84-1.78-1.54l0,0c1-.23.75-.92.6-1.56-.73-3.15-2.3-6.07-2.66-9.34a.85.85,0,0,0-1-.85l0,0a1.34,1.34,0,0,0,.2-1.39q-1.47-4.84-3-9.69a52,52,0,0,0-3.7-11,11.6,11.6,0,0,0-3.31-6.26A3.69,3.69,0,0,0,25.31,71c-1.58.93-2.66,2.1-2,4.25a7.15,7.15,0,0,1-.17,3.1c-.17.92-.82,1-1.44.36-1.48-1.42-1.5-1.44-2.24.74a1.22,1.22,0,0,1-1.22,1c-.71,0-1-.33-1.15-1-.18-1-.42-1.94-.63-2.91-.11-.81-.2-1.63-.33-2.44-.55-3.64.9-6.88,3.66-8,1.69-.67,3.43-1.25,5.16-1.84,3-1,5.77-.8,8,1.53a16,16,0,0,1,3.59,5.34C38.19,75.31,39.9,79.44,41.58,83.58Z" transform="translate(-14.84 -14.92)"/><path class="cls-4" d="M190.15,145.93c-.39.82-1,.62-1.7.47-9-2-15.76,1.85-21.07,8.63-4.44,5.66-6,12.52-6.93,19.51a43.71,43.71,0,0,0-.5,5.71,6.57,6.57,0,0,0,6.14,6.67c13.55.41,27.11,1.1,40.67.25,4.34-.27,4.9-1,4.11-5.3a51.73,51.73,0,0,0-4.39-12.44c-2.41-5.11-5-10.14-7.48-15.22a13.16,13.16,0,0,0-7-6.71c-.84-.35-1.53-.78,0-1.12,4.09,1.06,6.55,3.89,8.38,7.51,4.29,8.52,8.88,16.89,11.41,26.18.13.48.25,1,.35,1.45,1,5.23,0,6.72-5.28,7-11.62.72-23.25.26-34.87-.15-.32-.46-.65-.48-1,0-10.16.3-13-2.59-12-12.62.74-7.43,2.51-14.6,6.8-20.89a23.22,23.22,0,0,1,9.34-8.07c1.45-.69,2-1.29,1.23-2.93a15.47,15.47,0,0,1-.93-7.86c.23-2.28,1.51-3.15,3.61-2.37,1,.37,1.44.62,2.07-.58,1-1.93,3-2.3,4.84-.92a3.66,3.66,0,0,0,3,.85c3.36-.38,5.1,1.91,3.85,5-.5,1.25-.69,2.9-2.34,3.45-.13-1.65.82-3,1.31-4.45.32-1,.39-2.08-.92-2.47-1.06-.32-2.28-1-2.89.75-.18.52-.33,1.27-1.09,1.12s-.46-.94-.56-1.47a2.7,2.7,0,0,0-2.62-2.26c-1-.12-1.54.63-1.67,1.51-.32,2.22-1.3,2.16-2.82,1-1-.81-2.19-.82-2.46.69a14.43,14.43,0,0,0,1.17,8.53c.48,1.09,1.37.63,2.16.54,1.18-.12.67-1,.55-1.49-.25-1.21-.64-2.4-1-3.59-.12-.41-.3-.9.1-1.13.6-.33.83.26,1.11.66.86,1.2.78,2.69,1,4,.44,2.1,1.84.95,2.61.8s.16-1.34.47-2c.24-.48.28-1.32,1-1.2.95.16.36.88.3,1.38-.1.88-.54,1.84.75,2.29s1.6-.3,2.06-1.2c.3-.57.59-2,1.59-.45C190.39,144,188.9,144.7,190.15,145.93Z" transform="translate(-14.84 -14.92)"/><path class="cls-5" d="M190.69,143.05c-1-1.54-1.29-.12-1.59.45-.46.9-.88,1.6-2.06,1.2s-.85-1.41-.75-2.29c.06-.5.65-1.22-.3-1.38-.74-.12-.78.72-1,1.2-.31.66.28,1.86-.47,2s-2.17,1.3-2.61-.8c-.27-1.34-.19-2.83-1-4-.28-.4-.51-1-1.11-.66-.4.23-.22.72-.1,1.13.37,1.19.76,2.38,1,3.59.12.52.63,1.37-.55,1.49-.79.09-1.68.55-2.16-.54a14.43,14.43,0,0,1-1.17-8.53c.27-1.51,1.42-1.5,2.46-.69,1.52,1.17,2.5,1.23,2.82-1,.13-.88.66-1.63,1.67-1.51a2.7,2.7,0,0,1,2.62,2.26c.1.53-.21,1.32.56,1.47s.91-.6,1.09-1.12c.61-1.71,1.83-1.07,2.89-.75,1.31.39,1.24,1.52.92,2.47-.49,1.47-1.44,2.8-1.31,4.45C190.42,142,192.12,142.33,190.69,143.05Z" transform="translate(-14.84 -14.92)"/><path class="cls-4" d="M41.58,83.58c-1.68-4.14-3.39-8.27-5-12.43A16,16,0,0,0,33,65.81c-2.28-2.33-5.08-2.54-8-1.53-1.73.59-3.47,1.17-5.16,1.84-2.76,1.09-4.21,4.33-3.66,8,.13.81.22,1.63.33,2.44l-1.15,0c-.68-5.9-1.71-10.46,6.52-12.64.32-.08.62-.24.94-.34,7.35-2.43,11.36-.8,14.68,6.22a72.37,72.37,0,0,1,5.12,13.7Z" transform="translate(-14.84 -14.92)"/><path class="cls-6" d="M37.1,89q1.5,4.84,3,9.69a1.34,1.34,0,0,1-.2,1.39c-1.52-1-1.15-2.93-1.92-4.3-.28-.48-.46-1.25-.85-1.39-.69-.23-1.18.46-1.54,1-.89,1.37-2.2,2.66-1.28,4.51a8.1,8.1,0,0,0,5.1,4.1c.87.28.87-.31.78-1-.11-1-1.12-1.88-.32-3a.85.85,0,0,1,1,.85c.36,3.27,1.93,6.19,2.66,9.34.15.64.35,1.33-.6,1.56a4.07,4.07,0,0,1-.37-.9c-.4-2.65-1.5-4.51-4.51-4.88a7,7,0,0,1-3-1.65c-4.37-3.43-4.58-7.33-.46-11C36,92,37,90.93,36.06,89Z" transform="translate(-14.84 -14.92)"/><path class="cls-4" d="M49.74,110.51c-.11-.3-.22-.6-.34-.9l.81-.91c1.45,3.43,2,7.12,3.17,10.64A1.7,1.7,0,0,1,53,121c-1,1.42-2,2.83-3,4.28-.57.86-1.14.91-2.07.5C44,124,43.92,124,44.38,119.79c.31-2.86-1.18-5.29-1.5-8,1.31-.3,1.49.66,1.78,1.54.72,2.29,1.46,4.56.9,7-.41,1.83.34,2.93,2.12,3.57s2-.9,2.8-1.73a4.25,4.25,0,0,0,.89-4.93A17.9,17.9,0,0,1,50,111.51C50.64,111,50.42,110.68,49.74,110.51Z" transform="translate(-14.84 -14.92)"/><path class="cls-6" d="M15.29,76.57l1.15,0c.21,1,.45,1.94.63,2.91.12.68.44,1,1.15,1a1.22,1.22,0,0,0,1.22-1c.74-2.18.76-2.16,2.24-.74.62.59,1.27.56,1.44-.36a7.15,7.15,0,0,0,.17-3.1c-.64-2.15.44-3.32,2-4.25a3.69,3.69,0,0,1,4.78.65,11.6,11.6,0,0,1,3.31,6.26l-1,.11c-.9-1.65-1.34-3.54-2.69-5-.81-.84-1.62-1.72-3-1.33a3.54,3.54,0,0,0-2.69,2.9A5.65,5.65,0,0,0,24.33,78c1,2,0,2.48-1.82,2.38a.85.85,0,0,0-1.44,0,1.34,1.34,0,0,0-.45.16c-3,2.26-4.21,1.87-4.9-1.57C15.56,78.2,15.43,77.38,15.29,76.57Z" transform="translate(-14.84 -14.92)"/><path class="cls-4" d="M32.44,78l1-.11a52,52,0,0,1,3.7,11l-1,0Q34.25,83.51,32.44,78Z" transform="translate(-14.84 -14.92)"/><path class="cls-4" d="M21.07,80.41a.85.85,0,0,1,1.44,0C22,80.58,21.54,81.06,21.07,80.41Z" transform="translate(-14.84 -14.92)"/><path class="cls-7" d="M171,188.4c.33-.46.66-.44,1,0A.76.76,0,0,1,171,188.4Z" transform="translate(-14.84 -14.92)"/><path class="cls-8" d="M155.76,104.79c-.08,13.83-.36,27.65-3.68,41.19-.12.48-.28,1-.39,1.44-3,13.6-11.05,21.74-24.86,24.72-13,2.8-25.95,4.32-39.08,1.38-14.64-3.27-25.95-11.82-27.12-31.13-1.14-18.7-2.73-37.38-2.34-56.14.07-3.18,0-3.2,2.71-1.75,7.78,4.17,16.24,6,24.87,6.89a200.92,200.92,0,0,0,50.33-.94,77.42,77.42,0,0,0,17.41-4.31c1.87-.74,2.22-.17,2.19,1.66C155.7,93.46,155.76,99.12,155.76,104.79Z" transform="translate(-14.84 -14.92)"/><path class="cls-9" d="M143.61,56.46c0,9.73-9,15.75-16.88,12.2-5.85-2.64-9.84-7-11-13.57-.85-4.83,2.18-10.85,6.57-13.34,4.66-2.65,12.16-2.46,15.52,1A22.38,22.38,0,0,1,143.61,56.46Zm-17.9-6.54a5,5,0,0,0-4.95,4.9,5.17,5.17,0,0,0,5.11,5.09,5.08,5.08,0,0,0,4.91-5A4.88,4.88,0,0,0,125.71,49.92Z" transform="translate(-14.84 -14.92)"/><path class="cls-9" d="M82.57,40.05c6.89,0,11.13,2.07,13.72,7.06s2.13,9.79-.94,14.39a20.48,20.48,0,0,1-6.44,6.16c-4.8,3-9.45,2.73-14-.51s-5.61-7.62-4.64-12.78a28.44,28.44,0,0,1,4-9.9A9.7,9.7,0,0,1,82.57,40.05ZM81.46,54.64a5,5,0,0,0,4.85,5.27,5.18,5.18,0,0,0,5.13-4.81,5,5,0,0,0-4.92-5.18A4.81,4.81,0,0,0,81.46,54.64Z" transform="translate(-14.84 -14.92)"/><path class="cls-7" d="M104.09,25.26a49.84,49.84,0,0,1,2.68,13.34,178.48,178.48,0,0,1-.06,30.32c-.14,1.82-.94,2.23-2.52,2.09a13.49,13.49,0,0,0-4.93.57c-1.22.36-1.62.42-1.56-1.26a50,50,0,0,1,2.48-14.63,7,7,0,0,0,.22-3.21c-1.26-8.93,1.49-17.41,2.91-26C103.35,26.17,103.63,25.93,104.09,25.26Z" transform="translate(-14.84 -14.92)"/><path class="cls-10" d="M86.29,27.49c-4.19,2.51-7.9,5-10.11,9.1C73.1,42.25,69.09,47.46,67.84,54c-.54,2.8-.73,5.66.44,8.33A8.84,8.84,0,0,1,69,67.18c-.72,5.22-.49,10.46-.41,15.69,0,2.07-.64,2.18-2.28,1.53-4.84-1.89-5.37-2.92-4.75-9a198.83,198.83,0,0,1,3.94-25.53c2.57-10.83,8.93-18.34,19.12-22.68a1.92,1.92,0,0,1,.72-.14C85.47,27.09,85.62,27.21,86.29,27.49Z" transform="translate(-14.84 -14.92)"/><path class="cls-11" d="M170.48,105.55a27.8,27.8,0,0,1-10.63-2.42,1.73,1.73,0,0,1-1.22-1.89c0-4.24,0-8.49,0-12.73,0-1.16.35-1.5,1.47-1.09,5.39,2,10.78,4,15.53,7.27,1.9,1.34,4.2,2.75,3.74,5.43s-2.94,4-5.43,5A10.6,10.6,0,0,1,170.48,105.55Z" transform="translate(-14.84 -14.92)"/><path class="cls-10" d="M119.54,73.44A21.53,21.53,0,0,0,110.18,71c-1.34,0-1-.89-.9-1.76.77-13.92,1.41-27.83-1.8-41.58-.13-.57-.38-1.11-.45-1.68-.09-.76-1.11-1.69-.11-2.23s2.07.05,2.76,1A28.33,28.33,0,0,1,114,35.33c.57,2.58,1,5.2,1.45,7.81a5.4,5.4,0,0,1-.41,3.39c-3.1,6.49-2,12.68,2.49,17.88C120,67.3,119.3,70.11,119.54,73.44Z" transform="translate(-14.84 -14.92)"/><path class="cls-10" d="M135.71,31.25c1.29-.42,1.76.53,2.41,1.1,5,4.37,7,10.44,8.79,16.47a120.28,120.28,0,0,1,4.69,26.87c.14,2.14.27,4.29.47,6.44.17,1.84-.68,2.46-2.25,2.87-4.41,1.16-4.34,1.2-4.36-3.38,0-5.31.43-10.64-.47-15.92-.35-2.08.8-3.87,1-5.84a24.34,24.34,0,0,0-2.9-13.46,93.3,93.3,0,0,1-4.36-9.74A19.52,19.52,0,0,0,135.71,31.25Z" transform="translate(-14.84 -14.92)"/><path class="cls-12" d="M62.4,36.06c1,1.6-.38,2.57-1.22,3.31s-1.52-.56-2.1-1.09a32.47,32.47,0,0,1-5.3-5.93c-1.81-2.67-3.38-5.49-1.72-8.79,1.76-3.47,4.85-5.16,8.61-5.53a13.32,13.32,0,0,1,13.08,7.74c.21.46.6,1,.1,1.33-.76.55-1.44,1.46-2.56,1.13-.43-.12-.76-.72-1.18,0l0,.05c.91-.47.35-1,0-1.35-1.9-1.53-4.05-2.3-6.47-1.45a6.44,6.44,0,0,0-4.69,5.27,2.89,2.89,0,0,0,.73,2.54A13.61,13.61,0,0,0,62.4,36.06Z" transform="translate(-14.84 -14.92)"/><path class="cls-12" d="M141,27.55c-1.59,1.61-2.51-.27-3.54-.83-1.33-.72-.1-1.6.32-2.23,4.28-6.45,11.07-8.4,17-4.93,4.65,2.73,5.73,6.71,3.07,11.37a29.71,29.71,0,0,1-5.53,6.71c-.59.56-1.12,1.86-2.11,1.24a2.2,2.2,0,0,1-1.16-2.73c1.64-1.65,4.15-2.86,3.6-5.75a6.35,6.35,0,0,0-4.53-4.88A6.14,6.14,0,0,0,141,27.55Z" transform="translate(-14.84 -14.92)"/><path class="cls-7" d="M95.36,65.9c-.69,3.47.45,7.06-2.23,10.2-2.12,2.49-1.51,6.28.67,8.69,1.17,1.28.89,2.7.61,4-.33,1.45-1.82.67-2.79.73a12.52,12.52,0,0,1-2.69-.33c-5.49-.87-5.49-.87-5.48-6.45,0-2.82,0-5.64.07-8.47,0-.91-.08-1.92,1.11-2.21C88.77,71,92.15,68.75,95.36,65.9Z" transform="translate(-14.84 -14.92)"/><path class="cls-7" d="M142.93,76.5c0,2.57,0,5.15,0,7.72,0,1.85-.82,3-2.89,3.23-1.88.19-3.74.63-5.61,1-1.35.25-2.13-.15-1.91-1.66a98.31,98.31,0,0,0,.49-13.4,1.42,1.42,0,0,1,1.24-1.56,15.53,15.53,0,0,0,7-3.6c1-.92,1.78-.83,1.76.83,0,2.48,0,5,0,7.46Z" transform="translate(-14.84 -14.92)"/><path class="cls-7" d="M71,77.28c.19-2.36-.25-5.19.38-8,.28-1.23.65-1.42,1.58-.59a14.22,14.22,0,0,0,6.67,3.18c1.16.25,1.45.79,1.43,1.87-.07,3.91,0,7.82-.1,11.72,0,2.09-.86,2.88-3.15,2.3C71,86.05,71,86.14,71,79.22Z" transform="translate(-14.84 -14.92)"/><path class="cls-10" d="M146.32,38.37c2,1.61,2.89,3.76,3.93,5.71A78.15,78.15,0,0,1,158,67.87c.63,3.74,1,7.53,1.46,11.31.2,1.6-2.9,4.19-4.39,3.64-.85-.32-.49-1.14-.52-1.74a149.75,149.75,0,0,0-4-29,81.56,81.56,0,0,0-3.59-10.85A4,4,0,0,1,146.32,38.37Z" transform="translate(-14.84 -14.92)"/><path class="cls-10" d="M55.53,76.24c.87-7.58,1.68-15,2.88-22.35,1.37-8.43,5.41-15.22,11.5-21,.38-.36.82-1.12,1.42-.57s0,1.06-.41,1.48C66,39.16,63.86,45.66,62.36,52.6A177,177,0,0,0,59,77.69c0,.7.37,1.7-.44,2s-1.23-.66-1.75-1.13C55.53,77.4,55.54,77.33,55.53,76.24Z" transform="translate(-14.84 -14.92)"/><path class="cls-7" d="M122.24,69.2c2.44,1.12,4.75,2.43,7.39,2.85,1.07.18.84,1.06.89,1.77.26,4.57-.44,9.11-.53,13.67,0,.56.08,1.31-.69,1.4a46.18,46.18,0,0,1-6.42.52c-1.34,0-.94-1.44-.81-2.21.68-4,.25-8.12.35-12.17C122.47,73.15,121.58,71.3,122.24,69.2Z" transform="translate(-14.84 -14.92)"/><path class="cls-11" d="M136.82,176.57c-.3,2.15-.23,4.34-.87,6.42-.45,1.45-.5,3.26-2.53,3.59-2.45.4-4.94.54-6.64-1.66-1.85-2.4-2.12-5.36-2.36-8.28-.09-1.06.73-1.08,1.45-1.3,3-.9,6.06-1.78,9-2.84,1.5-.53,2.15-.46,1.94,1.33A22.74,22.74,0,0,0,136.82,176.57Z" transform="translate(-14.84 -14.92)"/><path class="cls-11" d="M45,91a1.4,1.4,0,0,1,1-1.75c2.64-1,5.27-2,7.91-3.06,1.2-.47,1.61-.06,1.59,1.21-.05,4.25,0,8.49,0,12.74a2.27,2.27,0,0,1-.12,1c-.54,1-5.37,2.35-6.72,1.86A82.09,82.09,0,0,0,45,91Z" transform="translate(-14.84 -14.92)"/><path class="cls-11" d="M76.94,173a55.09,55.09,0,0,0,11.28,3.59,1,1,0,0,1,.85.76c1.36,4.11-3,9.71-7.32,9.52-2.1-.09-3.37-.88-3.91-3A37.67,37.67,0,0,1,76.94,173Z" transform="translate(-14.84 -14.92)"/><path class="cls-10" d="M126.49,36.77c.12.86-.36,1.13-1.11,1.31a15.07,15.07,0,0,0-6.22,3c-1.11.91-1.51.35-1.72-.87-.83-4.81-1.66-9.63-4-14-.48-.9-.2-1.19.74-1.18C118.59,25.09,126.4,32.53,126.49,36.77Z" transform="translate(-14.84 -14.92)"/><path class="cls-10" d="M100.91,25.22c-1.29,6.22-2.32,12.37-3.15,19a20,20,0,0,0-7.57-5.56c-.66-.26-.69-.78-.52-1.44C90.52,33.75,97.07,26.66,100.91,25.22Z" transform="translate(-14.84 -14.92)"/><path class="cls-10" d="M77.86,38.51c3.52-6.09,9-8.57,14.78-10.9-2.11,3.06-4.3,6-5.68,9.42-.22.54-.79.58-1.3.54A23.88,23.88,0,0,0,77.86,38.51Z" transform="translate(-14.84 -14.92)"/><path class="cls-10" d="M136.46,38.56c-2.17,0-4.13-1.26-6.35-1.07-.53,0-.89-.42-1-.93a20.63,20.63,0,0,0-5.18-9.08c5.38-.08,11.51,5.41,12.63,11Z" transform="translate(-14.84 -14.92)"/><path class="cls-13" d="M97.79,76.37l-1.63-1.2a29.27,29.27,0,0,1,20.63-.72c.81.27,1.29.68,1.25,1.57a7.31,7.31,0,0,1-6.27.43c-1.88-.62-3.83-1.78-5.94-1.07A21.54,21.54,0,0,1,97.79,76.37Z" transform="translate(-14.84 -14.92)"/><path class="cls-14" d="M70.08,28.27l0-.05c0,.73.13,1.45-.6,2a31.06,31.06,0,0,0-5.13,5c-.39.48-.85.39-1.33.14-.74-.88-1.45-1.79-2.24-2.63a2.44,2.44,0,0,1-.43-3A5.36,5.36,0,0,1,67.67,27C68.5,27.4,69.28,27.85,70.08,28.27Z" transform="translate(-14.84 -14.92)"/><path class="cls-14" d="M148.4,35.44c-2.68-2-5.56-3.77-6.72-7.18,1.17-.58,2.18-1.46,3.54-1.69A5.53,5.53,0,0,1,151,29.45c1.23,2.07-.2,3.18-1.39,4.44A18.48,18.48,0,0,0,148.4,35.44Z" transform="translate(-14.84 -14.92)"/><path class="cls-12" d="M118.5,77a4.9,4.9,0,0,1-3.13,8,25.3,25.3,0,0,1-6.39.1c0-.16.09-.32.13-.49l.21,0,.19-.11a1.53,1.53,0,0,0,1.58-.92,4.77,4.77,0,0,0,1.31-3.4c.12-1.64.61-2.36,2.37-2.19A6.23,6.23,0,0,0,118.5,77Z" transform="translate(-14.84 -14.92)"/><path class="cls-12" d="M103.41,85a16.5,16.5,0,0,1-5.19-.52c-3.19-.74-4.48-3.1-3.55-6.2.4-1.31,1.07-1.77,2.34-1.26a2.32,2.32,0,0,0,2,.49l1,0c1.19.57.73,1.72.86,2.63.2,1.38.1,2.83,1.38,3.81a1.3,1.3,0,0,0,1.16.63A.48.48,0,0,1,103.41,85Z" transform="translate(-14.84 -14.92)"/><path class="cls-6" d="M102.24,83.93c-1.28-1-1.18-2.43-1.38-3.81-.13-.91.33-2.06-.86-2.63-.31-.48-.64-.49-1,0A2.32,2.32,0,0,1,97,77l.78-.6a21.54,21.54,0,0,0,8-1c2.11-.71,4.06.45,5.94,1.07A7.31,7.31,0,0,0,118,76l.46.93a6.23,6.23,0,0,1-3.73,1c-1.76-.17-2.25.55-2.37,2.19a4.77,4.77,0,0,1-1.31,3.4,1.16,1.16,0,0,1-.59-1.07c1.3-4.22,1.23-4-1.55-4.85-2.45-.76-1.7,1.35-2.23,2.26-1.44-.49.24-2.28-1.34-2.54A2.76,2.76,0,0,0,102,80.32a6.53,6.53,0,0,0,.82,2.84Z" transform="translate(-14.84 -14.92)"/><path class="cls-10" d="M112.38,90c-.79,0-1.79,0-2.79,0-.82-.05-2,.4-2-1.09s1.13-1.39,2.15-1.4c1.17,0,2.33,0,3.49,0a11.6,11.6,0,0,0,4.41-.63c.72-.27,1.68-.94,1.87.5.13.94.31,1.93-1.21,2.25A38.55,38.55,0,0,1,112.38,90Z" transform="translate(-14.84 -14.92)"/><path class="cls-4" d="M148.4,35.44a18.48,18.48,0,0,1,1.22-1.55c1.19-1.26,2.62-2.37,1.39-4.44a5.53,5.53,0,0,0-5.79-2.88c-1.36.23-2.37,1.11-3.54,1.69l-.64-.71a6.14,6.14,0,0,1,7.1-2,6.35,6.35,0,0,1,4.53,4.88c.55,2.89-2,4.1-3.6,5.75Z" transform="translate(-14.84 -14.92)"/><path class="cls-4" d="M70.08,28.27c-.8-.42-1.58-.87-2.41-1.25a5.36,5.36,0,0,0-7.29,2.73,2.44,2.44,0,0,0,.43,3c.79.84,1.5,1.75,2.24,2.63l-.65.72a13.61,13.61,0,0,1-2.79-2.78,2.89,2.89,0,0,1-.73-2.54,6.44,6.44,0,0,1,4.69-5.27c2.42-.85,4.57-.08,6.47,1.45C70.43,27.25,71,27.8,70.08,28.27Z" transform="translate(-14.84 -14.92)"/><path class="cls-10" d="M100.9,90c-.82,0-1.66,0-2.48,0C97.18,89.89,97,89,97.05,88s.84-1.15,1.6-1a24.38,24.38,0,0,0,5.18.49c.82,0,1.21.39,1.19,1.21s-.27,1.3-1.13,1.3h-3Z" transform="translate(-14.84 -14.92)"/><path class="cls-4" d="M45,91a82.09,82.09,0,0,1,3.59,12l-1,.09c-1.65-3.86-2.48-8-3.74-12Z" transform="translate(-14.84 -14.92)"/><path class="cls-4" d="M103.41,85a.48.48,0,0,0,0-.39c1.91-.22,3.81-.81,5.71,0,0,.17-.09.33-.13.49C107.1,86.18,105.26,85.11,103.41,85Z" transform="translate(-14.84 -14.92)"/><path class="cls-4" d="M144.54,36c1,.21,1.58.7,1.3,1.89-1.17-.16-1.17-1.06-1.4-1.79Z" transform="translate(-14.84 -14.92)"/><path class="cls-4" d="M74.11,30.14c-.12.59-.33,1.12-1,1.22a.34.34,0,0,1-.42-.44c.15-.67.7-.84,1.28-1Z" transform="translate(-14.84 -14.92)"/><path class="cls-4" d="M87.58,26l.62.4a2.76,2.76,0,0,1-.69.6c-.27.11-.75.17-.63-.36C86.94,26.36,87.32,26.19,87.58,26Z" transform="translate(-14.84 -14.92)"/><path class="cls-4" d="M76,29.05a2,2,0,0,1-1.93,1.09L74,30A2,2,0,0,1,76,29Z" transform="translate(-14.84 -14.92)"/><path class="cls-4" d="M89.49,25.65l.19.08-.27.2c0-.05-.1-.13-.09-.16S89.43,25.68,89.49,25.65Z" transform="translate(-14.84 -14.92)"/><path class="cls-4" d="M91,25.42l-.18-.07a1.81,1.81,0,0,1,.21-.18s.08.08.13.13Z" transform="translate(-14.84 -14.92)"/><path class="cls-10" d="M136.52,38.5l.18.26-.24-.2Z" transform="translate(-14.84 -14.92)"/><path class="cls-4" d="M144.44,36.07l-.18-.28.28.18Z" transform="translate(-14.84 -14.92)"/><path class="cls-4" d="M76,29l.23-.2-.19.24Z" transform="translate(-14.84 -14.92)"/><path class="cls-15" d="M180.09,169.37c.16.89.76,1.08,1.47,1.12s1.42,0,1.4,1c0,.31-.07.8-.27.9-.68.32-1.28-.13-1.85-.45a9.34,9.34,0,1,1,12.38-13.38,9.24,9.24,0,0,1-2.62,13.13c-.78.49-2.12,1.54-2.46.32s-1.4-3,.32-4.24a6.33,6.33,0,0,0,2-8.8.85.85,0,0,0-1.07-.36,12.09,12.09,0,0,1-7.68,0,1.12,1.12,0,0,0-.92.12c-2,1.7-1.3,7.25,1.1,8.64.57.33,1.77.23,1.4,1.32s-1.32.85-2.16.6C180.81,169.21,180.55,168.92,180.09,169.37Z" transform="translate(-14.84 -14.92)"/><path class="cls-1" d="M49.74,110.51c.68.17.9.47.27,1Z" transform="translate(-14.84 -14.92)"/><path class="cls-11" d="M39.85,100c-.8,1.08.21,2,.32,3,.09.69.09,1.28-.78,1a8.1,8.1,0,0,1-5.1-4.1c-.92-1.85.39-3.14,1.28-4.51.36-.54.85-1.23,1.54-1,.39.14.57.91.85,1.39.77,1.37.4,3.26,1.92,4.3Z" transform="translate(-14.84 -14.92)"/><path class="cls-1" d="M125.71,49.92a4.88,4.88,0,0,1,5.07,5,5.08,5.08,0,0,1-4.91,5,5.17,5.17,0,0,1-5.11-5.09A5,5,0,0,1,125.71,49.92Z" transform="translate(-14.84 -14.92)"/><path class="cls-1" d="M81.46,54.64a4.81,4.81,0,0,1,5.06-4.72,5,5,0,0,1,4.92,5.18,5.18,5.18,0,0,1-5.13,4.81A5,5,0,0,1,81.46,54.64Z" transform="translate(-14.84 -14.92)"/><path class="cls-6" d="M109.11,84.57c-1.9-.82-3.8-.23-5.71,0a1.3,1.3,0,0,1-1.16-.63c.19-.26.39-.51.59-.77,1.62.6,3.14,1,3.09-1.62,0-.38,0-.89.57-.92.73,0,.73.58.7,1-.11,1.76.71,2.21,2.28,1.73l0,1.1-.19.11Z" transform="translate(-14.84 -14.92)"/><path class="cls-4" d="M109.51,84.49l0-1.1,1-.89a1.16,1.16,0,0,0,.59,1.07A1.53,1.53,0,0,1,109.51,84.49Z" transform="translate(-14.84 -14.92)"/><path class="cls-4" d="M99,77.46c.34-.46.67-.45,1,0Z" transform="translate(-14.84 -14.92)"/><path class="cls-9" d="M110.5,82.5l-1,.89c-1.57.48-2.39,0-2.28-1.73,0-.46,0-1.06-.7-1-.56,0-.58.54-.57.92,0,2.63-1.47,2.22-3.09,1.62a6.53,6.53,0,0,1-.82-2.84,2.76,2.76,0,0,1,3.37-2.95c1.58.26-.1,2,1.34,2.54.53-.91-.22-3,2.23-2.26C111.73,78.51,111.8,78.28,110.5,82.5Z" transform="translate(-14.84 -14.92)"/></g><g id="Layer_2" data-name="Layer 2"><path class="cls-16" d="M367.11,72.1a21.69,21.69,0,1,0-27.79,21.07c-.16,4.41-1.14,7.81-3,10.12-4.17,5.26-13.37,6.14-23.1,7-7.65.71-15.56,1.48-22,4.63V75.48a21.69,21.69,0,1,0-13,0v54.66a21.74,21.74,0,1,0,14.32.49,9.6,9.6,0,0,1,4-3.67c4.39-2.25,10.95-2.85,17.92-3.51,11.44-1.07,24.4-2.31,32.05-11.91,3.79-4.77,5.72-10.91,5.85-18.62A22,22,0,0,0,367.11,72.1ZM284.69,50.16a4.39,4.39,0,1,1-4.34,4.39A4.37,4.37,0,0,1,284.69,50.16Zm0,105.32A4.39,4.39,0,1,1,289,151.1,4.37,4.37,0,0,1,284.69,155.48Zm60.73-87.77a4.39,4.39,0,1,1-4.33,4.39A4.38,4.38,0,0,1,345.42,67.71Z" transform="translate(-14.84 -14.92)"/></g></svg>