<?xml version="1.0" encoding="utf-8"?>
<!-- Generator: Adobe Illustrator 25.0.0, SVG Export Plug-In . SVG Version: 6.00 Build 0)  -->
<svg version="1.1" xmlns="http://www.w3.org/2000/svg" xmlns:xlink="http://www.w3.org/1999/xlink" x="0px" y="0px" width="878.5px"
	 height="685.9px" viewBox="0 0 878.5 685.9" style="enable-background:new 0 0 878.5 685.9;" xml:space="preserve">
<style type="text/css">
	.st0{fill:#919396;}
	.st1{fill:none;}
	.st2{fill:#C9CACC;}
	.st3{fill:#FFFFFF;}
	.st4{fill:#B6B8BA;}
	.st5{fill:#454547;}
</style>
<g id="Layer_5">
	<circle class="st0" cx="264.5" cy="418.9" r="230.3"/>
</g>
<g id="Layer_1" focusable="false">
	<g>
		<path class="st1" d="M335.5,464c-6-6-14.1-9.4-22.6-9.4h-66.8c-9.4-4.7-21.5-32-32-32c-10.5,0-20.9-2.5-30.3-7.2l-11.1-5.5
			c-4.1-2-6.6-6.2-6.6-10.7c0-5.1,3.3-9.7,8.2-11.3l31.2-10.4c5.4-1.8,11.3-0.6,15.5,3.1l9.3,8.1c1.5,1.3,3.3,2,5.2,2h5.6
			c5.9,0,9.8-6.3,7.2-11.6l-15.6-31.2c-1.6-3.1-0.9-6.9,1.6-9.3l9.9-9.7c1.5-1.5,3.5-2.3,5.6-2.3h9c2.1,0,4.2-0.8,5.7-2.3l8-8
			c3.1-3.1,3.1-8.2,0-11.3l-4.7-4.7c-3.1-3.1-3.1-8.2,0-11.3l10.3-10.3l4.7-4.7c6.2-6.2,6.2-16.4,0-22.6L254.5,223
			c-8.3,0.3-16.4,1.1-24.4,2.4v11.3c0,11.9-12.5,19.6-23.2,14.3l-24-12c-45.8,19.9-82.7,56.4-103.2,101.9
			c9.9,14.7,25.2,37.4,34.6,51.1c5.2,7.6,11.2,14.6,18.1,20.7l0.8,0.7c9.5,8.6,20.2,16,31.7,21.8c14,7.1,34.4,18.2,48.8,26.1
			c10.2,5.6,16.5,16.3,16.5,28v32c0,8.5,3.4,16.6,9.4,22.6c15,15,24.3,38.6,22.6,51.2v27.4c14.6,0,28.9-1.7,42.6-4.7l17.4-46.8
			c2-5.5,3.3-11.2,4.8-16.9c1.1-4,3.2-7.7,6.2-10.7c3.3-3.3,7.4-7.4,11.3-11.3c8.8-8.7,13.7-20.6,13.7-33c0-8.1-3.2-15.8-8.9-21.6
			L335.5,464z"/>
		<path class="st2" d="M262.2,174.6c-137,0-248,111-248,248s111,248,248,248s248-111,248-248S399.1,174.6,262.2,174.6z M344.4,532.2
			c-3.9,3.9-8,8-11.3,11.3c-3,3-5.1,6.7-6.2,10.7c-1.5,5.7-2.7,11.4-4.8,16.9L304.8,618c-13.8,3-28,4.7-42.6,4.7v-27.4
			c1.7-12.6-7.6-36.3-22.6-51.2c-6-6-9.4-14.1-9.4-22.6v-32c0-11.6-6.3-22.3-16.5-28c-14.4-8-34.8-19.1-48.8-26.1
			c-11.5-5.8-22.1-13.1-31.7-21.8l-0.8-0.7c-6.8-6.2-12.9-13.1-18.1-20.7c-9.4-13.8-24.7-36.4-34.6-51.1
			c20.5-45.5,57.4-82,103.2-101.9l24,12c10.6,5.3,23.2-2.4,23.2-14.3v-11.3c8-1.3,16.1-2.1,24.4-2.4l28.3,28.3
			c6.2,6.2,6.2,16.4,0,22.6l-4.7,4.7L267.8,289c-3.1,3.1-3.1,8.2,0,11.3l4.7,4.7c3.1,3.1,3.1,8.2,0,11.3l-8,8
			c-1.5,1.5-3.5,2.3-5.7,2.3h-9c-2.1,0-4.1,0.8-5.6,2.3l-9.9,9.7c-2.5,2.4-3.1,6.2-1.6,9.3l15.6,31.2c2.7,5.3-1.2,11.6-7.2,11.6
			h-5.6c-1.9,0-3.8-0.7-5.2-2l-9.3-8.1c-4.3-3.7-10.2-4.9-15.5-3.1l-31.2,10.4c-4.9,1.6-8.2,6.2-8.2,11.3c0,4.5,2.6,8.7,6.6,10.7
			l11.1,5.5c9.4,4.7,19.8,7.2,30.3,7.2c10.5,0,22.6,27.3,32,32h66.8c8.5,0,16.6,3.4,22.6,9.4l13.7,13.7c5.7,5.7,8.9,13.5,8.9,21.6
			C358.2,511.6,353.2,523.5,344.4,532.2z"/>
	</g>
</g>
<g id="Layer_3">
	<rect x="389.4" y="178.2" class="st3" width="120.7" height="192"/>
</g>
<g id="Layer_4">
	<rect x="396" y="303.3" class="st4" width="290.5" height="72.8"/>
</g>
<g id="Layer_2">
	<g>
		<circle class="st1" cx="533.5" cy="202.2" r="24"/>
		<path class="st1" d="M533.4,82.2c-79.6,0-144,64.5-144,144c0,79.6,64.5,144,144,144c79.7,0,144-64.5,144-144
			C677.4,146.5,613,82.2,533.4,82.2z M540.5,318.9c-0.4,0.4-0.7,0.8-1.2,1.2c-3.9,3.3-9.7,2.8-13-1.2
			c-18.5-21.8-66.7-81.9-66.7-114.9c0-40.8,33.1-73.8,73.8-73.8v0c40.8,0,73.8,33.1,73.8,73.8C607.3,237,559,297.1,540.5,318.9z"/>
		<path class="st5" d="M533.5,130.2L533.5,130.2c-40.8,0-73.8,33.1-73.8,73.8c0,33,48.3,93,66.7,114.9c3.3,3.9,9.1,4.4,13,1.2
			c0.4-0.4,0.8-0.7,1.2-1.2C559,297.1,607.3,237,607.3,204C607.3,163.2,574.2,130.2,533.5,130.2z M533.5,226.2
			c-13.3,0-24-10.8-24-24c0-13.3,10.7-24,24-24s24,10.7,24,24C557.5,215.4,546.7,226.2,533.5,226.2z"/>
		<path class="st0" d="M830.5,460.8L830.5,460.8l-99.7-99.7c-4.5-4.5-10.6-7-17-7h-16.3c27.6-35.3,44-79.7,44-128
			c0-114.9-93.1-208-208-208s-208,93.1-208,208s93.1,208,208,208c48.3,0,92.7-16.4,128-44v16.3c0,6.4,2.5,12.5,7,17l99.7,99.7
			c9.4,9.4,24.6,9.4,33.9,0l28.3-28.3C839.8,485.4,839.8,470.2,830.5,460.8z M533.4,370.1c-79.5,0-144-64.3-144-144
			c0-79.5,64.4-144,144-144c79.5,0,144,64.3,144,144C677.4,305.7,613.1,370.1,533.4,370.1z"/>
	</g>
</g>
</svg>
