<?xml version="1.0" encoding="utf-8"?>
<!-- Generator: Adobe Illustrator 24.0.1, SVG Export Plug-In . SVG Version: 6.00 Build 0)  -->
<svg version="1.1" id="Layer_2" xmlns="http://www.w3.org/2000/svg" xmlns:xlink="http://www.w3.org/1999/xlink" x="0px" y="0px"
	 viewBox="0 0 338 205" style="enable-background:new 0 0 338 205;" xml:space="preserve">
<style type="text/css">
	.st0{fill:#922F22;}
	.st1{fill:#9D9FA1;stroke:#7B7C7F;stroke-width:2;stroke-linecap:round;stroke-linejoin:round;stroke-miterlimit:10;}
	.st2{fill:#C9CACC;stroke:#7B7C7F;stroke-width:2;stroke-linecap:round;stroke-linejoin:round;stroke-miterlimit:10;}
	.st3{fill:#E0E1E2;stroke:#7B7C7F;stroke-width:2;stroke-linecap:round;stroke-linejoin:round;stroke-miterlimit:10;}
	.st4{fill:#1C8DE0;}
</style>
<path class="st0" d="M73.69,170.24c0.05-0.94,0.64-1.76,1.47-2.05c0.16-0.08,0.31-0.19,0.44-0.33c1.17-1.13,2.43-2.16,2.82-4.1
	c0.14-0.67,0.06-1.39,0.23-2.01c0.33-1.3,0.33-2.89,1.83-3.25c0.22-0.04,0.37-0.25,0.36-0.48c0-2.11,0.17-4.27-1.43-5.95
	c-0.16-0.18-0.28-0.65-0.55-0.42c-0.27,0.24-0.38,0.62-0.28,0.98c0.03,0.13,0.08,0.26,0.14,0.37c0.35,0.83,0.58,1.71,0.67,2.61
	c0.09,0.54-0.25,0.62-0.48,0.78s-0.49,0.58-0.91,0.22c-0.93-0.68-1.46-1.83-1.39-3.04c0-0.51,0-1.03,0-1.72
	c-0.32,0.32-0.65,0.62-1,0.9c-0.52,0.34-0.75,1.03-0.54,1.64c0.1,0.49,0.29,0.96,0.55,1.38c0.86,1.53,1.83,2.95,1.83,4.97
	c0.15,2.61-1.32,5-3.6,5.9c-1.15,0.53-2.36,0.25-3.55,0.26c-0.77-0.01-1.46-0.54-1.71-1.33c-0.8-1.81-1.36-3.73-1.64-5.71
	c-0.09-0.41,0.01-0.84,0.26-1.16c0.47-0.68,0.75-1.49,0.82-2.33c0.03-1.03-0.57-1.95-1.48-2.28c-0.99-0.38-2.09,0.17-2.46,1.23
	c-0.08,0.18-0.19,0.34-0.33,0.48c-0.33,0.34-0.28,0.74-0.19,1.22c0.27,1.4,1.12,2.43,1.67,3.64s1.26,2.54,0.91,4.08
	c-0.12,0.52-1.76,1.5-2.18,1.24c-0.07-0.07-0.14-0.14-0.2-0.22c-0.71-0.62-1.13-1.55-1.13-2.53c0-0.98-0.51-1.97-0.15-2.82
	c0.6-1.27,0.36-2.8-0.59-3.79c-0.06-0.08-0.12-0.17-0.16-0.27c-0.19-0.44-0.42-0.4-0.78-0.29c-1.28,0.41-1.9,1.61-2.53,2.82
	c-0.39,0.74-0.17,1.68,0.48,2.15l1.07,0.75c0.22,0.12,0.39,0.32,0.47,0.57c0.25,0.98,0.61,1.97,0.78,2.95
	c0.05,0.31,0,0.52-0.25,0.61c-2.18,0.75-4.26,1.85-6.54,2.33c-0.85,0.29-1.78,0.09-2.46-0.53c-0.91-0.88-1.98-1.64-1.44-3.32
	c0.02-0.1,0.02-0.21,0-0.31c-0.57-2.25-0.78-4.79-3.26-5.51c-0.04-0.02-0.08-0.05-0.12-0.08c-0.36-0.28-0.47-0.1-0.48,0.32
	c-0.01,0.96,0.35,1.88,0.99,2.55c0.49,0.5,0.88,1.11,1.13,1.79c0.28,0.8,0.11,1.25-0.59,1.36c-0.66-0.13-1.24-0.54-1.61-1.15
	c-0.4-1.16-0.68-2.37-1.16-3.48c-0.6,1.23-0.6,2.7,0,3.93c0.45,1.04,0.86,2.31,1.99,2.62c0.8,0.18,1.47,0.79,1.76,1.61
	c0.11,0.22,0.23,0.43,0.37,0.62c0.58,1,1.58,1.63,2.67,1.68c1.6,0.06,3.21-0.12,4.76-0.54c0.26-0.08,0.55-0.02,0.77,0.15
	c0.7,0.49,1.06,1.39,0.91,2.27l1.82,4.89l4.18,5.44l3.14,3.68c2.61,0.52,4.21-3.92,6.8-3.3c1.26,0.35-2.6-2.83-0.37-5.45
	C74.69,176.94,73.29,170.59,73.69,170.24z M60.77,159.63c-0.28,0.1-0.58-0.06-0.67-0.36c-0.01-0.03-0.02-0.07-0.02-0.1
	c-0.12-0.42,0-0.74,0.38-0.83s0.55,0.15,0.68,0.46C61.26,159.12,61.1,159.54,60.77,159.63z M65.91,157.25
	c-0.3,0.07-0.59-0.12-0.66-0.44c0-0.02-0.01-0.04-0.01-0.06c-0.1-0.44,0-0.73,0.4-0.82c0.4-0.09,0.55,0.14,0.68,0.49
	S66.25,157.17,65.91,157.25z M63.82,172.5c-0.19,0.98-0.59,0.53-0.91,0.17c-0.57-0.63-0.4-1.47-0.61-2.41l0.84,0.69
	c0.05-0.34,0.09-0.61,0.13-0.86c0.07,0,0.12,0,0.15,0c0.31,0.23,0.48,0.84,0.82,0.8s0.22-0.73,0.53-0.98l0.51,0.87l0.35-0.88
	l0.52,0.87c0.37-0.23,0.3-0.79,0.6-1.08l0.65,0.81c0.31-0.42,0.5-1.6,1.11-0.18c0.22-0.34,0.1-0.71,0.17-0.98
	c0.91,0.53,1.33,1.36,1.12,2.05c-0.21,0.7-0.91,0.92-2.14,0.39c-0.25,0.98-0.83,1.16-2.04,0.46
	C65.36,173.25,64.64,173.43,63.82,172.5z"/>
<polygon class="st1" points="288.82,198 200.36,198 244.59,140.53 "/>
<polygon class="st2" points="177.76,76.53 158.65,108.38 149.07,91.98 87.19,198 104.84,198 210.96,198 250.68,198 "/>
<polygon class="st3" points="148.51,198 60.05,198 104.28,129.49 "/>
<g id="Layer_3">
	<path class="st4" d="M117.6,41.66L117.6,41.66l-1.72,0.95l-0.25-1.03l2.17-1.18h1.14v10.08h-1.32v-8.82H117.6z"/>
	<path class="st4" d="M119.41,50.96h-2.31v-8.45l-1.58,0.87L115,41.31l2.63-1.42h1.78V50.96z M118.11,49.93h0.27v-9.02h-0.47
		l-0.44,0.24h0.63v0.52v8.25V49.93z M116.17,41.84L116.17,41.84l1.02-0.56L116.17,41.84z"/>
	<path class="st4" d="M126.27,41.66L126.27,41.66l-1.72,0.95l-0.25-1.03l2.17-1.18h1.14v10.08h-1.29v-8.82H126.27z"/>
	<path class="st4" d="M128.09,50.96h-2.31v-8.45l-1.58,0.87l-0.52-2.06l2.63-1.42h1.78V50.96z M126.79,49.93h0.29v-9.02h-0.51
		l-0.44,0.24h0.63v0.52v8.25L126.79,49.93z M124.86,41.84L124.86,41.84l1.02-0.56L124.86,41.84z"/>
	<path class="st4" d="M131.59,52.35c0.41-1.2,0.72-2.44,0.92-3.69l1.5-0.15c-0.35,1.3-0.83,2.57-1.45,3.76L131.59,52.35z"/>
	<path class="st4" d="M130.83,52.94l0.29-0.77c0.4-1.17,0.69-2.37,0.89-3.59l0.06-0.39l2.63-0.27l-0.19,0.72
		c-0.36,1.35-0.87,2.66-1.51,3.91l-0.13,0.23L130.83,52.94z M132.94,49.12c-0.12,0.69-0.32,1.52-0.51,2.24
		c0.33-0.74,0.62-1.5,0.87-2.28L132.94,49.12z"/>
	<path class="st4" d="M136.04,50.49v-0.84l1.02-1.03c2.54-2.44,3.68-3.74,3.7-5.26c0.1-0.99-0.6-1.87-1.58-1.97
		c-0.13-0.01-0.27-0.01-0.4,0c-0.78,0.03-1.52,0.33-2.11,0.86l-0.43-1.04c0.79-0.67,1.78-1.04,2.81-1.03
		c1.53-0.15,2.9,0.99,3.04,2.54c0.01,0.12,0.02,0.25,0.01,0.38c0,1.86-1.32,3.35-3.42,5.39l-0.79,0.74l0,0h4.46v1.26H136.04z"/>
	<path class="st4" d="M142.88,50.96h-7.36v-1.57l1.21-1.19c2.48-2.4,3.53-3.61,3.54-4.9c0.09-0.71-0.4-1.35-1.09-1.45
		c-0.12-0.02-0.24-0.01-0.36,0c-0.66,0.03-1.29,0.29-1.78,0.73l-0.52,0.43l-0.87-1.93l0.3-0.25c0.88-0.74,1.99-1.15,3.14-1.14
		c1.81-0.15,3.4,1.22,3.54,3.05c0.01,0.13,0.01,0.26,0.01,0.38c0,2.06-1.49,3.72-3.46,5.65h3.71V50.96z M136.55,49.93h5.33v-0.09
		h-4.46v-0.74l0.16-0.19l0.79-0.74c2.21-2.15,3.26-3.45,3.26-5.02c0.06-1.27-0.9-2.35-2.15-2.41c-0.13-0.01-0.26,0-0.39,0.01
		c-0.78,0-1.54,0.23-2.18,0.67l0,0c0.57-0.37,1.23-0.57,1.9-0.58c1.24-0.15,2.36,0.75,2.51,2c0.02,0.16,0.02,0.33,0,0.49
		c0,1.74-1.24,3.09-3.86,5.63l-0.9,0.88v0.09L136.55,49.93z"/>
	<path class="st4" d="M150.64,41.54h-3.79l-0.39,2.58c0.27-0.04,0.54-0.06,0.8-0.06c0.75-0.01,1.48,0.17,2.14,0.54
		c0.91,0.53,1.46,1.52,1.43,2.58c-0.02,1.92-1.58,3.47-3.48,3.44c-0.07,0-0.14,0-0.21-0.01c-0.86,0.02-1.72-0.19-2.47-0.62
		l0.34-1.03c0.65,0.36,1.38,0.55,2.12,0.56c1.21,0.1,2.26-0.81,2.36-2.03c0-0.05,0.01-0.09,0.01-0.14c0-1.3-0.87-2.23-2.86-2.23
		c-0.46,0.01-0.92,0.04-1.37,0.1l0.64-4.82h4.75v1.15L150.64,41.54z"/>
	<path class="st4" d="M147.14,51.13c-0.96,0.04-1.91-0.18-2.75-0.65l-0.33-0.22l0.66-2.06l0.55,0.33c0.57,0.31,1.21,0.48,1.86,0.48
		c0.93,0.09,1.75-0.61,1.84-1.55c0-0.03,0-0.05,0.01-0.08c0-1.13-0.8-1.71-2.35-1.71c-0.41,0-0.82,0.04-1.23,0.09l-0.65,0.08v-0.65
		l0.7-5.27h5.7v2.18h-3.86l-0.22,1.49h0.21c0.84-0.02,1.67,0.2,2.4,0.62c1.07,0.62,1.71,1.78,1.67,3.02
		c-0.09,2.24-1.95,3.98-4.16,3.89C147.18,51.14,147.16,51.14,147.14,51.13z M145.28,49.74c0.59,0.24,1.22,0.36,1.85,0.36
		c1.62,0.14,3.04-1.08,3.18-2.72c0.01-0.07,0.01-0.13,0.01-0.2c0.03-0.87-0.42-1.69-1.16-2.13c-0.57-0.33-1.23-0.49-1.88-0.47h-0.47
		c1.98,0.06,3.16,1.03,3.18,2.73c-0.02,1.51-1.25,2.73-2.74,2.71c-0.04,0-0.08,0-0.12,0c-0.62,0-1.24-0.12-1.82-0.35L145.28,49.74z
		 M146.3,40.91l-0.5,3.72h0.07l0.06-0.58l0.45-3.02h3.72v-0.11L146.3,40.91z"/>
	<path class="st4" d="M159.99,45.33c0,3.41-1.25,5.31-3.45,5.31c-1.93,0-3.25-1.85-3.28-5.15c-0.03-3.31,1.44-5.23,3.45-5.23
		S159.99,42.11,159.99,45.33z M154.59,45.49c0,2.61,0.79,4.12,2.04,4.12c1.37,0,2.04-1.62,2.04-4.19s-0.63-4.12-2.04-4.12
		c-1.18-0.02-2.06,1.43-2.06,4.16L154.59,45.49z"/>
	<path class="st4" d="M156.53,51.13c-2.31,0-3.76-2.18-3.79-5.68c-0.03-3.51,1.56-5.74,3.96-5.74s3.79,2.06,3.79,5.6
		C160.5,49.01,159.05,51.13,156.53,51.13z M156.7,40.74c-1.81,0-2.94,1.8-2.94,4.71s1.02,4.65,2.77,4.65c2.56,0,2.94-3,2.94-4.79
		C159.48,43.94,159.2,40.74,156.7,40.74z M156.61,50.08c-1.58,0-2.53-1.72-2.53-4.61c0-3.47,1.31-4.7,2.55-4.7
		c0.95,0,2.53,0.6,2.53,4.61S157.56,50.08,156.61,50.08z M156.61,41.84c-0.91,0-1.53,1.47-1.53,3.67c0,2.2,0.59,3.58,1.51,3.58
		c1.37,0,1.53-2.57,1.53-3.67s-0.13-3.62-1.51-3.62V41.84z"/>
	<path class="st4" d="M166.71,50.49V44h-1.02v-1.03h1.02v-0.35c-0.07-0.95,0.23-1.9,0.86-2.62c0.49-0.46,1.14-0.7,1.8-0.69
		c0.39,0,0.78,0.07,1.14,0.22l-0.18,1.03c-0.27-0.12-0.56-0.18-0.86-0.18c-1.14,0-1.44,1.03-1.44,2.16v0.4h1.81v1.03h-1.79v6.51
		H166.71z"/>
	<path class="st4" d="M168.54,50.96h-2.34v-6.44h-1.02v-2.06h1.02c-0.05-1.04,0.32-2.06,1.02-2.82c0.58-0.55,1.36-0.85,2.16-0.84
		c0.46,0,0.92,0.09,1.34,0.26l0.38,0.15l-0.37,2.12l-0.6-0.28c-0.2-0.09-0.42-0.13-0.64-0.12c-0.3,0-0.9,0-0.93,1.54h1.78v2.06
		h-1.79L168.54,50.96z M167.22,49.93h0.31v-6.44l0,0v-0.92c0-2.33,1.22-2.68,1.94-2.68c0.15-0.01,0.3-0.01,0.45,0l0,0
		c-0.19-0.04-0.38-0.06-0.57-0.06c-0.53-0.01-1.05,0.18-1.45,0.55c-0.53,0.62-0.78,1.43-0.7,2.25v0.87l0,0v6.45L167.22,49.93z"/>
	<path class="st4" d="M173.65,40.82v2.14h1.92v1.03h-1.92v4.04c0,0.93,0.25,1.45,1.02,1.45c0.26,0.01,0.53-0.02,0.78-0.09l0.06,1.03
		c-0.38,0.13-0.79,0.2-1.19,0.19c-0.54,0.03-1.08-0.17-1.46-0.57c-0.41-0.56-0.6-1.26-0.52-1.95v-4.12h-1.14v-1.03h1.14v-1.73
		L173.65,40.82z"/>
	<path class="st4" d="M174.31,51.11c-0.69,0.04-1.36-0.24-1.83-0.75c-0.5-0.65-0.73-1.47-0.64-2.29v-3.57h-1.14v-2.06h1.18v-1.67
		l2.33-0.63v2.31h1.92v2.06h-1.92v3.53c0,0.94,0.26,0.94,0.5,0.94c0.22,0,0.43-0.02,0.64-0.07l0.6-0.16l0.12,2.06l-0.34,0.14
		C175.28,51.09,174.79,51.15,174.31,51.11z M171.71,43.49h1.19v4.6c-0.07,0.56,0.07,1.12,0.38,1.59c0.29,0.29,0.68,0.44,1.09,0.41
		c0.22,0,0.44-0.02,0.66-0.05l0,0c-0.69,0.05-1.82-0.07-1.82-1.96v-4.6l0,0v-1.99l-0.3,0.08v1.92H171.71z"/>
	<path class="st4" d="M177.56,49.64c-0.03-0.51,0.34-0.94,0.84-0.98c0.02,0,0.05,0,0.07,0c0.53-0.03,0.99,0.39,1.02,0.93
		c0.03,0.54-0.38,1-0.92,1.03c-0.53,0.03-0.99-0.39-1.02-0.93C177.56,49.67,177.56,49.66,177.56,49.64z"/>
	<path class="st4" d="M178.47,51.13c-0.78,0-1.41-0.64-1.41-1.42c0-0.02,0-0.04,0-0.06c-0.03-0.8,0.59-1.47,1.37-1.49
		c0.02,0,0.03,0,0.05,0c0.81,0.07,1.42,0.79,1.35,1.61c-0.06,0.73-0.63,1.31-1.35,1.37H178.47z M178.47,49.19
		c-0.25,0-0.41,0.18-0.41,0.46c0,0.29,0.1,0.45,0.39,0.45c0.22,0.01,0.4-0.17,0.41-0.39c0-0.02,0-0.04,0-0.07
		c0.04-0.21-0.1-0.42-0.31-0.46c-0.02,0-0.05-0.01-0.07-0.01H178.47z"/>
</g>
<g id="Layer_3-2">
	<path class="st4" d="M251.89,119.3c0.39-1.12,0.68-2.26,0.86-3.43l1.41-0.14c-0.33,1.21-0.78,2.38-1.36,3.5L251.89,119.3z"/>
	<path class="st4" d="M251.18,119.83l0.27-0.72c0.37-1.08,0.65-2.2,0.83-3.33l0.06-0.36l2.47-0.25l-0.18,0.67
		c-0.34,1.25-0.82,2.46-1.42,3.61l-0.12,0.21L251.18,119.83z M253.16,116.29c-0.11,0.64-0.3,1.41-0.48,2.08
		c0.31-0.69,0.58-1.4,0.81-2.12L253.16,116.29z"/>
	<path class="st4" d="M269.81,109.24h-3.56l-0.36,2.39c0.25-0.04,0.5-0.06,0.76-0.06c0.7-0.01,1.4,0.16,2.01,0.5
		c0.85,0.49,1.37,1.41,1.34,2.39c-0.02,1.79-1.49,3.22-3.28,3.2c-0.07,0-0.13,0-0.2-0.01c-0.81,0.02-1.62-0.18-2.33-0.57l0.32-0.96
		c0.61,0.34,1.3,0.51,1.99,0.52c1.13,0.08,2.12-0.77,2.21-1.9c0-0.04,0-0.08,0.01-0.12c0-1.21-0.81-2.07-2.69-2.07
		c-0.43,0.01-0.86,0.04-1.29,0.1l0.6-4.48h4.46v1.07H269.81z"/>
	<path class="st4" d="M266.51,118.16c-0.91,0.02-1.8-0.2-2.59-0.65l-0.31-0.2l0.62-1.92l0.52,0.31c0.54,0.29,1.14,0.44,1.75,0.45
		c0.87,0.1,1.66-0.53,1.75-1.41c0-0.03,0.01-0.07,0.01-0.1c0-1.05-0.76-1.59-2.21-1.59c-0.39,0-0.77,0.03-1.16,0.09l-0.61,0.08
		v-0.62l0.66-4.89h5.36v2.02h-3.63l-0.21,1.39h0.2c0.79-0.01,1.57,0.18,2.26,0.57c1,0.58,1.6,1.67,1.55,2.83
		c-0.06,2.08-1.79,3.71-3.87,3.65C266.58,118.16,266.54,118.16,266.51,118.16z M264.77,116.86c0.55,0.22,1.15,0.34,1.74,0.34
		c1.52,0.13,2.86-1,2.99-2.53c0-0.05,0.01-0.11,0.01-0.16c0.03-0.81-0.39-1.57-1.09-1.98c-0.54-0.3-1.15-0.45-1.77-0.44h-0.44
		c1.86,0.06,2.97,0.96,2.99,2.54c-0.02,1.41-1.17,2.53-2.58,2.51c-0.04,0-0.07,0-0.11,0c-0.59,0-1.17-0.11-1.71-0.33L264.77,116.86z
		 M265.73,108.66l-0.47,3.46h0.14l0.06-0.54l0.37-2.82h3.5v-0.11H265.73z"/>
	<path class="st4" d="M278.6,112.75c0,3.17-1.18,4.93-3.25,4.93c-1.82,0-3.06-1.71-3.08-4.79c-0.03-3.07,1.35-4.86,3.25-4.86
		C277.41,108.03,278.6,109.78,278.6,112.75z M273.52,112.89c0,2.42,0.75,3.83,1.92,3.83c1.29,0,1.92-1.5,1.92-3.89
		c0-2.38-0.59-3.83-1.92-3.83C274.33,109,273.52,110.35,273.52,112.89z"/>
	<path class="st4" d="M275.35,118.16c-2.17,0-3.53-2.02-3.56-5.28c-0.03-3.26,1.47-5.33,3.73-5.33c2.26,0,3.56,1.92,3.56,5.2
		C279.08,116.18,277.72,118.16,275.35,118.16z M275.5,108.5c-1.7,0-2.77,1.68-2.77,4.38s0.96,4.32,2.61,4.32
		c2.4,0,2.77-2.79,2.77-4.45C278.12,111.47,277.85,108.5,275.5,108.5z M275.42,117.18c-1.48,0-2.38-1.6-2.38-4.28
		c0-3.23,1.24-4.37,2.39-4.37c0.89,0,2.38,0.56,2.38,4.28S276.32,117.18,275.42,117.18z M275.42,109.52c-0.85,0-1.44,1.37-1.44,3.41
		c0,2.04,0.56,3.32,1.42,3.32c1.29,0,1.44-2.38,1.44-3.41s-0.12-3.36-1.4-3.36L275.42,109.52z"/>
	<path class="st4" d="M284.92,117.52v-5.99h-0.96v-0.96h0.96v-0.33c-0.07-0.89,0.22-1.76,0.8-2.43c0.46-0.42,1.07-0.65,1.7-0.64
		c0.37,0,0.73,0.06,1.07,0.2l-0.17,0.96c-0.25-0.11-0.53-0.17-0.8-0.16c-1.07,0-1.35,0.96-1.35,2.01v0.37h1.69v0.96h-1.69v5.99
		L284.92,117.52z"/>
	<path class="st4" d="M286.64,117.99h-2.2v-5.99h-0.96v-1.92h0.96c-0.05-0.97,0.3-1.91,0.96-2.62c0.55-0.51,1.28-0.79,2.03-0.78
		c0.43,0,0.86,0.08,1.26,0.24l0.35,0.14l-0.34,1.97l-0.57-0.26c-0.19-0.08-0.4-0.12-0.6-0.11c-0.28,0-0.84,0-0.87,1.43h1.68v1.92
		h-1.69L286.64,117.99z M285.4,117.04h0.29v-5.99l0,0v-0.85c0-2.16,1.15-2.49,1.83-2.49c0.14-0.01,0.28-0.01,0.42,0l0,0
		c-0.18-0.04-0.36-0.06-0.54-0.06c-0.5-0.01-0.99,0.17-1.36,0.51c-0.49,0.58-0.73,1.33-0.66,2.09v0.8l0,0v6L285.4,117.04z"/>
	<path class="st4" d="M291.45,108.57v1.99h1.81v0.96h-1.81v3.75c0,0.86,0.24,1.35,0.96,1.35c0.25,0.01,0.5-0.02,0.74-0.09l0.06,0.96
		c-0.36,0.12-0.74,0.18-1.12,0.17c-0.51,0.03-1.01-0.16-1.37-0.53c-0.39-0.52-0.56-1.17-0.49-1.81v-3.83h-1.07v-0.96h1.07v-1.64
		L291.45,108.57z"/>
	<path class="st4" d="M292.07,118.14c-0.65,0.04-1.28-0.22-1.72-0.7c-0.47-0.6-0.69-1.37-0.6-2.13V112h-1.07v-1.92h1.07v-1.55
		l2.19-0.58v2.15h1.81v1.92h-1.81v3.28c0,0.87,0.25,0.87,0.47,0.87c0.2,0,0.41-0.02,0.6-0.07l0.57-0.15l0.11,1.92l-0.32,0.13
		C292.95,118.11,292.51,118.16,292.07,118.14z M289.62,111.05h1.07v4.27c-0.06,0.52,0.06,1.04,0.35,1.47
		c0.27,0.27,0.64,0.41,1.02,0.38c0.21,0.02,0.42,0.02,0.62,0l0,0c-0.65,0-1.71-0.07-1.71-1.82v-4.32l0,0v-1.85l-0.28,0.08v1.78
		H289.62z"/>
	<path class="st4" d="M295.09,116.77c-0.06-0.47,0.27-0.89,0.74-0.95c0.04-0.01,0.08-0.01,0.12-0.01c0.5-0.03,0.93,0.36,0.96,0.86
		c0.03,0.5-0.36,0.93-0.86,0.96C295.54,117.65,295.12,117.27,295.09,116.77z"/>
	<path class="st4" d="M295.98,118.16c-0.73,0-1.32-0.59-1.32-1.32c0-0.02,0-0.04,0-0.06c-0.03-0.74,0.55-1.36,1.29-1.39
		c0.02,0,0.03,0,0.05,0c0.76,0.06,1.33,0.73,1.27,1.5c-0.06,0.68-0.59,1.21-1.27,1.27H295.98z M295.98,116.35
		c-0.24,0-0.38,0.16-0.38,0.43s0.1,0.42,0.36,0.42c0.21,0.01,0.38-0.15,0.39-0.36c0-0.02,0-0.04,0-0.06
		c0.04-0.2-0.09-0.39-0.29-0.42C296.03,116.35,296.01,116.35,295.98,116.35L295.98,116.35z"/>
	<path class="st4" d="M250.65,109.24h-3.56l-0.36,2.39c0.25-0.04,0.5-0.06,0.76-0.06c0.7-0.01,1.4,0.16,2.01,0.5
		c0.85,0.49,1.37,1.41,1.34,2.39c-0.02,1.79-1.49,3.22-3.28,3.2c-0.07,0-0.13,0-0.2-0.01c-0.81,0.02-1.62-0.18-2.33-0.57l0.32-0.96
		c0.61,0.34,1.3,0.51,1.99,0.52c1.13,0.08,2.12-0.77,2.21-1.9c0-0.04,0-0.08,0.01-0.12c0-1.21-0.81-2.07-2.69-2.07
		c-0.43,0.01-0.86,0.04-1.29,0.1l0.6-4.48h4.46v1.07H250.65z"/>
	<path class="st4" d="M247.36,118.16c-0.91,0.02-1.8-0.2-2.59-0.65l-0.31-0.2l0.62-1.92l0.52,0.31c0.54,0.29,1.14,0.44,1.75,0.45
		c0.87,0.1,1.66-0.53,1.75-1.41c0-0.03,0.01-0.07,0.01-0.1c0-1.05-0.76-1.59-2.21-1.59c-0.39,0-0.77,0.03-1.16,0.09l-0.61,0.08
		v-0.62l0.66-4.89h5.36v2.02h-3.65l-0.21,1.39h0.2c0.79-0.01,1.57,0.18,2.26,0.57c1.01,0.58,1.61,1.66,1.57,2.83
		c-0.06,2.08-1.79,3.71-3.87,3.65C247.42,118.16,247.39,118.16,247.36,118.16z M245.61,116.86c0.55,0.22,1.15,0.34,1.74,0.34
		c1.52,0.13,2.86-1,2.99-2.53c0-0.05,0.01-0.11,0.01-0.16c0.03-0.81-0.39-1.57-1.09-1.98c-0.54-0.3-1.15-0.45-1.77-0.44h-0.44
		c1.86,0.06,2.97,0.96,2.99,2.54c-0.02,1.41-1.17,2.53-2.58,2.51c-0.04,0-0.07,0-0.11,0c-0.59,0-1.17-0.11-1.71-0.33L245.61,116.86z
		 M246.57,108.66l-0.47,3.46h0.14l0.06-0.54l0.37-2.82h3.5v-0.11H246.57z"/>
	<path class="st4" d="M262.14,109.24h-3.56l-0.36,2.39c0.25-0.04,0.5-0.06,0.76-0.06c0.7-0.01,1.4,0.16,2.01,0.5
		c0.85,0.49,1.37,1.41,1.34,2.39c-0.02,1.79-1.49,3.22-3.28,3.2c-0.07,0-0.13,0-0.2-0.01c-0.81,0.02-1.62-0.18-2.33-0.57l0.32-0.96
		c0.61,0.34,1.3,0.51,1.99,0.52c1.13,0.08,2.12-0.77,2.21-1.9c0-0.04,0-0.08,0.01-0.12c0-1.21-0.81-2.07-2.69-2.07
		c-0.43,0.01-0.86,0.04-1.29,0.1l0.6-4.48h4.46v1.07H262.14z"/>
	<path class="st4" d="M258.85,118.16c-0.91,0.02-1.8-0.2-2.59-0.65l-0.31-0.2l0.62-1.92l0.52,0.31c0.54,0.29,1.14,0.44,1.75,0.45
		c0.87,0.1,1.66-0.53,1.75-1.41c0-0.03,0.01-0.07,0.01-0.1c0-1.05-0.76-1.59-2.21-1.59c-0.39,0-0.77,0.03-1.16,0.09l-0.61,0.08
		v-0.62l0.66-4.89h5.36v2.02H259l-0.21,1.39h0.2c0.79-0.01,1.57,0.18,2.26,0.57c1.01,0.58,1.61,1.66,1.57,2.83
		c-0.06,2.08-1.79,3.71-3.87,3.65C258.92,118.16,258.88,118.16,258.85,118.16z M257.11,116.86c0.55,0.22,1.15,0.34,1.74,0.34
		c1.52,0.13,2.86-1,2.99-2.53c0-0.05,0.01-0.11,0.01-0.16c0.03-0.81-0.39-1.57-1.09-1.98c-0.54-0.3-1.15-0.45-1.77-0.44h-0.44
		c1.86,0.06,2.97,0.96,2.99,2.54c-0.02,1.41-1.17,2.53-2.58,2.51c-0.04,0-0.07,0-0.11,0c-0.59,0-1.17-0.11-1.71-0.33L257.11,116.86z
		 M258.06,108.66l-0.47,3.46h0.14l0.06-0.54l0.37-2.82h3.5v-0.11H258.06z"/>
</g>
<g id="Layer_3_1_">
	<line class="st2" x1="195.59" y1="171.52" x2="213.24" y2="198"/>
	<line class="st2" x1="151.45" y1="122.97" x2="136.82" y2="147.44"/>
</g>
<rect x="244.68" y="122.75" class="st4" width="1.5" height="12.93"/>
<rect x="177.27" y="56.88" class="st4" width="1.5" height="13.59"/>
</svg>
