<?xml version="1.0" encoding="utf-8"?>
<!-- Generator: Adobe Illustrator 24.0.1, SVG Export Plug-In . SVG Version: 6.00 Build 0)  -->
<svg version="1.1" id="Layer_1" xmlns="http://www.w3.org/2000/svg" xmlns:xlink="http://www.w3.org/1999/xlink" x="0px" y="0px"
	 viewBox="0 0 317.2 145.6" style="enable-background:new 0 0 317.2 145.6;" xml:space="preserve">
<style type="text/css">
	.st0{fill:none;}
	.st1{fill:#A22418;}
	.st2{fill:#CBD0D1;}
	.st3{fill:#FAF4F4;}
	.st4{fill:#FFFFFF;}
	.st5{fill:#A7A7A8;}
	.st6{fill:#C3C3C3;}
	.st7{fill:#468CDA;}
</style>
<g id="Layer_2">
	<g>
		<path class="st0" d="M46.2,117.6c-0.4,0.1-0.8,0.2-1.2,0.3C45.4,117.8,45.8,117.7,46.2,117.6c1.3-0.4,2.7-0.8,4-1.1
			C48.9,116.8,47.5,117.2,46.2,117.6z"/>
		<path class="st1" d="M45.1,117.9c0.3-1,1,1,1.8,1.7c1.3-0.4,2-0.8,3.3-1.1c1.3-0.4,3.3,1.2,4.7,0.9c0.4-0.1,0-4.5,0.4-4.5
			c0.7,0,1.3-0.2,2-0.4c0.4-0.1,0.8-0.3,1.1-0.4c-0.2-1.6,0.1-2.9,1.6-3.5c0.2-0.1,0.3-0.2,0.5-0.3c1.3-1.2,2.7-2.2,3.1-4.2
			c0.1-0.7,0.1-1.4,0.3-2.1c0.4-1.3,0.4-2.9,2-3.3c0.2,0,0.4-0.2,0.4-0.5c0-2.1,0.2-4.3-1.6-6.1c-0.2-0.2-0.3-0.7-0.6-0.4
			c-0.3,0.2-0.4,0.6-0.3,1c0,0.1,0.1,0.3,0.2,0.4c0.5,0.8,0.6,1.7,0.7,2.7c0.1,0.6-0.3,0.6-0.5,0.8c-0.3,0.2-0.5,0.6-1,0.2
			c-1-0.8-1.6-1.7-1.5-3.1c0-0.5,0-1.1,0-1.8c-0.4,0.4-0.7,0.7-1.1,0.9c-0.6,0.4-0.7,0.9-0.6,1.7c0.1,0.5,0.3,1,0.6,1.4
			c0.9,1.6,2,3,2,5.1c0,3.1-1.4,4.9-3.9,6c-1.3,0.5-2.6,0.3-3.9,0.3c-0.9,0-1.5-0.5-1.9-1.4c-0.9-1.9-1.4-3.8-1.7-5.8
			c-0.1-0.5,0-0.9,0.3-1.2c0.6-0.7,0.8-1.5,0.9-2.4c0.2-0.9-0.8-2.1-1.6-2.3c-1.2-0.3-2.1,0-2.7,1.2c-0.1,0.2-0.2,0.4-0.4,0.5
			c-0.4,0.3-0.3,0.7-0.2,1.2c0.3,1.4,1.2,2.5,1.8,3.7c0.6,1.3,1.4,2.6,1,4.1c-0.1,0.5-1.9,1.5-2.4,1.3c-0.1-0.1-0.1-0.1-0.2-0.2
			c-0.8-0.7-1.2-1.5-1.2-2.6c0-1-0.6-2-0.2-2.9c0.7-1.5,0.4-2.7-0.6-3.9c-0.1-0.1-0.1-0.2-0.2-0.3c-0.2-0.4-0.5-0.4-0.8-0.3
			c-1.4,0.4-2.1,1.6-2.8,2.9c-0.4,0.7-0.2,1.7,0.5,2.2c0.4,0.3,0.8,0.5,1.2,0.8c0.2,0.1,0.4,0.3,0.5,0.6c0.3,1,0.7,2,0.9,3
			c0.1,0.3,0,0.5-0.3,0.6c-2.4,0.8-4.7,1.9-7.2,2.4c-1,0.2-1.8,0.2-2.7-0.5c-1-0.9-2.2-1.7-1.6-3.4c0-0.1,0-0.2,0-0.3
			c-0.6-2.3-0.8-4.9-3.6-5.6c0,0-0.1,0-0.1-0.1c-0.4-0.3-0.5-0.1-0.5,0.3c0,1.1,0.4,1.9,1.1,2.6c0.5,0.6,1,1.1,1.2,1.8
			c0.3,0.8,0.1,1.3-0.6,1.4c-0.4,0.1-1.6-0.7-1.8-1.2c-0.4-1.2-0.7-2.4-1.3-3.5c-0.7,1.3-0.6,2.7,0,4c0.5,1.1,0.9,2.3,2.2,2.7
			c0.9,0.2,1.5,0.7,1.9,1.6c0.1,0.2,0.2,0.4,0.4,0.6c0.7,1.1,1.9,1.7,2.9,1.7c1.7,0,3.5-0.1,5.2-0.5c0.3-0.1,0.6,0,0.8,0.2
			c0.9,0.5,1,1.4,1,2.3c-0.1,1.4,0.7,6.7,1.3,7.9C44.1,122.4,44.2,118.1,45.1,117.9C45.1,117.9,45.1,117.9,45.1,117.9z M49.6,98.1
			c0.4-0.1,0.6,0.1,0.7,0.5c0.1,0.4-0.1,0.8-0.5,0.8c-0.3,0.1-0.6-0.1-0.7-0.5C49,98.5,49.2,98.2,49.6,98.1z M43.9,100.5
			c0.4-0.1,0.6,0.1,0.7,0.5c0.1,0.4,0,0.7-0.4,0.8c-0.4,0.1-0.6-0.1-0.8-0.5C43.4,100.9,43.5,100.6,43.9,100.5z M45.9,112.7
			c0.4,0.3,0.6,0.5,0.9,0.7c0.1-0.3,0.1-0.6,0.1-0.9c0.1,0,0.1,0,0.2,0c0.3,0.2,0.5,0.8,0.9,0.8c0.4,0,0.2-0.7,0.6-1
			c0.2,0.3,0.3,0.5,0.6,0.9c0.1-0.3,0.2-0.6,0.4-0.9c0.2,0.3,0.4,0.6,0.6,0.9c0.4-0.2,0.3-0.8,0.7-1.1c0.2,0.3,0.4,0.5,0.7,0.8
			c0.3-0.4,0.5-1.6,1.2-0.2c0.2-0.3,0.1-0.7,0.2-1c1,0.5,1.5,1.4,1.2,2.1c-0.3,0.8-1,0.9-2.3,0.4c-0.3,1-0.9,1.2-2.2,0.5
			c-0.3,1.1-1.1,1.3-2,0.3c-0.2,1-0.6,0.5-1,0.2C46,114.5,46.1,113.6,45.9,112.7z"/>
		<path class="st2" d="M45.1,117.9C45.1,117.9,45.1,117.9,45.1,117.9c0.3,0,0.7-0.2,1.1-0.3C45.4,116.8,45.4,116.8,45.1,117.9z"/>
		<path class="st3" d="M47.6,114.9c0.9,0.9,1.7,0.8,2-0.3c1.3,0.7,2,0.6,2.2-0.5c1.4,0.5,2.1,0.4,2.3-0.4c0.2-0.7-0.3-1.5-1.2-2.1
			c-0.1,0.3,0.1,0.7-0.2,1c-0.7-1.5-0.9-0.2-1.2,0.2c-0.3-0.3-0.5-0.6-0.7-0.8c-0.3,0.3-0.3,0.9-0.7,1.1c-0.2-0.3-0.4-0.6-0.6-0.9
			c-0.1,0.3-0.3,0.6-0.4,0.9c-0.2-0.3-0.4-0.6-0.6-0.9c-0.3,0.3-0.2,1-0.6,1c-0.4,0-0.6-0.6-0.9-0.8c0,0-0.1,0-0.2,0
			c0,0.3-0.1,0.5-0.1,0.9c-0.3-0.2-0.5-0.4-0.9-0.7c0.2,0.9,0.1,1.8,0.7,2.4C46.9,115.5,47.4,116,47.6,114.9z"/>
		<path class="st3" d="M49.9,99.4c0.4-0.1,0.5-0.4,0.5-0.8c-0.1-0.4-0.4-0.6-0.7-0.5c-0.4,0.1-0.6,0.4-0.4,0.8
			C49.2,99.3,49.5,99.5,49.9,99.4z"/>
		<path class="st3" d="M44.2,101.8c0.4-0.1,0.5-0.4,0.4-0.8c-0.1-0.3-0.4-0.6-0.7-0.5c-0.4,0.1-0.5,0.4-0.4,0.8
			C43.6,101.8,43.9,101.9,44.2,101.8z"/>
	</g>
</g>
<g id="Layer_2_1_">
	<g>
		<path class="st4" d="M241.6,56.5c-2.8-3.1-3.5-3.2-6.7-0.3c-5.3,4.8-10.7,9.6-16,14.4h35.3C250,65.9,245.8,61.2,241.6,56.5z"/>
		<path class="st5" d="M50.5,116.6c-4.4-1-8.8-1.7-13.2-2.6c-1.8-0.4-3.2,0.2-4.4,1.6c-3.7,4.2-7.4,3.3-11.1,7.5
			c-2.9,3.3-6,6.5-8.8,9.9c-0.7,0.8-1,2.4-0.7,3.3c0.3,0.7,1.8,1.1,2.8,1.4c0.6,0.2,1.3,0,2,0c28.5,0,62.1,0,90.6,0
			c65.9,0,131.8,0,197.7,0c1,0,2,0.1,3-0.1c1.9-0.3,2.7-2,1.8-3.7c-0.4-0.6-0.9-1.2-1.4-1.8c-6.1-6.8-12.1-13.6-18.2-20.4H59.6
			C56.8,114.1,52.4,117,50.5,116.6z"/>
		<path class="st6" d="M195.9,88.9c-3.6,0.2-7.2,5.2-10.7,4.7c-3.8-0.5-6.5,0.8-9,3.4c-3.4,3.4-7,6.5-10.9,10.1
			c-3.8-5.7-7.3-6-10.8-11.4c-1.1-1.8-2.5-4.4-4.6-4.3c-5,0.4-10,0.8-14.9,0.9c-1.5,0.1-6.2-0.3-7.5-1c-9-4.6-15-9.4-23.9-14.2
			c-4-2.1-4.3-2.1-7.3,1.4c-11.5,12.9-23,17.8-34.4,30.8c-0.5,0.5-1.2,1.3-2.2,2.1h231.1c-12.2-13.7-24.3-27.4-36.5-41.1H219
			c-6.2,5.6-12.4,11.2-18.7,16.7C199.2,88.3,197.4,88.9,195.9,88.9z"/>
	</g>
	<g id="Layer_3">
		<g>
			<g>
				<path class="st7" d="M237.7,12.4L237.7,12.4l-1.7,0.9l-0.2-1l2.1-1.1h1.1V21h-1.3L237.7,12.4C237.7,12.4,237.7,12.4,237.7,12.4z
					"/>
				<path class="st7" d="M239.5,21.5h-2.3v-8.2l-1.6,0.8l-0.5-2l2.6-1.4h1.8V21.5z M238.2,20.5h0.3v-8.8H238l-0.4,0.2h0.6l0,0.5
					L238.2,20.5L238.2,20.5z M236.3,12.6L236.3,12.6l1-0.5L236.3,12.6z"/>
			</g>
			<g>
				<path class="st7" d="M246.2,12.4L246.2,12.4l-1.7,0.9l-0.2-1l2.1-1.1h1.1V21h-1.3L246.2,12.4C246.2,12.4,246.2,12.4,246.2,12.4z
					"/>
				<path class="st7" d="M248,21.5h-2.3v-8.2l-1.6,0.8l-0.5-2l2.6-1.4h1.8V21.5z M246.7,20.5h0.3v-8.8h-0.5l-0.4,0.2h0.6l0,0.5
					L246.7,20.5L246.7,20.5z M244.8,12.6L244.8,12.6l1-0.5L244.8,12.6z"/>
			</g>
			<g>
				<path class="st7" d="M251.4,22.8c0.3-0.9,0.7-2.5,0.9-3.6l1.5-0.1c-0.3,1.3-1,2.9-1.4,3.6L251.4,22.8z"/>
				<path class="st7" d="M250.7,23.4l0.3-0.8c0.3-0.9,0.7-2.4,0.9-3.5l0.1-0.4l2.6-0.3l-0.2,0.7c-0.4,1.3-1,3-1.5,3.8l-0.1,0.2
					L250.7,23.4z M252.8,19.7c-0.1,0.7-0.3,1.5-0.5,2.2c0.3-0.6,0.6-1.4,0.9-2.2L252.8,19.7z"/>
			</g>
			<g>
				<path class="st7" d="M255.8,21v-0.8l1-1c2.5-2.4,3.6-3.6,3.6-5.1c0-1-0.5-1.9-1.9-1.9c-0.9,0-1.6,0.4-2.1,0.8L256,12
					c0.7-0.6,1.6-1,2.8-1c2.1,0,3,1.4,3,2.8c0,1.8-1.3,3.2-3.4,5.2l-0.8,0.7v0h4.4v1.1L255.8,21L255.8,21L255.8,21z"/>
				<path class="st7" d="M262.5,21.5h-7.2v-1.5l1.2-1.1c2.4-2.3,3.5-3.5,3.5-4.8c0-0.9-0.5-1.4-1.4-1.4c-0.8,0-1.4,0.4-1.8,0.7
					l-0.5,0.4l-0.9-1.9l0.3-0.2c0.8-0.7,1.9-1.1,3.1-1.1c2.4,0,3.5,1.7,3.5,3.3c0,2-1.5,3.6-3.4,5.5h3.6V21.5z M256.3,20.5h5.2v-0.1
					h-4.4v-0.7l0.2-0.2l0.8-0.7c2.2-2.1,3.2-3.4,3.2-4.9c0-1.1-0.6-2.3-2.5-2.3c-0.8,0-1.5,0.2-2.1,0.6v0c0.5-0.3,1.1-0.6,1.9-0.6
					c1.5,0,2.4,0.9,2.4,2.4c0,1.7-1.2,3-3.8,5.5L256.3,20.5L256.3,20.5C256.3,20.5,256.3,20.5,256.3,20.5z"/>
			</g>
			<g>
				<path class="st7" d="M270.1,12.3h-3.7l-0.4,2.5c0.2,0,0.4-0.1,0.8-0.1c0.8,0,1.5,0.2,2.1,0.5c0.8,0.4,1.4,1.3,1.4,2.5
					c0,1.9-1.5,3.3-3.6,3.3c-1.1,0-2-0.3-2.4-0.6l0.3-1c0.4,0.2,1.2,0.5,2.1,0.5c1.2,0,2.3-0.8,2.3-2.1c0-1.3-0.9-2.2-2.8-2.2
					c-0.5,0-1,0.1-1.4,0.1l0.6-4.7h4.7L270.1,12.3C270.1,12.3,270.1,12.3,270.1,12.3z"/>
				<path class="st7" d="M266.7,21.6c-1.2,0-2.2-0.4-2.7-0.7l-0.3-0.2l0.6-2l0.5,0.3c0.3,0.2,1,0.5,1.8,0.5c0.9,0,1.8-0.5,1.8-1.6
					c0-1.1-0.8-1.7-2.3-1.7c-0.5,0-0.9,0-1.2,0.1l-0.6,0.1l0-0.6l0.7-5.1h5.6v2.1h-3.8l-0.2,1.4c0.1,0,0.1,0,0.2,0
					c0.9,0,1.7,0.2,2.4,0.6c1,0.6,1.6,1.7,1.6,2.9C270.8,20,269.1,21.6,266.7,21.6z M264.9,20.3c0.5,0.2,1.1,0.4,1.8,0.4
					c1.8,0,3.1-1.2,3.1-2.8c0-0.9-0.4-1.7-1.1-2.1c-0.5-0.3-1.1-0.5-1.9-0.5c-0.2,0-0.3,0-0.5,0c1.9,0.1,3.1,1,3.1,2.7
					c0,1.5-1.2,2.6-2.8,2.6C266,20.6,265.4,20.4,264.9,20.3L264.9,20.3z M265.9,11.7l-0.5,3.6c0,0,0,0,0.1,0l0.1-0.6l0.4-2.9h3.6
					v-0.1C269.6,11.7,265.9,11.7,265.9,11.7z"/>
			</g>
			<g>
				<path class="st7" d="M279.3,16c0,3.3-1.2,5.1-3.4,5.1c-1.9,0-3.2-1.8-3.2-5c0-3.3,1.4-5.1,3.4-5.1
					C278.1,11.1,279.3,12.9,279.3,16z M274,16.1c0,2.5,0.8,4,2,4c1.4,0,2-1.6,2-4.1c0-2.4-0.6-4-2-4C274.9,12.1,274,13.5,274,16.1z"
					/>
				<path class="st7" d="M275.9,21.6c-2.3,0-3.7-2.1-3.7-5.5c0-3.4,1.5-5.6,3.9-5.6c2.3,0,3.7,2,3.7,5.4
					C279.8,19.6,278.4,21.6,275.9,21.6z M276.1,11.6c-1.8,0-2.9,1.8-2.9,4.6c0,2.8,1,4.5,2.7,4.5c2.5,0,2.9-2.9,2.9-4.6
					C278.8,14.6,278.5,11.6,276.1,11.6z M276,20.6c-1.5,0-2.5-1.7-2.5-4.5c0-3.4,1.3-4.6,2.5-4.6c0.9,0,2.5,0.6,2.5,4.5
					C278.5,20,276.9,20.6,276,20.6z M276,12.6c-0.9,0-1.5,1.4-1.5,3.6c0,2.1,0.6,3.5,1.5,3.5c1.4,0,1.5-2.5,1.5-3.6
					C277.5,15,277.4,12.6,276,12.6z"/>
			</g>
			<g>
				<path class="st7" d="M285.9,21v-6.2h-1v-1h1v-0.3c0-1,0.2-1.9,0.8-2.5c0.5-0.5,1.2-0.7,1.8-0.7c0.5,0,0.9,0.1,1.1,0.2l-0.2,1
					c-0.2-0.1-0.5-0.2-0.8-0.2c-1.1,0-1.4,1-1.4,2.1v0.4h1.8v1h-1.8V21H285.9z"/>
				<path class="st7" d="M287.7,21.5h-2.3v-6.2h-1v-2h1c0-1.2,0.4-2.1,1-2.7c0.5-0.5,1.3-0.8,2.1-0.8c0.6,0,1.1,0.2,1.3,0.2l0.4,0.1
					l-0.4,2.1l-0.6-0.3c-0.2-0.1-0.4-0.1-0.6-0.1c-0.3,0-0.9,0-0.9,1.5h1.8v2h-1.8V21.5z M286.4,20.5h0.3v-6.2h1.8h-1.8v-0.9
					c0-2.3,1.2-2.6,1.9-2.6c0.1,0,0.3,0,0.4,0l0,0c-0.1,0-0.3-0.1-0.6-0.1c-0.3,0-0.9,0.1-1.4,0.5c-0.5,0.4-0.7,1.2-0.7,2.2v0.8h-1
					h1L286.4,20.5L286.4,20.5z"/>
			</g>
			<g>
				<path class="st7" d="M292.7,11.6v2.1h1.9v1h-1.9v3.9c0,0.9,0.2,1.4,1,1.4c0.4,0,0.6,0,0.8-0.1l0.1,1c-0.3,0.1-0.7,0.2-1.2,0.2
					c-0.6,0-1.1-0.2-1.4-0.5c-0.4-0.4-0.5-1-0.5-1.9v-4h-1.1v-1h1.1V12L292.7,11.6z"/>
				<path class="st7" d="M293.4,21.6c-0.8,0-1.4-0.2-1.8-0.7c-0.4-0.4-0.6-1.1-0.6-2.2v-3.5h-1.1v-2h1.1v-1.6l2.3-0.6v2.2h1.9v2
					h-1.9v3.4c0,0.9,0.3,0.9,0.5,0.9c0.3,0,0.5,0,0.6-0.1l0.6-0.2l0.1,2l-0.3,0.1C294.4,21.5,293.9,21.6,293.4,21.6z M290.8,14.2
					h1.1v4.5c0,0.8,0.1,1.3,0.4,1.5c0.3,0.3,0.7,0.4,1.1,0.4c0.2,0,0.5,0,0.6,0v0c-0.7,0-1.8-0.1-1.8-1.9v-4.4h1.9h-1.9v-1.9
					l-0.3,0.1v1.9L290.8,14.2z"/>
			</g>
			<g>
				<path class="st7" d="M296.6,20.2c0-0.6,0.4-1,0.9-1c0.5,0,0.9,0.4,0.9,1c0,0.5-0.4,0.9-0.9,0.9
					C296.9,21.1,296.6,20.7,296.6,20.2z"/>
				<path class="st7" d="M297.5,21.6c-0.8,0-1.4-0.6-1.4-1.4s0.6-1.5,1.4-1.5s1.4,0.6,1.4,1.5S298.3,21.6,297.5,21.6z M297.5,19.7
					c-0.2,0-0.4,0.2-0.4,0.5c0,0.2,0.1,0.4,0.4,0.4c0.4,0,0.4-0.3,0.4-0.4C297.9,20,297.8,19.7,297.5,19.7z"/>
			</g>
		</g>
		<rect x="237.6" y="23.5" class="st7" width="1.7" height="28.5"/>
	</g>
	<g id="Layer_3_1_">
		<g>
			<g>
				<path class="st7" d="M84.9,62c0.3-0.9,0.7-2.5,0.9-3.6l1.5-0.2c-0.3,1.3-1,2.9-1.4,3.7L84.9,62z"/>
				<path class="st7" d="M84.2,62.6l0.3-0.8c0.3-0.9,0.7-2.4,0.9-3.5l0.1-0.4l2.6-0.3l-0.2,0.7c-0.3,1.3-1,3-1.5,3.8l-0.1,0.2
					L84.2,62.6z M86.2,58.9c-0.1,0.7-0.3,1.5-0.5,2.2c0.3-0.6,0.6-1.4,0.8-2.2L86.2,58.9z"/>
			</g>
			<g>
				<path class="st7" d="M103.6,51.5h-3.7L99.5,54c0.2,0,0.4-0.1,0.8-0.1c0.8,0,1.5,0.2,2.1,0.5c0.8,0.4,1.4,1.3,1.4,2.5
					c0,1.9-1.5,3.3-3.6,3.3c-1.1,0-2-0.3-2.4-0.6l0.3-1c0.4,0.2,1.2,0.5,2.1,0.5c1.2,0,2.3-0.8,2.3-2.1c0-1.3-0.8-2.2-2.8-2.2
					c-0.6,0-1,0.1-1.3,0.1l0.6-4.7h4.7L103.6,51.5L103.6,51.5z"/>
				<path class="st7" d="M100.2,60.8c-1.2,0-2.2-0.3-2.7-0.7l-0.3-0.2l0.7-2l0.5,0.3c0.3,0.2,1,0.5,1.8,0.5c0.9,0,1.8-0.5,1.8-1.6
					c0-1.1-0.8-1.7-2.3-1.7c-0.5,0-0.9,0-1.2,0.1l-0.6,0.1l0-0.6l0.7-5.1h5.6V52h-3.8l-0.2,1.5c0.1,0,0.1,0,0.2,0
					c0.9,0,1.7,0.2,2.4,0.6c1,0.6,1.6,1.7,1.6,2.9C104.3,59.2,102.5,60.8,100.2,60.8z M98.3,59.5c0.4,0.2,1.1,0.3,1.8,0.3
					c1.8,0,3.1-1.2,3.1-2.8c0-0.9-0.4-1.7-1.1-2.1c-0.5-0.3-1.2-0.5-1.8-0.5c-0.2,0-0.3,0-0.5,0c1.9,0.1,3.1,1,3.1,2.7
					c0,1.5-1.2,2.6-2.8,2.6C99.5,59.7,98.8,59.6,98.3,59.5L98.3,59.5z M99.4,50.9l-0.5,3.6c0,0,0,0,0.1,0l0.1-0.6l0.4-2.9h3.7v-0.1
					H99.4z"/>
			</g>
			<g>
				<path class="st7" d="M112.8,55.2c0,3.3-1.2,5.2-3.4,5.2c-1.9,0-3.2-1.8-3.2-5c0-3.3,1.4-5.1,3.4-5.1
					C111.6,50.2,112.8,52.1,112.8,55.2z M107.5,55.3c0,2.5,0.8,4,2,4c1.3,0,2-1.6,2-4.1c0-2.4-0.6-4-2-4
					C108.3,51.2,107.5,52.7,107.5,55.3z"/>
				<path class="st7" d="M109.4,60.8c-2.3,0-3.7-2.1-3.7-5.5c0-3.4,1.5-5.6,3.9-5.6c2.3,0,3.7,2,3.7,5.4
					C113.3,58.8,111.9,60.8,109.4,60.8z M109.6,50.7c-1.8,0-2.9,1.8-2.9,4.6c0,2.8,1,4.5,2.7,4.5c2.5,0,2.9-2.9,2.9-4.7
					C112.3,53.8,112,50.7,109.6,50.7z M109.5,59.8c-1.6,0-2.5-1.7-2.5-4.5c0-3.4,1.3-4.6,2.5-4.6c0.9,0,2.5,0.6,2.5,4.5
					C112,59.2,110.4,59.8,109.5,59.8z M109.5,51.8c-0.9,0-1.5,1.4-1.5,3.6c0,2.1,0.6,3.5,1.5,3.5c1.3,0,1.5-2.5,1.5-3.6
					C111,54.2,110.8,51.8,109.5,51.8z"/>
			</g>
			<g>
				<path class="st7" d="M119.4,60.1v-6.2h-1v-1h1v-0.3c0-1,0.2-2,0.8-2.5c0.5-0.5,1.2-0.7,1.8-0.7c0.5,0,0.9,0.1,1.1,0.2l-0.2,1
					c-0.2-0.1-0.5-0.2-0.8-0.2c-1.1,0-1.4,1-1.4,2.1v0.4h1.8v1h-1.8v6.2H119.4z"/>
				<path class="st7" d="M121.2,60.6h-2.3v-6.2h-1v-2h1c0-1.2,0.4-2.1,1-2.7c0.5-0.5,1.3-0.8,2.1-0.8c0.6,0,1.1,0.2,1.3,0.2l0.4,0.2
					l-0.4,2.1l-0.6-0.3c-0.2-0.1-0.4-0.1-0.6-0.1c-0.3,0-0.9,0-0.9,1.5h1.8v2h-1.8V60.6z M119.9,59.6h0.3v-6.2h1.8h-1.8v-0.9
					c0-2.3,1.2-2.6,1.9-2.6c0.2,0,0.3,0,0.4,0l0,0c-0.2,0-0.3-0.1-0.6-0.1c-0.3,0-0.9,0.1-1.4,0.5c-0.5,0.4-0.7,1.2-0.7,2.2v0.8h-1
					h1L119.9,59.6L119.9,59.6z"/>
			</g>
			<g>
				<path class="st7" d="M126.2,50.8v2.1h1.9v1h-1.9v3.9c0,0.9,0.2,1.4,1,1.4c0.3,0,0.6,0,0.8-0.1l0.1,1c-0.3,0.1-0.7,0.2-1.2,0.2
					c-0.6,0-1.1-0.2-1.4-0.5c-0.4-0.4-0.5-1-0.5-1.9v-4h-1.1v-1h1.1v-1.7L126.2,50.8z"/>
				<path class="st7" d="M126.8,60.8c-0.8,0-1.4-0.2-1.8-0.7c-0.4-0.4-0.6-1.2-0.6-2.2v-3.5h-1.1v-2h1.1v-1.6l2.3-0.6v2.2h1.9v2
					h-1.9v3.4c0,0.9,0.3,0.9,0.5,0.9c0.3,0,0.5,0,0.6-0.1l0.6-0.2l0.1,2l-0.3,0.1C127.9,60.7,127.4,60.8,126.8,60.8z M124.3,53.4
					h1.1v4.5c0,0.8,0.1,1.3,0.4,1.5c0.3,0.3,0.7,0.4,1.1,0.4c0.2,0,0.5,0,0.7,0v0c-0.7,0-1.8-0.1-1.8-1.9v-4.4h1.9h-1.9v-1.9
					l-0.3,0.1v1.9H124.3z"/>
			</g>
			<g>
				<path class="st7" d="M130,59.4c0-0.6,0.4-1,0.9-1c0.5,0,0.9,0.4,0.9,1c0,0.5-0.4,0.9-0.9,0.9C130.4,60.3,130,59.9,130,59.4z"/>
				<path class="st7" d="M130.9,60.8c-0.8,0-1.4-0.6-1.4-1.4s0.6-1.5,1.4-1.5s1.4,0.6,1.4,1.5S131.7,60.8,130.9,60.8z M130.9,58.9
					c-0.2,0-0.4,0.2-0.4,0.5c0,0.2,0.1,0.4,0.4,0.4c0.4,0,0.4-0.3,0.4-0.4C131.3,59.2,131.3,58.9,130.9,58.9z"/>
			</g>
		</g>
		<rect x="130.1" y="63.6" class="st7" width="1.7" height="26.5"/>
		<g>
			<path class="st7" d="M83.6,51.5h-3.7L79.5,54c0.2,0,0.4-0.1,0.8-0.1c0.8,0,1.5,0.2,2.1,0.5c0.8,0.4,1.4,1.3,1.4,2.5
				c0,1.9-1.5,3.3-3.6,3.3c-1.1,0-2-0.3-2.4-0.6l0.3-1c0.4,0.2,1.2,0.5,2.1,0.5c1.2,0,2.3-0.8,2.3-2.1c0-1.3-0.8-2.2-2.8-2.2
				c-0.6,0-1,0.1-1.3,0.1l0.6-4.7h4.7L83.6,51.5L83.6,51.5z"/>
			<path class="st7" d="M80.2,60.8c-1.2,0-2.2-0.3-2.7-0.7l-0.3-0.2l0.7-2l0.5,0.3c0.3,0.2,1,0.5,1.8,0.5c0.9,0,1.8-0.5,1.8-1.6
				c0-1.1-0.8-1.7-2.3-1.7c-0.5,0-0.9,0-1.2,0.1l-0.6,0.1l0-0.6l0.7-5.1h5.6V52h-3.8l-0.2,1.5c0.1,0,0.1,0,0.2,0
				c0.9,0,1.7,0.2,2.4,0.6c1,0.6,1.6,1.7,1.6,2.9C84.3,59.2,82.5,60.8,80.2,60.8z M78.3,59.5c0.4,0.2,1.1,0.3,1.8,0.3
				c1.8,0,3.1-1.2,3.1-2.8c0-0.9-0.4-1.7-1.1-2.1c-0.5-0.3-1.2-0.5-1.8-0.5c-0.2,0-0.3,0-0.5,0c1.9,0.1,3.1,1,3.1,2.7
				c0,1.5-1.2,2.6-2.8,2.6C79.5,59.7,78.8,59.6,78.3,59.5L78.3,59.5z M79.4,50.9l-0.5,3.6c0,0,0,0,0.1,0l0.1-0.6l0.4-2.9h3.7v-0.1
				H79.4z"/>
		</g>
		<g>
			<path class="st7" d="M95.6,51.5h-3.7L91.5,54c0.2,0,0.4-0.1,0.8-0.1c0.8,0,1.5,0.2,2.1,0.5c0.8,0.4,1.4,1.3,1.4,2.5
				c0,1.9-1.5,3.3-3.6,3.3c-1.1,0-2-0.3-2.4-0.6l0.3-1c0.4,0.2,1.2,0.5,2.1,0.5c1.2,0,2.3-0.8,2.3-2.1c0-1.3-0.8-2.2-2.8-2.2
				c-0.6,0-1,0.1-1.3,0.1l0.6-4.7h4.7L95.6,51.5L95.6,51.5z"/>
			<path class="st7" d="M92.2,60.8c-1.2,0-2.2-0.3-2.7-0.7l-0.3-0.2l0.7-2l0.5,0.3c0.3,0.2,1,0.5,1.8,0.5c0.9,0,1.8-0.5,1.8-1.6
				c0-1.1-0.8-1.7-2.3-1.7c-0.5,0-0.9,0-1.2,0.1l-0.6,0.1l0-0.6l0.7-5.1h5.6V52h-3.8l-0.2,1.5c0.1,0,0.1,0,0.2,0
				c0.9,0,1.7,0.2,2.4,0.6c1,0.6,1.6,1.7,1.6,2.9C96.3,59.2,94.5,60.8,92.2,60.8z M90.3,59.5c0.4,0.2,1.1,0.3,1.8,0.3
				c1.8,0,3.1-1.2,3.1-2.8c0-0.9-0.4-1.7-1.1-2.1c-0.5-0.3-1.2-0.5-1.8-0.5c-0.2,0-0.3,0-0.5,0c1.9,0.1,3.1,1,3.1,2.7
				c0,1.5-1.2,2.6-2.8,2.6C91.5,59.7,90.8,59.6,90.3,59.5L90.3,59.5z M91.4,50.9l-0.5,3.6c0,0,0,0,0.1,0l0.1-0.6l0.4-2.9h3.7v-0.1
				H91.4z"/>
		</g>
	</g>
</g>
<g id="Layer_3_2_">
	<g id="KTmQwW.tif">
		<g>
			<g>
				<path class="st4" d="M264.5,91.1c7.7,0,15.5,0,23.2,0c1.7,0,3.4,0,5.1-0.3c1.7-0.3,3.4-0.7,4.8-1.7c0.4-0.3,0.7-0.7,0.8-1.1
					c0.1-0.3-0.1-0.6-0.3-0.9c-0.3-0.4-0.8-0.7-1.2-1c-1.4-0.7-3-1-4.6-1.3c-1.7-0.2-3.4-0.3-5.1-0.2c-0.4,0-0.7,0-1.1,0
					c-0.2,0-0.5-0.1-0.6-0.3c-0.2-0.3-0.4-0.7-0.6-1c-0.3-0.6-0.9-1-1.5-1.3c-0.9-0.6-2-0.9-3.1-1.2c-2.4-0.6-5-0.9-7.5-1
					c-1.5-0.1-3,0-4.5,0.1c-2.5,0.1-5,0.4-7.4,1.2c-1.5,0.5-2.8,1.1-3.8,2.1c-0.1,0.1-0.3,0.3-0.5,0.4c-0.4,0.2-0.9,0.2-1.4,0.2
					c-0.5-0.1-1-0.2-1.4-0.2c-1.7-0.2-3.4-0.2-5,0c-1.5,0.2-3,0.4-4.3,1.2c-0.4,0.2-0.8,0.4-0.9,0.9c-0.1,0.5-0.6,0.6-1.1,0.7
					c-0.1,0-0.2,0-0.4,0c-2.2-0.1-4.3,0-6.4,0.5c-1,0.2-1.9,0.6-2.6,1.3c-0.5,0.6-0.4,1.2,0.3,1.7c0.9,0.6,1.9,0.9,2.9,1.1
					c1.4,0.3,2.9,0.4,4.4,0.4C248.4,91.1,256.5,91.1,264.5,91.1z"/>
			</g>
		</g>
	</g>
</g>
</svg>
