<?xml version="1.0" encoding="utf-8"?>
<!-- Generator: Adobe Illustrator 24.0.1, SVG Export Plug-In . SVG Version: 6.00 Build 0)  -->
<svg version="1.1" xmlns="http://www.w3.org/2000/svg" xmlns:xlink="http://www.w3.org/1999/xlink" x="0px" y="0px"
	 viewBox="0 0 317.16 145.65" style="enable-background:new 0 0 317.16 145.65;" xml:space="preserve">
<style type="text/css">
	.st0{fill:#FFFFFF;}
	.st1{fill:#A7A7A8;}
	.st2{fill:#C3C3C3;}
	.st3{fill:#468CDA;}
</style>
<g id="Layer_2_1_">
	<g>
		<path class="st0" d="M241.64,56.47c-2.77-3.12-3.52-3.15-6.7-0.29c-5.33,4.81-10.66,9.62-15.99,14.43h35.26
			C250.02,65.9,245.83,61.18,241.64,56.47z"/>
		<path class="st1" d="M50.47,116.59c-4.38-0.98-8.81-1.69-13.21-2.6c-1.85-0.38-3.17,0.19-4.39,1.58c-3.66,4.2-7.4,3.32-11.11,7.47
			c-2.94,3.28-5.96,6.49-8.76,9.89c-0.66,0.8-1.02,2.39-0.68,3.31c0.27,0.73,1.79,1.08,2.82,1.41c0.6,0.2,1.32,0.04,1.99,0.04
			c28.54-0.01,62.09-0.03,90.63-0.03c65.91,0,131.82,0.02,197.73,0.03c1,0,2.01,0.05,2.99-0.1c1.92-0.3,2.73-2,1.79-3.72
			c-0.35-0.64-0.88-1.2-1.37-1.76c-6.06-6.82-12.12-13.63-18.18-20.44H59.58C56.75,114.08,52.41,117.03,50.47,116.59z"/>
		<path class="st2" d="M195.87,88.95c-3.57,0.15-7.18,5.16-10.72,4.73c-3.78-0.47-6.47,0.83-9.04,3.45
			c-3.35,3.43-7.02,6.54-10.9,10.11c-3.78-5.73-7.34-6.03-10.78-11.4c-1.13-1.76-2.5-4.43-4.57-4.27c-4.98,0.4-9.96,0.75-14.95,0.91
			c-1.49,0.05-6.17-0.28-7.49-0.96c-9.02-4.64-14.96-9.41-23.93-14.15c-3.99-2.11-4.28-2.08-7.35,1.38
			c-11.48,12.92-23.01,17.8-34.37,30.83c-0.47,0.54-1.25,1.28-2.19,2.08h231.14c-12.17-13.69-24.33-27.38-36.5-41.06h-35.26
			c-6.21,5.6-12.43,11.19-18.68,16.74C199.17,88.33,197.37,88.89,195.87,88.95z"/>
	</g>
	<g id="Layer_3">
		<g>
			<g>
				<path class="st3" d="M237.69,12.44h-0.03l-1.69,0.92l-0.25-1.01l2.13-1.14h1.12v9.75h-1.27v-8.52H237.69z"/>
				<path class="st3" d="M239.47,21.46h-2.27v-8.2l-1.55,0.84l-0.51-2.01l2.58-1.38h1.75V21.46z M238.19,20.46h0.27v-8.75h-0.5
					l-0.43,0.23h0.62l0.03,0.5v8.02H238.19z M236.29,12.61L236.29,12.61l1.01-0.54L236.29,12.61z"/>
			</g>
			<g>
				<path class="st3" d="M246.21,12.44h-0.03l-1.69,0.92l-0.25-1.01l2.13-1.14h1.12v9.75h-1.27v-8.52H246.21z"/>
				<path class="st3" d="M247.99,21.46h-2.27v-8.2l-1.55,0.84l-0.51-2.01l2.58-1.38h1.75V21.46z M246.71,20.46h0.27v-8.75h-0.5
					l-0.43,0.23h0.62l0.03,0.5v8.02H246.71z M244.81,12.61L244.81,12.61l1.01-0.54L244.81,12.61z"/>
			</g>
			<g>
				<path class="st3" d="M251.43,22.81c0.33-0.88,0.74-2.49,0.9-3.58l1.47-0.15c-0.34,1.28-1,2.94-1.42,3.65L251.43,22.81z"/>
				<path class="st3" d="M250.69,23.38l0.28-0.75c0.32-0.87,0.72-2.43,0.87-3.48l0.06-0.38l2.58-0.26l-0.19,0.7
					c-0.35,1.28-1.02,3.01-1.48,3.77l-0.13,0.22L250.69,23.38z M252.76,19.68c-0.12,0.67-0.31,1.47-0.5,2.17
					c0.27-0.59,0.59-1.41,0.85-2.21L252.76,19.68z"/>
			</g>
			<g>
				<path class="st3" d="M255.8,20.96v-0.81l1.04-1c2.49-2.37,3.61-3.63,3.63-5.1c0-0.99-0.48-1.91-1.94-1.91
					c-0.88,0-1.62,0.45-2.07,0.83l-0.42-0.93c0.67-0.57,1.63-0.99,2.76-0.99c2.1,0,2.98,1.44,2.98,2.83c0,1.8-1.3,3.25-3.36,5.23
					l-0.78,0.72v0.03h4.38v1.09h-6.22V20.96z"/>
				<path class="st3" d="M262.52,21.46h-7.23v-1.52l1.19-1.15c2.44-2.33,3.47-3.5,3.48-4.75c0-0.94-0.47-1.4-1.43-1.4
					c-0.78,0-1.43,0.44-1.75,0.71l-0.51,0.42l-0.85-1.87l0.29-0.24c0.85-0.71,1.94-1.11,3.08-1.11c2.41,0,3.49,1.67,3.49,3.33
					c0,2.01-1.46,3.61-3.4,5.48h3.64V21.46z M256.3,20.46h5.23v-0.09h-4.38v-0.72l0.16-0.18l0.78-0.72c2.17-2.09,3.2-3.35,3.2-4.87
					c0-1.13-0.65-2.33-2.49-2.33c-0.78,0-1.52,0.23-2.14,0.65v0.01c0.49-0.3,1.13-0.56,1.87-0.56c1.52,0,2.43,0.9,2.43,2.41
					c-0.02,1.69-1.22,3.02-3.79,5.46l-0.88,0.85v0.09H256.3z"/>
			</g>
			<g>
				<path class="st3" d="M270.14,12.32h-3.72l-0.38,2.5c0.23-0.03,0.44-0.06,0.79-0.06c0.75,0,1.5,0.17,2.1,0.52
					c0.76,0.44,1.4,1.27,1.4,2.5c0,1.91-1.52,3.33-3.63,3.33c-1.06,0-1.97-0.3-2.43-0.6l0.33-1c0.4,0.24,1.2,0.54,2.08,0.54
					c1.25,0,2.31-0.81,2.31-2.11c-0.02-1.26-0.85-2.16-2.81-2.16c-0.55,0-0.99,0.06-1.35,0.1l0.63-4.68h4.66v1.12H270.14z"/>
				<path class="st3" d="M266.7,21.63c-1.22,0-2.19-0.35-2.7-0.68l-0.32-0.21l0.65-1.96l0.54,0.32c0.29,0.17,1.01,0.47,1.83,0.47
					c0.87,0,1.81-0.51,1.81-1.61c-0.01-1.1-0.79-1.66-2.31-1.66c-0.48,0-0.87,0.05-1.21,0.09l-0.64,0.08l0.01-0.63l0.69-5.11h5.6
					v2.11h-3.79l-0.22,1.45c0.06,0,0.13,0,0.21,0c0.89,0,1.71,0.21,2.36,0.6c1.04,0.59,1.64,1.66,1.64,2.93
					C270.83,19.98,269.06,21.63,266.7,21.63z M264.88,20.28c0.45,0.19,1.1,0.35,1.82,0.35c1.81,0,3.13-1.19,3.13-2.83
					c0-0.9-0.42-1.66-1.14-2.07c-0.5-0.3-1.15-0.46-1.85-0.46c-0.19,0-0.33,0.01-0.46,0.02c1.94,0.06,3.1,1.04,3.12,2.65
					c0,1.5-1.21,2.62-2.81,2.62c-0.67,0-1.3-0.15-1.79-0.34L264.88,20.28z M265.91,11.71l-0.49,3.61c0.02,0,0.04,0,0.07-0.01
					l0.06-0.56l0.44-2.93h3.65v-0.11C269.64,11.71,265.91,11.71,265.91,11.71z"/>
			</g>
			<g>
				<path class="st3" d="M279.32,15.98c0,3.31-1.23,5.15-3.39,5.15c-1.9,0-3.19-1.79-3.22-5.01c0-3.27,1.41-5.07,3.39-5.07
					C278.15,11.05,279.32,12.88,279.32,15.98z M274.02,16.13c0,2.53,0.78,3.97,1.98,3.97c1.35,0,2-1.57,2-4.06
					c0-2.4-0.62-3.97-1.98-3.97C274.86,12.07,274.02,13.48,274.02,16.13z"/>
				<path class="st3" d="M275.93,21.63c-2.27,0-3.69-2.11-3.72-5.51c0-3.39,1.53-5.57,3.89-5.57c2.33,0,3.72,2.03,3.72,5.43
					C279.82,19.57,278.4,21.63,275.93,21.63z M276.09,11.55c-1.78,0-2.89,1.75-2.89,4.57c0.03,2.82,1.04,4.51,2.72,4.51
					c2.51,0,2.89-2.91,2.89-4.65C278.82,14.65,278.55,11.55,276.09,11.55z M276,20.61c-1.55,0-2.48-1.67-2.48-4.47
					c0-3.37,1.29-4.56,2.5-4.56c0.93,0,2.48,0.58,2.48,4.47C278.5,20.02,276.94,20.61,276,20.61z M276.02,12.57
					c-0.89,0-1.5,1.43-1.5,3.56c0,2.11,0.58,3.47,1.48,3.47c1.35,0,1.5-2.49,1.5-3.56C277.5,15,277.35,12.57,276.02,12.57z"/>
			</g>
			<g>
				<path class="st3" d="M285.92,20.96v-6.25h-1.02v-1h1.02v-0.34c0-1.02,0.23-1.95,0.84-2.54c0.5-0.48,1.16-0.67,1.77-0.67
					c0.46,0,0.87,0.1,1.12,0.21l-0.18,1.02c-0.19-0.09-0.46-0.17-0.84-0.17c-1.12,0-1.41,0.99-1.41,2.1v0.39h1.76v1h-1.76v6.25
					H285.92z"/>
				<path class="st3" d="M287.72,21.46h-2.3v-6.25h-1.02v-2h1.02c0.03-1.22,0.36-2.14,0.99-2.74c0.54-0.52,1.29-0.81,2.12-0.81
					c0.64,0,1.13,0.17,1.32,0.25l0.37,0.15l-0.36,2.06l-0.59-0.27c-0.17-0.08-0.38-0.12-0.63-0.12c-0.29,0-0.88,0-0.91,1.49h1.75v2
					h-1.76V21.46z M286.42,20.46h0.3v-6.25h1.76h-1.76v-0.89c0-2.26,1.2-2.6,1.91-2.6c0.15,0,0.3,0.01,0.44,0.03l0.01-0.04
					c-0.15-0.03-0.34-0.06-0.56-0.06c-0.33,0-0.94,0.07-1.42,0.53c-0.46,0.44-0.69,1.17-0.69,2.18v0.84h-1.02h1.02v6.26H286.42z"/>
			</g>
			<g>
				<path class="st3" d="M292.74,11.62v2.08h1.89v1h-1.89v3.92c0,0.9,0.25,1.41,0.99,1.41c0.35,0,0.6-0.04,0.77-0.09l0.06,0.99
					c-0.26,0.1-0.66,0.18-1.17,0.18c-0.62,0-1.11-0.19-1.43-0.55c-0.38-0.39-0.51-1.04-0.51-1.89v-3.96h-1.12v-1h1.12v-1.74
					L292.74,11.62z"/>
				<path class="st3" d="M293.39,21.61c-0.76,0-1.39-0.25-1.8-0.73c-0.43-0.44-0.63-1.15-0.63-2.22V15.2h-1.12v-2h1.12v-1.62
					l2.29-0.61v2.24h1.89v2h-1.89v3.42c0,0.91,0.26,0.91,0.49,0.91c0.3,0,0.51-0.04,0.63-0.07l0.59-0.16l0.12,1.96l-0.33,0.14
					C294.41,21.54,293.92,21.61,293.39,21.61z M290.83,14.21h1.12v4.46c0,0.78,0.12,1.28,0.37,1.54c0.29,0.33,0.74,0.4,1.07,0.4
					c0.23,0,0.46-0.02,0.65-0.05v-0.04c-0.68,0.05-1.79-0.07-1.79-1.9V14.2h1.89h-1.89v-1.93l-0.29,0.08v1.86L290.83,14.21z"/>
			</g>
			<g>
				<path class="st3" d="M296.58,20.18c0-0.56,0.38-0.95,0.9-0.95c0.53,0,0.89,0.39,0.89,0.95c0,0.54-0.35,0.94-0.9,0.94
					C296.94,21.13,296.58,20.72,296.58,20.18z"/>
				<path class="st3" d="M297.47,21.63c-0.79,0-1.38-0.62-1.38-1.44s0.6-1.45,1.4-1.45s1.39,0.61,1.39,1.45
					S298.28,21.63,297.47,21.63z M297.48,19.74c-0.25,0-0.4,0.17-0.4,0.45c0,0.21,0.1,0.44,0.38,0.44c0.35,0,0.4-0.28,0.4-0.44
					C297.87,20.05,297.83,19.74,297.48,19.74z"/>
			</g>
		</g>
		<rect x="237.64" y="23.46" class="st3" width="1.66" height="28.53"/>
	</g>
	<g id="Layer_3_1_">
		<g>
			<g>
				<path class="st3" d="M84.89,61.99c0.33-0.88,0.74-2.49,0.9-3.58l1.47-0.15c-0.34,1.28-1,2.94-1.42,3.65L84.89,61.99z"/>
				<path class="st3" d="M84.15,62.56l0.28-0.75c0.32-0.87,0.72-2.43,0.87-3.48l0.06-0.38l2.58-0.26l-0.19,0.7
					c-0.35,1.28-1.02,3.01-1.48,3.77l-0.13,0.22L84.15,62.56z M86.22,58.86c-0.12,0.67-0.31,1.47-0.5,2.17
					c0.27-0.59,0.59-1.41,0.85-2.21L86.22,58.86z"/>
			</g>
			<g>
				<path class="st3" d="M103.6,51.5h-3.72L99.5,54c0.23-0.03,0.44-0.06,0.79-0.06c0.75,0,1.5,0.17,2.1,0.52
					c0.76,0.44,1.4,1.27,1.4,2.5c0,1.91-1.52,3.33-3.63,3.33c-1.06,0-1.97-0.3-2.43-0.6l0.33-1c0.4,0.24,1.2,0.54,2.08,0.54
					c1.25,0,2.31-0.81,2.31-2.11c-0.02-1.26-0.85-2.16-2.81-2.16c-0.55,0-0.99,0.06-1.35,0.1l0.63-4.68h4.66v1.12H103.6z"/>
				<path class="st3" d="M100.16,60.81c-1.22,0-2.19-0.35-2.7-0.68l-0.32-0.21l0.65-1.96l0.54,0.32c0.29,0.17,1.01,0.47,1.83,0.47
					c0.87,0,1.81-0.51,1.81-1.61c-0.01-1.1-0.79-1.66-2.31-1.66c-0.48,0-0.87,0.05-1.21,0.09l-0.64,0.08l0.01-0.63l0.69-5.11h5.6
					v2.11h-3.79l-0.22,1.45c0.06,0,0.13,0,0.21,0c0.89,0,1.71,0.21,2.36,0.6c1.04,0.59,1.64,1.66,1.64,2.93
					C104.29,59.16,102.52,60.81,100.16,60.81z M98.34,59.46c0.45,0.19,1.1,0.35,1.82,0.35c1.81,0,3.13-1.19,3.13-2.83
					c0-0.9-0.42-1.66-1.14-2.07c-0.5-0.3-1.15-0.46-1.85-0.46c-0.19,0-0.33,0.01-0.46,0.02c1.94,0.06,3.1,1.04,3.12,2.65
					c0,1.5-1.21,2.62-2.81,2.62c-0.67,0-1.3-0.15-1.79-0.34L98.34,59.46z M99.37,50.89l-0.49,3.61c0.02,0,0.04,0,0.07-0.01
					l0.06-0.56L99.45,51h3.65v-0.11C103.1,50.89,99.37,50.89,99.37,50.89z"/>
			</g>
			<g>
				<path class="st3" d="M112.78,55.16c0,3.31-1.23,5.15-3.39,5.15c-1.9,0-3.19-1.79-3.22-5.01c0-3.27,1.41-5.07,3.39-5.07
					C111.61,50.23,112.78,52.06,112.78,55.16z M107.48,55.31c0,2.53,0.78,3.97,1.98,3.97c1.35,0,2-1.57,2-4.06
					c0-2.4-0.62-3.97-1.98-3.97C108.32,51.25,107.48,52.66,107.48,55.31z"/>
				<path class="st3" d="M109.39,60.81c-2.27,0-3.69-2.11-3.72-5.51c0-3.39,1.53-5.57,3.89-5.57c2.33,0,3.72,2.03,3.72,5.43
					C113.28,58.75,111.86,60.81,109.39,60.81z M109.55,50.73c-1.78,0-2.89,1.75-2.89,4.57c0.03,2.82,1.04,4.51,2.72,4.51
					c2.51,0,2.89-2.91,2.89-4.65C112.28,53.83,112.01,50.73,109.55,50.73z M109.46,59.79c-1.55,0-2.48-1.67-2.48-4.47
					c0-3.37,1.29-4.56,2.5-4.56c0.93,0,2.48,0.58,2.48,4.47C111.96,59.2,110.4,59.79,109.46,59.79z M109.48,51.75
					c-0.89,0-1.5,1.43-1.5,3.56c0,2.11,0.58,3.47,1.48,3.47c1.35,0,1.5-2.49,1.5-3.56C110.96,54.18,110.81,51.75,109.48,51.75z"/>
			</g>
			<g>
				<path class="st3" d="M119.38,60.14v-6.25h-1.02v-1h1.02v-0.34c0-1.02,0.23-1.95,0.84-2.54c0.5-0.48,1.16-0.67,1.77-0.67
					c0.46,0,0.87,0.1,1.12,0.21l-0.18,1.02c-0.19-0.09-0.46-0.17-0.84-0.17c-1.12,0-1.41,0.99-1.41,2.1v0.39h1.76v1h-1.76v6.25
					H119.38z"/>
				<path class="st3" d="M121.18,60.64h-2.3v-6.25h-1.02v-2h1.02c0.03-1.22,0.36-2.14,0.99-2.74c0.54-0.52,1.29-0.81,2.12-0.81
					c0.64,0,1.13,0.17,1.32,0.25l0.37,0.15l-0.36,2.06l-0.59-0.27c-0.17-0.08-0.38-0.12-0.63-0.12c-0.29,0-0.88,0-0.91,1.49h1.75v2
					h-1.76V60.64z M119.88,59.64h0.3v-6.25h1.76h-1.76V52.5c0-2.26,1.2-2.6,1.91-2.6c0.15,0,0.3,0.01,0.44,0.03l0.01-0.04
					c-0.15-0.03-0.34-0.06-0.56-0.06c-0.33,0-0.94,0.07-1.42,0.53c-0.46,0.44-0.69,1.17-0.69,2.18v0.84h-1.02h1.02v6.26H119.88z"/>
			</g>
			<g>
				<path class="st3" d="M126.2,50.8v2.08h1.89v1h-1.89v3.92c0,0.9,0.25,1.41,0.99,1.41c0.35,0,0.6-0.04,0.77-0.09l0.06,0.99
					c-0.26,0.1-0.66,0.18-1.17,0.18c-0.62,0-1.11-0.19-1.43-0.55c-0.38-0.39-0.51-1.04-0.51-1.89v-3.96h-1.12v-1h1.12v-1.74
					L126.2,50.8z"/>
				<path class="st3" d="M126.85,60.79c-0.76,0-1.39-0.25-1.8-0.73c-0.43-0.44-0.63-1.15-0.63-2.22v-3.46h-1.12v-2h1.12v-1.62
					l2.29-0.61v2.24h1.89v2h-1.89v3.42c0,0.91,0.26,0.91,0.49,0.91c0.3,0,0.51-0.04,0.63-0.07l0.59-0.16l0.12,1.96l-0.33,0.14
					C127.87,60.72,127.38,60.79,126.85,60.79z M124.29,53.39h1.12v4.46c0,0.78,0.12,1.28,0.37,1.54c0.29,0.33,0.74,0.4,1.07,0.4
					c0.23,0,0.46-0.02,0.65-0.05V59.7c-0.68,0.05-1.79-0.07-1.79-1.9v-4.42h1.89h-1.89v-1.93l-0.29,0.08v1.86H124.29z"/>
			</g>
			<g>
				<path class="st3" d="M130.04,59.36c0-0.56,0.38-0.95,0.9-0.95c0.53,0,0.89,0.39,0.89,0.95c0,0.54-0.35,0.94-0.9,0.94
					C130.4,60.31,130.04,59.9,130.04,59.36z"/>
				<path class="st3" d="M130.93,60.81c-0.79,0-1.38-0.62-1.38-1.44s0.6-1.45,1.4-1.45s1.39,0.61,1.39,1.45
					S131.74,60.81,130.93,60.81z M130.94,58.92c-0.25,0-0.4,0.17-0.4,0.45c0,0.21,0.1,0.44,0.38,0.44c0.35,0,0.4-0.28,0.4-0.44
					C131.33,59.23,131.29,58.92,130.94,58.92z"/>
			</g>
		</g>
		<rect x="130.1" y="63.64" class="st3" width="1.66" height="26.53"/>
		<g>
			<path class="st3" d="M83.6,51.5h-3.72L79.5,54c0.23-0.03,0.44-0.06,0.79-0.06c0.75,0,1.5,0.17,2.1,0.52
				c0.76,0.44,1.4,1.27,1.4,2.5c0,1.91-1.52,3.33-3.63,3.33c-1.06,0-1.97-0.3-2.43-0.6l0.33-1c0.4,0.24,1.2,0.54,2.08,0.54
				c1.25,0,2.31-0.81,2.31-2.11c-0.02-1.26-0.85-2.16-2.81-2.16c-0.55,0-0.99,0.06-1.35,0.1l0.63-4.68h4.66v1.12H83.6z"/>
			<path class="st3" d="M80.16,60.81c-1.22,0-2.19-0.35-2.7-0.68l-0.32-0.21l0.65-1.96l0.54,0.32c0.29,0.17,1.01,0.47,1.83,0.47
				c0.87,0,1.81-0.51,1.81-1.61c-0.01-1.1-0.79-1.66-2.31-1.66c-0.48,0-0.87,0.05-1.21,0.09l-0.64,0.08l0.01-0.63l0.69-5.11h5.6
				v2.11h-3.79l-0.22,1.45c0.06,0,0.13,0,0.21,0c0.89,0,1.71,0.21,2.36,0.6c1.04,0.59,1.64,1.66,1.64,2.93
				C84.29,59.16,82.52,60.81,80.16,60.81z M78.34,59.46c0.45,0.19,1.1,0.35,1.82,0.35c1.81,0,3.13-1.19,3.13-2.83
				c0-0.9-0.42-1.66-1.14-2.07c-0.5-0.3-1.15-0.46-1.85-0.46c-0.19,0-0.33,0.01-0.46,0.02c1.94,0.06,3.1,1.04,3.12,2.65
				c0,1.5-1.21,2.62-2.81,2.62c-0.67,0-1.3-0.15-1.79-0.34L78.34,59.46z M79.37,50.89l-0.49,3.61c0.02,0,0.04,0,0.07-0.01l0.06-0.56
				L79.45,51h3.65v-0.11C83.1,50.89,79.37,50.89,79.37,50.89z"/>
		</g>
		<g>
			<path class="st3" d="M95.6,51.5h-3.72L91.5,54c0.23-0.03,0.44-0.06,0.79-0.06c0.75,0,1.5,0.17,2.1,0.52
				c0.76,0.44,1.4,1.27,1.4,2.5c0,1.91-1.52,3.33-3.63,3.33c-1.06,0-1.97-0.3-2.43-0.6l0.33-1c0.4,0.24,1.2,0.54,2.08,0.54
				c1.25,0,2.31-0.81,2.31-2.11c-0.02-1.26-0.85-2.16-2.81-2.16c-0.55,0-0.99,0.06-1.35,0.1l0.63-4.68h4.66v1.12H95.6z"/>
			<path class="st3" d="M92.16,60.81c-1.22,0-2.19-0.35-2.7-0.68l-0.32-0.21l0.65-1.96l0.54,0.32c0.29,0.17,1.01,0.47,1.83,0.47
				c0.87,0,1.81-0.51,1.81-1.61c-0.01-1.1-0.79-1.66-2.31-1.66c-0.48,0-0.87,0.05-1.21,0.09l-0.64,0.08l0.01-0.63l0.69-5.11h5.6
				v2.11h-3.79l-0.22,1.45c0.06,0,0.13,0,0.21,0c0.89,0,1.71,0.21,2.36,0.6c1.04,0.59,1.64,1.66,1.64,2.93
				C96.29,59.16,94.52,60.81,92.16,60.81z M90.34,59.46c0.45,0.19,1.1,0.35,1.82,0.35c1.81,0,3.13-1.19,3.13-2.83
				c0-0.9-0.42-1.66-1.14-2.07c-0.5-0.3-1.15-0.46-1.85-0.46c-0.19,0-0.33,0.01-0.46,0.02c1.94,0.06,3.1,1.04,3.12,2.65
				c0,1.5-1.21,2.62-2.81,2.62c-0.67,0-1.3-0.15-1.79-0.34L90.34,59.46z M91.37,50.89l-0.49,3.61c0.02,0,0.04,0,0.07-0.01l0.06-0.56
				L91.45,51h3.65v-0.11C95.1,50.89,91.37,50.89,91.37,50.89z"/>
		</g>
	</g>
</g>
<g id="Layer_3_2_">
	<g id="KTmQwW.tif">
		<g>
			<g>
				<path class="st0" d="M264.48,91.13c7.74,0,15.47,0,23.21,0c1.71,0,3.41-0.03,5.09-0.31c1.74-0.29,3.43-0.67,4.82-1.65
					c0.44-0.31,0.66-0.71,0.84-1.13c0.15-0.33-0.15-0.61-0.31-0.89c-0.26-0.45-0.75-0.74-1.25-0.99c-1.42-0.71-3-1.04-4.62-1.26
					c-1.7-0.23-3.42-0.28-5.14-0.21c-0.36,0.01-0.73,0.01-1.09-0.04c-0.21-0.03-0.46-0.14-0.57-0.28c-0.25-0.32-0.42-0.69-0.62-1.04
					c-0.33-0.58-0.93-0.98-1.52-1.35c-0.93-0.58-2.03-0.95-3.14-1.24c-2.44-0.64-4.97-0.94-7.53-1.04c-1.5-0.06-3.01-0.01-4.52,0.06
					c-2.53,0.11-5.02,0.43-7.39,1.21c-1.46,0.48-2.8,1.1-3.84,2.09c-0.14,0.14-0.31,0.27-0.5,0.37c-0.44,0.24-0.95,0.23-1.45,0.16
					c-0.48-0.06-0.96-0.16-1.44-0.22c-1.67-0.19-3.35-0.2-5.03-0.01c-1.53,0.18-3.03,0.45-4.34,1.16c-0.39,0.21-0.81,0.44-0.9,0.87
					c-0.11,0.53-0.57,0.63-1.12,0.65c-0.13,0-0.25,0-0.38,0c-2.16-0.13-4.28,0.02-6.35,0.54c-0.99,0.25-1.93,0.58-2.56,1.34
					c-0.46,0.57-0.4,1.22,0.26,1.65c0.86,0.57,1.85,0.9,2.89,1.14c1.45,0.33,2.93,0.42,4.43,0.42
					C248.45,91.13,256.46,91.13,264.48,91.13z"/>
			</g>
		</g>
	</g>
</g>
</svg>
