<svg id="Layer_1" data-name="Layer 1" xmlns="http://www.w3.org/2000/svg" viewBox="0 0 298.47 128.09"><defs><style>.cls-1{fill:#fff;}.cls-2{fill:none;}.cls-3{fill:#a22418;}.cls-4{fill:#a7a7a8;}.cls-5{fill:#c3c3c3;}.cls-6{fill:#468cda;}</style></defs><title>mountains-crab</title><g id="Layer_2" data-name="Layer 2"><path class="cls-1" d="M241.64,56.47c-2.77-3.12-3.52-3.15-6.7-.29L219,70.61h35.26Z" transform="translate(-12.19 -9.66)"/><path class="cls-2" d="M50.32,98.57c-.14-.36-.38-.57-.74-.5s-.55.38-.44.83a.6.6,0,0,0,.73.51C50.25,99.33,50.4,99,50.32,98.57Z" transform="translate(-12.19 -9.66)"/><path class="cls-2" d="M43.91,100.53c-.41.09-.55.41-.42.84a.58.58,0,0,0,.76.47c.36-.1.47-.4.4-.84S44.28,100.44,43.91,100.53Z" transform="translate(-12.19 -9.66)"/><path class="cls-2" d="M51.77,114.12c1.36.54,2.08.41,2.34-.4s-.25-1.55-1.22-2.09c-.08.31,0,.68-.19,1-.66-1.45-.87-.25-1.21.18l-.71-.82c-.33.3-.26.87-.66,1.1l-.57-.89-.38.9-.56-.89c-.34.29-.23,1-.58,1s-.56-.58-.9-.81c0,0-.08,0-.16,0,0,.26-.08.53-.14.88l-.92-.7c.23,1,.05,1.81.67,2.45.36.37.8.87,1-.17.9.94,1.68.76,1.95-.35C50.86,115.3,51.5,115.17,51.77,114.12Z" transform="translate(-12.19 -9.66)"/><path class="cls-3" d="M58.39,112.64A2.35,2.35,0,0,1,60,110.55a1.61,1.61,0,0,0,.48-.34c1.28-1.15,2.66-2.2,3.08-4.17.15-.68.07-1.41.25-2.05.36-1.32.36-2.94,2-3.31a.47.47,0,0,0,.39-.49c0-2.15.19-4.35-1.56-6.06-.18-.18-.31-.66-.6-.43a.94.94,0,0,0-.31,1,1.77,1.77,0,0,0,.15.38,8.49,8.49,0,0,1,.73,2.66c.1.55-.27.63-.53.79s-.54.59-1,.22a3.48,3.48,0,0,1-1.52-3.09c0-.52,0-1.05,0-1.75a12.18,12.18,0,0,1-1.09.92,1.4,1.4,0,0,0-.59,1.67,4.07,4.07,0,0,0,.6,1.4c.94,1.56,2,3,2,5.06a6,6,0,0,1-3.94,6c-1.26.54-2.58.25-3.88.26a2,2,0,0,1-1.87-1.35A20.66,20.66,0,0,1,51,102.06a1.38,1.38,0,0,1,.28-1.18,4.67,4.67,0,0,0,.9-2.37,2.37,2.37,0,0,0-1.62-2.32,2.12,2.12,0,0,0-2.69,1.25,1.64,1.64,0,0,1-.36.49c-.36.35-.31.75-.21,1.24.3,1.42,1.22,2.47,1.83,3.7s1.38,2.59,1,4.15c-.13.53-1.93,1.53-2.38,1.26a2.28,2.28,0,0,1-.22-.22,3.33,3.33,0,0,1-1.24-2.58c0-1-.56-2-.16-2.87a3.3,3.3,0,0,0-.64-3.86,1,1,0,0,1-.17-.27c-.21-.45-.46-.41-.85-.3-1.4.42-2.08,1.64-2.77,2.87a1.66,1.66,0,0,0,.53,2.19l1.17.76a1,1,0,0,1,.51.58c.27,1,.67,2,.85,3,.06.32,0,.53-.27.62-2.39.76-4.66,1.88-7.15,2.37a2.82,2.82,0,0,1-2.69-.54c-1-.9-2.17-1.67-1.58-3.38a.69.69,0,0,0,0-.32c-.62-2.29-.85-4.87-3.57-5.61a.46.46,0,0,1-.13-.08c-.39-.28-.51-.1-.53.33a3.57,3.57,0,0,0,1.08,2.6,5.17,5.17,0,0,1,1.24,1.82c.31.81.12,1.27-.64,1.38a2.67,2.67,0,0,1-1.76-1.17c-.44-1.18-.74-2.41-1.27-3.54a4.34,4.34,0,0,0,0,4c.49,1.06.94,2.35,2.18,2.67a2.62,2.62,0,0,1,1.92,1.64A3.94,3.94,0,0,0,32,111a3.63,3.63,0,0,0,2.92,1.71,18.67,18.67,0,0,0,5.21-.55,1,1,0,0,1,.84.15,2.3,2.3,0,0,1,1,2.31v.26c2.85.53,5.71,1.06,8.54,1.69C52.15,117,55.64,114.8,58.39,112.64Zm-14.14-10.8a.58.58,0,0,1-.76-.47c-.13-.43,0-.75.42-.84s.6.15.74.47S44.61,101.74,44.25,101.84Zm5.62-2.43a.6.6,0,0,1-.73-.51c-.11-.45,0-.74.44-.83s.6.14.74.5S50.25,99.33,49.87,99.41Zm-2.28,15.53c-.21,1-.65.54-1,.17-.62-.64-.44-1.5-.67-2.45l.92.7c.06-.35.1-.62.14-.88.08,0,.13,0,.16,0,.34.23.53.85.9.81s.24-.74.58-1l.56.89.38-.9.57.89c.4-.23.33-.8.66-1.1l.71.82c.34-.43.55-1.63,1.21-.18.24-.35.11-.72.19-1,1,.54,1.45,1.38,1.22,2.09s-1,.94-2.34.4c-.27,1-.91,1.18-2.23.47C49.27,115.7,48.49,115.88,47.59,114.94Z" transform="translate(-12.19 -9.66)"/><path class="cls-4" d="M310.27,133.87a10.42,10.42,0,0,0-1.37-1.76l-18.18-20.44H59.58c-.37.32-.78.65-1.19,1-2.75,2.16-6.24,4.33-7.92,4-2.83-.63-5.69-1.16-8.54-1.69-1.56-.29-3.12-.59-4.67-.91a4.21,4.21,0,0,0-4.39,1.58c-3.66,4.2-7.4,3.32-11.11,7.47-2.94,3.28-6,6.49-8.76,9.89a4,4,0,0,0-.68,3.31c.27.73,1.79,1.08,2.82,1.41a6.59,6.59,0,0,0,2,0l90.63,0,197.73,0a19.84,19.84,0,0,0,3-.1A2.38,2.38,0,0,0,310.27,133.87Z" transform="translate(-12.19 -9.66)"/><path class="cls-5" d="M195.87,89c-3.57.15-7.18,5.16-10.72,4.73-3.78-.47-6.47.83-9,3.45-3.35,3.43-7,6.54-10.9,10.11-3.78-5.73-7.34-6-10.78-11.4-1.13-1.76-2.5-4.43-4.57-4.27-5,.4-10,.75-15,.91-1.49,0-6.17-.28-7.49-1-9-4.64-15-9.41-23.93-14.15-4-2.11-4.28-2.08-7.35,1.38-11.48,12.92-23,17.8-34.37,30.83a22.15,22.15,0,0,1-2.19,2.08H290.72q-18.25-20.53-36.5-41.06H219q-9.32,8.4-18.68,16.74A7.48,7.48,0,0,1,195.87,89Z" transform="translate(-12.19 -9.66)"/><g id="Layer_3" data-name="Layer 3"><path class="cls-6" d="M237.69,12.44h0l-1.69.92-.25-1,2.13-1.14H239V21H237.7V12.44Z" transform="translate(-12.19 -9.66)"/><path class="cls-6" d="M239.47,21.46H237.2v-8.2l-1.55.84-.51-2,2.58-1.38h1.75Zm-1.28-1h.27V11.71H238l-.43.23h.62l0,.5v8Zm-1.9-7.85h0l1-.54Z" transform="translate(-12.19 -9.66)"/><path class="cls-6" d="M246.21,12.44h0l-1.69.92-.25-1,2.13-1.14h1.12V21h-1.27V12.44Z" transform="translate(-12.19 -9.66)"/><path class="cls-6" d="M248,21.46h-2.27v-8.2l-1.55.84-.51-2,2.58-1.38H248Zm-1.28-1H247V11.71h-.5l-.43.23h.62l0,.5v8Zm-1.9-7.85h0l1-.54Z" transform="translate(-12.19 -9.66)"/><path class="cls-6" d="M251.43,22.81a21,21,0,0,0,.9-3.58l1.47-.15a18.07,18.07,0,0,1-1.42,3.65Z" transform="translate(-12.19 -9.66)"/><path class="cls-6" d="M250.69,23.38l.28-.75a20.59,20.59,0,0,0,.87-3.48l.06-.38,2.58-.26-.19.7A18.63,18.63,0,0,1,252.81,23l-.13.22Zm2.07-3.7c-.12.67-.31,1.47-.5,2.17a22,22,0,0,0,.85-2.21Z" transform="translate(-12.19 -9.66)"/><path class="cls-6" d="M255.8,21v-.81l1-1c2.49-2.37,3.61-3.63,3.63-5.1a1.74,1.74,0,0,0-1.94-1.91,3.31,3.31,0,0,0-2.07.83L256,12a4.26,4.26,0,0,1,2.76-1,2.74,2.74,0,0,1,3,2.83c0,1.8-1.3,3.25-3.36,5.23l-.78.72v0H262V21H255.8Z" transform="translate(-12.19 -9.66)"/><path class="cls-6" d="M262.52,21.46h-7.23V19.94l1.19-1.15c2.44-2.33,3.47-3.5,3.48-4.75a1.25,1.25,0,0,0-1.43-1.4,2.84,2.84,0,0,0-1.75.71l-.51.42-.85-1.87.29-.24a4.81,4.81,0,0,1,3.08-1.11,3.23,3.23,0,0,1,3.49,3.33c0,2-1.46,3.61-3.4,5.48h3.64Zm-6.22-1h5.23v-.09h-4.38v-.72l.16-.18.78-.72c2.17-2.09,3.2-3.35,3.2-4.87a2.23,2.23,0,0,0-2.49-2.33,3.8,3.8,0,0,0-2.14.65h0a3.59,3.59,0,0,1,1.87-.56A2.22,2.22,0,0,1,261,14.06c0,1.69-1.22,3-3.79,5.46l-.88.85v.09Z" transform="translate(-12.19 -9.66)"/><path class="cls-6" d="M270.14,12.32h-3.72l-.38,2.5a5.31,5.31,0,0,1,.79-.06,4.22,4.22,0,0,1,2.1.52,2.79,2.79,0,0,1,1.4,2.5,3.38,3.38,0,0,1-3.63,3.33,4.77,4.77,0,0,1-2.43-.6l.33-1a4.34,4.34,0,0,0,2.08.54A2.15,2.15,0,0,0,269,17.94c0-1.26-.85-2.16-2.81-2.16a11.22,11.22,0,0,0-1.35.1l.63-4.68h4.66v1.12Z" transform="translate(-12.19 -9.66)"/><path class="cls-6" d="M266.7,21.63A5.19,5.19,0,0,1,264,21l-.32-.21.65-2,.54.32a3.93,3.93,0,0,0,1.83.47A1.66,1.66,0,0,0,268.51,18c0-1.1-.79-1.66-2.31-1.66a9.7,9.7,0,0,0-1.21.09l-.64.08v-.63l.69-5.11h5.6v2.11h-3.79l-.22,1.45h.21a4.6,4.6,0,0,1,2.36.6,3.26,3.26,0,0,1,1.64,2.93A3.93,3.93,0,0,1,266.7,21.63Zm-1.82-1.35a4.82,4.82,0,0,0,1.82.35,2.89,2.89,0,0,0,3.13-2.83,2.31,2.31,0,0,0-1.14-2.07,3.62,3.62,0,0,0-1.85-.46l-.46,0c1.94.06,3.1,1,3.12,2.65a2.66,2.66,0,0,1-2.81,2.62,5,5,0,0,1-1.79-.34Zm1-8.57-.49,3.61h.07l.06-.56.44-2.93h3.65v-.11Z" transform="translate(-12.19 -9.66)"/><path class="cls-6" d="M279.32,16c0,3.31-1.23,5.15-3.39,5.15-1.9,0-3.19-1.79-3.22-5s1.41-5.07,3.39-5.07S279.32,12.88,279.32,16Zm-5.3.15c0,2.53.78,4,2,4,1.35,0,2-1.57,2-4.06s-.62-4-2-4C274.86,12.07,274,13.48,274,16.13Z" transform="translate(-12.19 -9.66)"/><path class="cls-6" d="M275.93,21.63c-2.27,0-3.69-2.11-3.72-5.51s1.53-5.57,3.89-5.57,3.72,2,3.72,5.43C279.82,19.57,278.4,21.63,275.93,21.63Zm.16-10.08c-1.78,0-2.89,1.75-2.89,4.57s1,4.51,2.72,4.51c2.51,0,2.89-2.91,2.89-4.65C278.82,14.65,278.55,11.55,276.09,11.55ZM276,20.61c-1.55,0-2.48-1.67-2.48-4.47,0-3.37,1.29-4.56,2.5-4.56.93,0,2.48.58,2.48,4.47S276.94,20.61,276,20.61Zm0-8c-.89,0-1.5,1.43-1.5,3.56s.58,3.47,1.48,3.47c1.35,0,1.5-2.49,1.5-3.56S277.35,12.57,276,12.57Z" transform="translate(-12.19 -9.66)"/><path class="cls-6" d="M285.92,21V14.71h-1v-1h1v-.34a3.46,3.46,0,0,1,.84-2.54,2.54,2.54,0,0,1,1.77-.67,2.93,2.93,0,0,1,1.12.21l-.18,1a1.93,1.93,0,0,0-.84-.17c-1.12,0-1.41,1-1.41,2.1v.39H289v1h-1.76V21Z" transform="translate(-12.19 -9.66)"/><path class="cls-6" d="M287.72,21.46h-2.3V15.21h-1v-2h1a3.76,3.76,0,0,1,1-2.74,3,3,0,0,1,2.12-.81,3.53,3.53,0,0,1,1.32.25l.37.15-.36,2.06-.59-.27a1.48,1.48,0,0,0-.63-.12c-.29,0-.88,0-.91,1.49h1.75v2h-1.76Zm-1.3-1h.3V14.21h0v-.89c0-2.26,1.2-2.6,1.91-2.6a3.15,3.15,0,0,1,.44,0v0a2.82,2.82,0,0,0-.56-.06,2.05,2.05,0,0,0-1.42.53,2.92,2.92,0,0,0-.69,2.18v.84h0v6.26Z" transform="translate(-12.19 -9.66)"/><path class="cls-6" d="M292.74,11.62V13.7h1.89v1h-1.89v3.92c0,.9.25,1.41,1,1.41a2.77,2.77,0,0,0,.77-.09l.06,1a3.37,3.37,0,0,1-1.17.18,1.84,1.84,0,0,1-1.43-.55,2.67,2.67,0,0,1-.51-1.89v-4h-1.12v-1h1.12V12Z" transform="translate(-12.19 -9.66)"/><path class="cls-6" d="M293.39,21.61a2.28,2.28,0,0,1-1.8-.73,3.07,3.07,0,0,1-.63-2.22V15.2h-1.12v-2H291V11.58l2.29-.61v2.24h1.89v2h-1.89v3.42c0,.91.26.91.49.91a2.59,2.59,0,0,0,.63-.07l.59-.16.12,2-.33.14A4,4,0,0,1,293.39,21.61Zm-2.56-7.4H292v4.46a2.27,2.27,0,0,0,.37,1.54,1.4,1.4,0,0,0,1.07.4,4.29,4.29,0,0,0,.65-.05v0c-.68.05-1.79-.07-1.79-1.9V14.2h0V12.27l-.29.08v1.86Z" transform="translate(-12.19 -9.66)"/><path class="cls-6" d="M296.58,20.18a.89.89,0,0,1,.9-.95.95.95,0,1,1-.9.95Z" transform="translate(-12.19 -9.66)"/><path class="cls-6" d="M297.47,21.63a1.38,1.38,0,0,1-1.38-1.44,1.4,1.4,0,0,1,1.4-1.45,1.45,1.45,0,0,1,0,2.89Zm0-1.89c-.25,0-.4.17-.4.45s.1.44.38.44a.39.39,0,0,0,.4-.44A.38.38,0,0,0,297.48,19.74Z" transform="translate(-12.19 -9.66)"/><rect class="cls-6" x="225.45" y="13.8" width="1.66" height="28.53"/></g><g id="Layer_3-2" data-name="Layer 3"><path class="cls-6" d="M84.89,62a21,21,0,0,0,.9-3.58l1.47-.15a18.07,18.07,0,0,1-1.42,3.65Z" transform="translate(-12.19 -9.66)"/><path class="cls-6" d="M84.15,62.56l.28-.75a20.59,20.59,0,0,0,.87-3.48l.06-.38,2.58-.26-.19.7a18.63,18.63,0,0,1-1.48,3.77l-.13.22Zm2.07-3.7c-.12.67-.31,1.47-.5,2.17a22,22,0,0,0,.85-2.21Z" transform="translate(-12.19 -9.66)"/><path class="cls-6" d="M103.6,51.5H99.88L99.5,54a5.31,5.31,0,0,1,.79-.06,4.22,4.22,0,0,1,2.1.52,2.79,2.79,0,0,1,1.4,2.5,3.38,3.38,0,0,1-3.63,3.33,4.77,4.77,0,0,1-2.43-.6l.33-1a4.34,4.34,0,0,0,2.08.54,2.15,2.15,0,0,0,2.31-2.11c0-1.26-.85-2.16-2.81-2.16a11.22,11.22,0,0,0-1.35.1l.63-4.68h4.66V51.5Z" transform="translate(-12.19 -9.66)"/><path class="cls-6" d="M100.16,60.81a5.19,5.19,0,0,1-2.7-.68l-.32-.21.65-2,.54.32a3.93,3.93,0,0,0,1.83.47A1.66,1.66,0,0,0,102,57.14c0-1.1-.79-1.66-2.31-1.66a9.7,9.7,0,0,0-1.21.09l-.64.08V55l.69-5.11h5.6V52h-3.79l-.22,1.45h.21a4.6,4.6,0,0,1,2.36.6A3.26,3.26,0,0,1,104.31,57,3.93,3.93,0,0,1,100.16,60.81Zm-1.82-1.35a4.82,4.82,0,0,0,1.82.35A2.89,2.89,0,0,0,103.29,57a2.31,2.31,0,0,0-1.14-2.07,3.62,3.62,0,0,0-1.85-.46l-.46,0c1.94.06,3.1,1,3.12,2.65a2.66,2.66,0,0,1-2.81,2.62,5,5,0,0,1-1.79-.34Zm1-8.57-.49,3.61H99l.06-.56L99.45,51h3.65v-.11Z" transform="translate(-12.19 -9.66)"/><path class="cls-6" d="M112.78,55.16c0,3.31-1.23,5.15-3.39,5.15-1.9,0-3.19-1.79-3.22-5s1.41-5.07,3.39-5.07S112.78,52.06,112.78,55.16Zm-5.3.15c0,2.53.78,4,2,4,1.35,0,2-1.57,2-4.06s-.62-4-2-4C108.32,51.25,107.48,52.66,107.48,55.31Z" transform="translate(-12.19 -9.66)"/><path class="cls-6" d="M109.39,60.81c-2.27,0-3.69-2.11-3.72-5.51s1.53-5.57,3.89-5.57,3.72,2,3.72,5.43C113.28,58.75,111.86,60.81,109.39,60.81Zm.16-10.08c-1.78,0-2.89,1.75-2.89,4.57s1,4.51,2.72,4.51c2.51,0,2.89-2.91,2.89-4.65C112.28,53.83,112,50.73,109.55,50.73Zm-.09,9.06c-1.55,0-2.48-1.67-2.48-4.47,0-3.37,1.29-4.56,2.5-4.56.93,0,2.48.58,2.48,4.47S110.4,59.79,109.46,59.79Zm0-8c-.89,0-1.5,1.43-1.5,3.56s.58,3.47,1.48,3.47c1.35,0,1.5-2.49,1.5-3.56S110.81,51.75,109.48,51.75Z" transform="translate(-12.19 -9.66)"/><path class="cls-6" d="M119.38,60.14V53.89h-1v-1h1v-.34a3.46,3.46,0,0,1,.84-2.54,2.54,2.54,0,0,1,1.77-.67,2.93,2.93,0,0,1,1.12.21l-.18,1a1.93,1.93,0,0,0-.84-.17c-1.12,0-1.41,1-1.41,2.1v.39h1.76v1h-1.76v6.25Z" transform="translate(-12.19 -9.66)"/><path class="cls-6" d="M121.18,60.64h-2.3V54.39h-1v-2h1a3.76,3.76,0,0,1,1-2.74,3,3,0,0,1,2.12-.81,3.53,3.53,0,0,1,1.32.25l.37.15-.36,2.06-.59-.27a1.48,1.48,0,0,0-.63-.12c-.29,0-.88,0-.91,1.49h1.75v2h-1.76Zm-1.3-1h.3V53.39h0V52.5c0-2.26,1.2-2.6,1.91-2.6a3.15,3.15,0,0,1,.44,0v0a2.82,2.82,0,0,0-.56-.06,2.05,2.05,0,0,0-1.42.53,2.92,2.92,0,0,0-.69,2.18v.84h0v6.26Z" transform="translate(-12.19 -9.66)"/><path class="cls-6" d="M126.2,50.8v2.08h1.89v1H126.2V57.8c0,.9.25,1.41,1,1.41a2.77,2.77,0,0,0,.77-.09l.06,1a3.37,3.37,0,0,1-1.17.18,1.84,1.84,0,0,1-1.43-.55,2.67,2.67,0,0,1-.51-1.89v-4h-1.12v-1h1.12V51.15Z" transform="translate(-12.19 -9.66)"/><path class="cls-6" d="M126.85,60.79a2.28,2.28,0,0,1-1.8-.73,3.07,3.07,0,0,1-.63-2.22V54.38H123.3v-2h1.12V50.76l2.29-.61v2.24h1.89v2h-1.89v3.42c0,.91.26.91.49.91a2.59,2.59,0,0,0,.63-.07l.59-.16.12,2-.33.14A4,4,0,0,1,126.85,60.79Zm-2.56-7.4h1.12v4.46a2.27,2.27,0,0,0,.37,1.54,1.4,1.4,0,0,0,1.07.4,4.29,4.29,0,0,0,.65,0v0c-.68,0-1.79-.07-1.79-1.9V53.38h0V51.45l-.29.08v1.86Z" transform="translate(-12.19 -9.66)"/><path class="cls-6" d="M130,59.36a.89.89,0,0,1,.9-1,.95.95,0,1,1-.9,1Z" transform="translate(-12.19 -9.66)"/><path class="cls-6" d="M130.93,60.81a1.38,1.38,0,0,1-1.38-1.44,1.4,1.4,0,0,1,1.4-1.45,1.45,1.45,0,0,1,0,2.89Zm0-1.89c-.25,0-.4.17-.4.45s.1.44.38.44a.39.39,0,0,0,.4-.44A.38.38,0,0,0,130.94,58.92Z" transform="translate(-12.19 -9.66)"/><rect class="cls-6" x="117.91" y="53.98" width="1.66" height="26.53"/><path class="cls-6" d="M83.6,51.5H79.88L79.5,54a5.31,5.31,0,0,1,.79-.06,4.22,4.22,0,0,1,2.1.52,2.79,2.79,0,0,1,1.4,2.5,3.38,3.38,0,0,1-3.63,3.33,4.77,4.77,0,0,1-2.43-.6l.33-1a4.34,4.34,0,0,0,2.08.54,2.15,2.15,0,0,0,2.31-2.11c0-1.26-.85-2.16-2.81-2.16a11.22,11.22,0,0,0-1.35.1l.63-4.68h4.66V51.5Z" transform="translate(-12.19 -9.66)"/><path class="cls-6" d="M80.16,60.81a5.19,5.19,0,0,1-2.7-.68l-.32-.21.65-2,.54.32a3.93,3.93,0,0,0,1.83.47A1.66,1.66,0,0,0,82,57.14c0-1.1-.79-1.66-2.31-1.66a9.7,9.7,0,0,0-1.21.09l-.64.08V55l.69-5.11h5.6V52H80.32l-.22,1.45h.21a4.6,4.6,0,0,1,2.36.6A3.26,3.26,0,0,1,84.31,57,3.93,3.93,0,0,1,80.16,60.81Zm-1.82-1.35a4.82,4.82,0,0,0,1.82.35A2.89,2.89,0,0,0,83.29,57a2.31,2.31,0,0,0-1.14-2.07,3.62,3.62,0,0,0-1.85-.46l-.46,0c1.94.06,3.1,1,3.12,2.65a2.66,2.66,0,0,1-2.81,2.62,5,5,0,0,1-1.79-.34Zm1-8.57-.49,3.61H79l.06-.56L79.45,51H83.1v-.11Z" transform="translate(-12.19 -9.66)"/><path class="cls-6" d="M95.6,51.5H91.88L91.5,54a5.31,5.31,0,0,1,.79-.06,4.22,4.22,0,0,1,2.1.52,2.79,2.79,0,0,1,1.4,2.5,3.38,3.38,0,0,1-3.63,3.33,4.77,4.77,0,0,1-2.43-.6l.33-1a4.34,4.34,0,0,0,2.08.54,2.15,2.15,0,0,0,2.31-2.11c0-1.26-.85-2.16-2.81-2.16a11.22,11.22,0,0,0-1.35.1l.63-4.68h4.66V51.5Z" transform="translate(-12.19 -9.66)"/><path class="cls-6" d="M92.16,60.81a5.19,5.19,0,0,1-2.7-.68l-.32-.21.65-2,.54.32a3.93,3.93,0,0,0,1.83.47A1.66,1.66,0,0,0,94,57.14c0-1.1-.79-1.66-2.31-1.66a9.7,9.7,0,0,0-1.21.09l-.64.08V55l.69-5.11h5.6V52H92.32l-.22,1.45h.21a4.6,4.6,0,0,1,2.36.6A3.26,3.26,0,0,1,96.31,57,3.93,3.93,0,0,1,92.16,60.81Zm-1.82-1.35a4.82,4.82,0,0,0,1.82.35A2.89,2.89,0,0,0,95.29,57a2.31,2.31,0,0,0-1.14-2.07,3.62,3.62,0,0,0-1.85-.46l-.46,0c1.94.06,3.1,1,3.12,2.65a2.66,2.66,0,0,1-2.81,2.62,5,5,0,0,1-1.79-.34Zm1-8.57-.49,3.61H91l.06-.56L91.45,51H95.1v-.11Z" transform="translate(-12.19 -9.66)"/></g></g></svg>