<?xml version="1.0" encoding="utf-8"?>
<!-- Generator: Adobe Illustrator 24.0.1, SVG Export Plug-In . SVG Version: 6.00 Build 0)  -->
<svg version="1.1" id="Layer_1" xmlns="http://www.w3.org/2000/svg" xmlns:xlink="http://www.w3.org/1999/xlink" x="0px" y="0px"
	 viewBox="0 0 420.4 55" style="enable-background:new 0 0 420.4 55;" xml:space="preserve">
<style type="text/css">
	.st0{fill:#363738;}
	.st1{fill-rule:evenodd;clip-rule:evenodd;fill:#363738;}
</style>
<g>
	<path class="st0" d="M35.1,49.4c-2.5,0.9-5.5,1.4-8.3,1.4c-7.5,0-14.2-3.7-18.3-9.4l7.1-7.3c0.7-0.7,1.5-1.4,2.3-1.3
		c0.8,0.1,1.6,1,2.5,1.9L35.1,49.4L35.1,49.4z"/>
	<path class="st0" d="M28.2,24.1c0,0-0.6-0.7-1.1-0.7c-0.4,0-1,0.7-1,0.7l-3.4,3.4c0,0-0.7,0.6-0.7,1c0,0.4,0.7,1.1,0.7,1.1l0.9,0.9
		l2.5,2.5c0,0,0.6,0.7,1.1,0.7c0.4,0,1-0.7,1-0.7l3.4-3.4c0,0,0.7-0.6,0.7-1.1c0-0.4-0.7-1-0.7-1L28.2,24.1L28.2,24.1z"/>
	<path class="st0" d="M5.9,36.5c-0.9-2.5-1.5-5.4-1.5-8.2c0-7.5,3.7-14.2,9.4-18.3l7.3,7.1c0.7,0.7,1.4,1.5,1.3,2.3
		c-0.1,0.8-1,1.6-1.9,2.5L5.9,36.5L5.9,36.5z"/>
	<path class="st0" d="M18.7,7.6C21.2,6.7,24.2,6,27,6c7.5,0,14.2,3.7,18.3,9.4l-7.1,7.3c-0.7,0.7-1.5,1.4-2.3,1.3
		c-0.8-0.1-1.6-1-2.5-1.9L18.7,7.6L18.7,7.6z"/>
	<path class="st0" d="M48,20.4c0.9,2.5,1.5,5.5,1.5,8.3c0,7.5-3.7,14.2-9.4,18.3l-7.3-7.1c-0.7-0.7-1.4-1.5-1.3-2.3
		c0.1-0.8,1-1.6,1.9-2.5L48,20.4L48,20.4z"/>
	<path class="st1" d="M60.6,40.9h5.5v-9h5.8c6.2,0,8.7-4,8.7-8s-2.4-8-8.7-8H60.6V40.9L60.6,40.9z M66,20.2h4.3
		c2.6,0,4.8,0.6,4.8,3.8s-2.3,3.8-4.8,3.8H66V20.2L66,20.2z"/>
	<path class="st1" d="M82.8,28.5c0,7.2,4.6,13,12.3,13s12.3-5.8,12.3-13c0-7.4-4.6-13.2-12.3-13.2C87.4,15.3,82.8,21.1,82.8,28.5
		L82.8,28.5z M88.3,28.5c0-4.4,1.9-8.6,6.8-8.6c4.9,0,6.8,4.2,6.8,8.6c0,4.2-1.9,8.4-6.8,8.4C90.2,36.9,88.3,32.7,88.3,28.5
		L88.3,28.5z"/>
	<path class="st1" d="M111.2,40.9h5.5v-9.8h5.5c2.8,0,3.8,1.2,4.2,3.8c0.3,2,0.2,4.4,0.9,6h5.5c-1-1.4-0.9-4.3-1.1-5.9
		c-0.2-2.5-0.9-5.1-3.6-5.9v-0.1c2.8-1.1,4-3.3,4-6.3c0-3.8-2.8-6.9-7.3-6.9h-13.5V40.9L111.2,40.9z M116.6,20.2h6
		c2.4,0,3.8,1,3.8,3.5c0,2.5-1.3,3.6-3.8,3.6h-6V20.2L116.6,20.2z"/>
	<polygon class="st0" points="141.3,40.9 146.8,40.9 146.8,20.5 154.3,20.5 154.3,15.9 133.8,15.9 133.8,20.5 141.3,20.5 	"/>
	<path class="st1" d="M165.8,28.5c0,7.2,4.6,13,12.3,13c7.7,0,12.3-5.8,12.3-13c0-7.4-4.6-13.2-12.3-13.2
		C170.4,15.3,165.8,21.1,165.8,28.5L165.8,28.5z M171.3,28.5c0-4.4,1.9-8.6,6.8-8.6c4.9,0,6.8,4.2,6.8,8.6c0,4.2-1.9,8.4-6.8,8.4
		C173.2,36.9,171.3,32.7,171.3,28.5L171.3,28.5z"/>
	<polygon class="st0" points="194.2,40.9 199.7,40.9 199.7,30.6 210.1,30.6 210.1,26.3 199.7,26.3 199.7,20.5 211.7,20.5 
		211.7,15.9 194.2,15.9 	"/>
	<path class="st1" d="M224.6,40.9h5.5v-9h5.8c6.2,0,8.6-4,8.6-8s-2.4-8-8.6-8h-11.3V40.9L224.6,40.9z M230.1,20.2h4.3
		c2.6,0,4.8,0.6,4.8,3.8s-2.3,3.8-4.8,3.8h-4.3V20.2L230.1,20.2z"/>
	<path class="st1" d="M246.9,28.5c0,7.2,4.5,13,12.3,13c7.7,0,12.3-5.8,12.3-13c0-7.4-4.5-13.2-12.3-13.2
		C251.5,15.3,246.9,21.1,246.9,28.5L246.9,28.5z M252.4,28.5c0-4.4,1.9-8.6,6.8-8.6c4.9,0,6.8,4.2,6.8,8.6c0,4.2-1.9,8.4-6.8,8.4
		C254.3,36.9,252.4,32.7,252.4,28.5L252.4,28.5z"/>
	<path class="st1" d="M275.2,40.9h5.5v-9.8h5.5c2.8,0,3.8,1.2,4.2,3.8c0.3,2,0.2,4.4,0.9,6h5.5c-1-1.4-1-4.3-1-5.9
		c-0.2-2.5-1-5.1-3.6-5.9v-0.1c2.8-1.1,4-3.3,4-6.3c0-3.8-2.8-6.9-7.3-6.9h-13.5L275.2,40.9L275.2,40.9z M280.7,20.2h6
		c2.5,0,3.8,1,3.8,3.5c0,2.5-1.3,3.6-3.8,3.6h-6V20.2L280.7,20.2z"/>
	<polygon class="st0" points="305.4,40.9 310.9,40.9 310.9,20.5 318.4,20.5 318.4,15.9 297.9,15.9 297.9,20.5 305.4,20.5 	"/>
	<polygon class="st0" points="321.3,40.9 339,40.9 339,36.3 326.8,36.3 326.8,15.9 321.3,15.9 	"/>
	<path class="st1" d="M340.4,40.9h5.6l2-5.6h9.4l1.9,5.6h5.7l-9.4-25h-5.6L340.4,40.9L340.4,40.9z M352.6,22.1L352.6,22.1l3.2,9.2
		h-6.5L352.6,22.1L352.6,22.1z"/>
	<polygon class="st0" points="367,40.9 372.2,40.9 372.2,24.2 372.2,24.2 382.6,40.9 388.1,40.9 388.1,15.9 383,15.9 383,32.7 
		382.9,32.7 372.5,15.9 367,15.9 	"/>
	<path class="st1" d="M393,40.9h10.8c7.6,0,11.4-5.4,11.4-12.6c0-8.3-4.9-12.4-11.4-12.4H393V40.9L393,40.9z M398.5,20.5h3.9
		c5.5,0,7.2,3.2,7.2,8.3c0,5.5-3,7.5-6.2,7.5h-4.9V20.5L398.5,20.5z"/>
</g>
</svg>
