<?xml version="1.0" encoding="utf-8"?>
<!-- Generator: Adobe Illustrator 24.0.1, SVG Export Plug-In . SVG Version: 6.00 Build 0)  -->
<svg version="1.1" id="Layer_1" xmlns="http://www.w3.org/2000/svg" xmlns:xlink="http://www.w3.org/1999/xlink" x="0px" y="0px"
	 viewBox="0 0 425 55" style="enable-background:new 0 0 425 55;" xml:space="preserve">
<style type="text/css">
	.st0{fill:#363738;}
	.st1{fill-rule:evenodd;clip-rule:evenodd;fill:#363738;}
</style>
<g>
	<path class="st0" d="M39.76,49.43c-2.48,0.94-5.52,1.42-8.32,1.42c-7.52,0-14.18-3.7-18.26-9.37l7.12-7.27
		c0.72-0.73,1.53-1.36,2.3-1.28c0.78,0.09,1.61,1.02,2.47,1.87L39.76,49.43L39.76,49.43z"/>
	<path class="st0" d="M32.82,24.12c0,0-0.61-0.72-1.06-0.72c-0.41,0-0.97,0.69-0.97,0.69l-3.42,3.39c0,0-0.69,0.56-0.69,0.97
		c0,0.44,0.72,1.06,0.72,1.06l0.86,0.86l2.47,2.46c0,0,0.61,0.72,1.06,0.72c0.41,0,0.97-0.69,0.97-0.69l3.36-3.36
		c0,0,0.72-0.61,0.72-1.06c0-0.41-0.69-0.97-0.69-0.97L32.82,24.12L32.82,24.12z"/>
	<path class="st0" d="M10.51,36.5C9.57,34.02,9,31.07,9,28.26c0-7.52,3.7-14.18,9.37-18.26l7.27,7.12c0.73,0.72,1.36,1.53,1.28,2.3
		c-0.09,0.78-1.02,1.61-1.87,2.47L10.51,36.5L10.51,36.5z"/>
	<path class="st0" d="M23.35,7.59C25.82,6.65,28.86,6,31.67,6c7.52,0,14.18,3.7,18.26,9.37l-7.12,7.27
		c-0.72,0.73-1.53,1.36-2.3,1.28c-0.78-0.09-1.6-1.02-2.47-1.87L23.35,7.59L23.35,7.59z"/>
	<path class="st0" d="M52.68,20.35c0.94,2.48,1.51,5.52,1.51,8.32c0,7.52-3.7,14.18-9.37,18.26l-7.27-7.12
		c-0.73-0.72-1.36-1.53-1.28-2.3c0.09-0.78,1.02-1.61,1.87-2.47L52.68,20.35L52.68,20.35z"/>
	<path class="st1" d="M65.2,40.93h5.5v-8.96h5.78c6.23,0,8.65-3.96,8.65-8.02s-2.42-8.02-8.65-8.02H65.2V40.93L65.2,40.93z
		 M70.69,20.2h4.27c2.56,0,4.83,0.56,4.83,3.75s-2.28,3.75-4.83,3.75h-4.27V20.2L70.69,20.2z"/>
	<path class="st1" d="M87.47,28.53c0,7.21,4.55,12.99,12.29,12.99s12.29-5.78,12.29-12.99c0-7.42-4.55-13.2-12.29-13.2
		C92.02,15.33,87.47,21.11,87.47,28.53L87.47,28.53z M92.97,28.53c0-4.38,1.86-8.58,6.79-8.58c4.94,0,6.79,4.2,6.79,8.58
		c0,4.17-1.86,8.37-6.79,8.37C94.82,36.9,92.97,32.7,92.97,28.53L92.97,28.53z"/>
	<path class="st1" d="M115.8,40.93h5.5v-9.77h5.5c2.77,0,3.78,1.16,4.17,3.78c0.28,2,0.21,4.41,0.88,5.99h5.5
		c-0.98-1.4-0.95-4.34-1.05-5.92c-0.18-2.52-0.95-5.15-3.64-5.85v-0.07c2.77-1.12,3.96-3.33,3.96-6.27c0-3.78-2.84-6.9-7.32-6.9
		h-13.5V40.93L115.8,40.93z M121.29,20.2h6.02c2.45,0,3.78,1.05,3.78,3.47c0,2.52-1.33,3.57-3.78,3.57h-6.02V20.2L121.29,20.2z"/>
	<polygon class="st0" points="145.98,40.93 151.47,40.93 151.47,20.55 158.97,20.55 158.97,15.92 138.48,15.92 138.48,20.55 
		145.98,20.55 	"/>
	<path class="st1" d="M170.48,28.53c0,7.21,4.55,12.99,12.29,12.99c7.74,0,12.29-5.78,12.29-12.99c0-7.42-4.55-13.2-12.29-13.2
		C175.03,15.33,170.48,21.11,170.48,28.53L170.48,28.53z M175.98,28.53c0-4.38,1.86-8.58,6.79-8.58c4.94,0,6.79,4.2,6.79,8.58
		c0,4.17-1.86,8.37-6.79,8.37C177.83,36.9,175.98,32.7,175.98,28.53L175.98,28.53z"/>
	<polygon class="st0" points="198.81,40.93 204.3,40.93 204.3,30.6 214.77,30.6 214.77,26.32 204.3,26.32 204.3,20.55 216.38,20.55 
		216.38,15.92 198.81,15.92 	"/>
	<path class="st1" d="M229.29,40.93h5.5v-8.96h5.78c6.23,0,8.65-3.96,8.65-8.02s-2.42-8.02-8.65-8.02h-11.28V40.93L229.29,40.93z
		 M234.79,20.2h4.27c2.56,0,4.83,0.56,4.83,3.75s-2.28,3.75-4.83,3.75h-4.27V20.2L234.79,20.2z"/>
	<path class="st1" d="M251.57,28.53c0,7.21,4.55,12.99,12.29,12.99c7.74,0,12.29-5.78,12.29-12.99c0-7.42-4.55-13.2-12.29-13.2
		C256.12,15.33,251.57,21.11,251.57,28.53L251.57,28.53z M257.07,28.53c0-4.38,1.86-8.58,6.79-8.58c4.94,0,6.79,4.2,6.79,8.58
		c0,4.17-1.86,8.37-6.79,8.37C258.92,36.9,257.07,32.7,257.07,28.53L257.07,28.53z"/>
	<path class="st1" d="M279.89,40.93h5.5v-9.77h5.5c2.77,0,3.78,1.16,4.17,3.78c0.28,2,0.21,4.41,0.87,5.99h5.5
		c-0.98-1.4-0.95-4.34-1.05-5.92c-0.18-2.52-0.95-5.15-3.64-5.85v-0.07c2.77-1.12,3.96-3.33,3.96-6.27c0-3.78-2.84-6.9-7.32-6.9
		H279.9L279.89,40.93L279.89,40.93z M285.39,20.2h6.02c2.45,0,3.78,1.05,3.78,3.47c0,2.52-1.33,3.57-3.78,3.57h-6.02V20.2
		L285.39,20.2z"/>
	<polygon class="st0" points="310.08,40.93 315.57,40.93 315.57,20.55 323.07,20.55 323.07,15.92 302.58,15.92 302.58,20.55 
		310.08,20.55 	"/>
	<polygon class="st0" points="325.93,40.93 343.62,40.93 343.62,36.3 331.43,36.3 331.43,15.92 325.93,15.92 	"/>
	<path class="st1" d="M345.03,40.93h5.57l1.96-5.57h9.35l1.89,5.57h5.71l-9.35-25h-5.64L345.03,40.93L345.03,40.93z M357.25,22.09
		h0.07l3.15,9.17H354L357.25,22.09L357.25,22.09z"/>
	<polygon class="st0" points="371.67,40.93 376.82,40.93 376.82,24.19 376.89,24.19 387.29,40.93 392.79,40.93 392.79,15.92 
		387.64,15.92 387.64,32.7 387.57,32.7 377.14,15.92 371.67,15.92 	"/>
	<path class="st1" d="M397.62,40.93h10.78c7.63,0,11.35-5.39,11.35-12.64c0-8.3-4.87-12.36-11.35-12.36h-10.78V40.93L397.62,40.93z
		 M403.12,20.55h3.92c5.46,0,7.21,3.22,7.21,8.26c0,5.53-3.05,7.49-6.23,7.49h-4.9V20.55L403.12,20.55z"/>
</g>
</svg>
