<svg xmlns="http://www.w3.org/2000/svg" viewBox="0 0 332.33 114.06"><defs><style>.cls-1{fill:#4243b0;}.cls-2{fill:#5e51e1;}.cls-3{fill:#b6b8ba;}.cls-4{fill:#7e8083;}</style></defs><g id="Layer_1" data-name="Layer 1"><path class="cls-1" d="M107,45.74c0,5.43,0,10.86,0,16.3a2.46,2.46,0,0,1-1.39,2.47Q91.39,72.66,77.23,80.92c-1.3.76-1.62.53-1.62-.93q0-16.5,0-33A2.33,2.33,0,0,1,77,44.7q14.28-8.22,28.53-16.54c1.28-.75,1.5-.41,1.49.89C107,34.61,107,40.18,107,45.74Z" transform="translate(-6 -7.55)"/><path class="cls-2" d="M72.18,103.67c0,5.5,0,11,0,16.5,0,1.48-.21,1.84-1.66,1q-14.16-8.28-28.4-16.42a2.51,2.51,0,0,1-1.39-2.5c0-10.88,0-21.75,0-32.62,0-1.92.14-2,1.78-1C52,74,61.34,79.52,70.77,84.92a2.44,2.44,0,0,1,1.43,2.44C72.15,92.8,72.18,98.23,72.18,103.67Z" transform="translate(-6 -7.55)"/><path class="cls-2" d="M40.77,45.79c0-5.44,0-10.87,0-16.31,0-2.1.07-2.14,1.82-1.13,9.29,5.38,18.57,10.78,27.89,16.11a3,3,0,0,1,1.73,3.07c-.06,10.67,0,21.35,0,32,0,2.24,0,2.26-1.89,1.18C61,75.36,51.71,70,42.4,64.62a2.91,2.91,0,0,1-1.67-2.92C40.82,56.4,40.77,51.09,40.77,45.79Z" transform="translate(-6 -7.55)"/><path class="cls-2" d="M37.46,43.21c0,5.5,0,11,0,16.49,0,1.61-.35,1.75-1.71,1Q21.63,52.38,7.4,44.24A2.49,2.49,0,0,1,6,41.75Q6.06,25.36,6,9C6,7.28,6.47,7.29,7.72,8Q22,16.33,36.26,24.54a2.29,2.29,0,0,1,1.21,2.37C37.44,32.34,37.46,37.77,37.46,43.21Z" transform="translate(-6 -7.55)"/></g><g id="Layer_3" data-name="Layer 3"><path class="cls-3" d="M192,69.6,160.64,96a6.24,6.24,0,0,1-7.81,0l-5.21-4.39a4.15,4.15,0,0,1,0-6.58l22.21-18.72L147.62,47.6a4.16,4.16,0,0,1,0-6.59l5.19-4.43a6.25,6.25,0,0,1,7.8,0L191.93,63A4.15,4.15,0,0,1,192,69.6Z" transform="translate(-6 -7.55)"/><path class="cls-4" d="M290.6,78.53H266.73a6,6,0,0,0-6,6v23.87a6,6,0,0,0,6,6H290.6a6,6,0,0,0,6-6V84.5A6,6,0,0,0,290.6,78.53Zm-35.8-53.7a6,6,0,0,0-6-6H225a6,6,0,0,0-6,6V48.7a6,6,0,0,0,6,6h17.84l13.65,23.87a11.89,11.89,0,0,1,10.27-6h.06l-12-21V42.73h41.77V30.8H254.8Zm77.57-6H308.5a6,6,0,0,0-6,6V48.7a6,6,0,0,0,6,6h23.87a6,6,0,0,0,6-6V24.83A6,6,0,0,0,332.37,18.87Z" transform="translate(-6 -7.55)"/></g></svg>