<svg xmlns="http://www.w3.org/2000/svg" viewBox="0 0 325.95 114.06"><defs><style>.cls-1{fill:#4243b0;}.cls-2{fill:#5e51e1;}.cls-3{fill:#b6b8ba;}.cls-4{fill:#7e8083;}</style></defs><g id="Layer_1" data-name="Layer 1"><path class="cls-1" d="M107,45.74c0,5.43,0,10.86,0,16.3a2.46,2.46,0,0,1-1.39,2.47Q91.39,72.66,77.23,80.92c-1.3.76-1.62.53-1.62-.93q0-16.5,0-33A2.33,2.33,0,0,1,77,44.7q14.28-8.22,28.53-16.54c1.28-.75,1.5-.41,1.49.89C107,34.61,107,40.18,107,45.74Z" transform="translate(-6 -7.55)"/><path class="cls-2" d="M72.18,103.67c0,5.5,0,11,0,16.5,0,1.48-.21,1.84-1.66,1q-14.16-8.28-28.4-16.42a2.51,2.51,0,0,1-1.39-2.5c0-10.88,0-21.75,0-32.62,0-1.92.14-2,1.78-1C52,74,61.34,79.52,70.77,84.92a2.44,2.44,0,0,1,1.43,2.44C72.15,92.8,72.18,98.23,72.18,103.67Z" transform="translate(-6 -7.55)"/><path class="cls-2" d="M40.77,45.79c0-5.44,0-10.87,0-16.31,0-2.1.07-2.14,1.82-1.13,9.29,5.38,18.57,10.78,27.89,16.11a3,3,0,0,1,1.73,3.07c-.06,10.67,0,21.35,0,32,0,2.24,0,2.26-1.89,1.18C61,75.36,51.71,70,42.4,64.62a2.91,2.91,0,0,1-1.67-2.92C40.82,56.4,40.77,51.09,40.77,45.79Z" transform="translate(-6 -7.55)"/><path class="cls-2" d="M37.46,43.21c0,5.5,0,11,0,16.49,0,1.61-.35,1.75-1.71,1Q21.63,52.38,7.4,44.24A2.49,2.49,0,0,1,6,41.75Q6.06,25.36,6,9C6,7.28,6.47,7.29,7.72,8Q22,16.33,36.26,24.54a2.29,2.29,0,0,1,1.21,2.37C37.44,32.34,37.46,37.77,37.46,43.21Z" transform="translate(-6 -7.55)"/></g><g id="Layer_3" data-name="Layer 3"><path class="cls-3" d="M192,69.6,160.64,96a6.24,6.24,0,0,1-7.81,0l-5.21-4.39a4.15,4.15,0,0,1,0-6.58l22.21-18.72L147.62,47.6a4.16,4.16,0,0,1,0-6.59l5.19-4.43a6.25,6.25,0,0,1,7.8,0L191.93,63A4.15,4.15,0,0,1,192,69.6Z" transform="translate(-6 -7.55)"/></g><g id="Layer_2" data-name="Layer 2"><path class="cls-4" d="M298.2,45.18C295.13,26.27,287.89,13,279.47,13S263.8,26.27,260.73,45.18ZM259.14,65.5a134,134,0,0,0,.7,13.55h39.23a131.49,131.49,0,0,0,0-27.1H259.84A134,134,0,0,0,259.14,65.5Zm68.74-20.32a52.59,52.59,0,0,0-33.45-30c5.17,7.16,8.73,17.93,10.59,30Zm-63.4-30a52.58,52.58,0,0,0-33.43,30h22.87c1.84-12,5.39-22.82,10.56-30ZM330.15,52H305.87c.44,4.45.69,9,.69,13.55s-.25,9.1-.69,13.55h24.26A52.24,52.24,0,0,0,332,65.5,53.11,53.11,0,0,0,330.15,52ZM252.37,65.5a135.08,135.08,0,0,1,.7-13.55H228.79a51.35,51.35,0,0,0,0,27.1h24.26C252.62,74.6,252.37,70.05,252.37,65.5Zm8.36,20.32C263.8,104.73,271,118,279.47,118s15.66-13.27,18.73-32.18Zm33.72,30a52.64,52.64,0,0,0,33.45-30H305C303.18,97.87,299.62,108.64,294.45,115.8Zm-63.4-30a52.61,52.61,0,0,0,33.45,30c-5.17-7.16-8.72-17.93-10.58-30Z" transform="translate(-6 -7.55)"/></g></svg>